<?xml version="1.0" encoding="utf-8" ?><svg xmlns="http://www.w3.org/2000/svg" xmlns:xlink="http://www.w3.org/1999/xlink" width="1793" height="576" viewBox="0 0 1793 576"><path fill="#7F2C85" d="M166.042 75.0803C168.972 74.0789 169.818 74.1375 172.947 74.1244L173.331 74.7982C169.262 82.1159 153.313 110.579 154.638 118.443L154.271 118.882C147.318 140.218 149.452 145.143 146.322 164.142C146.589 179.885 147.184 197.543 151.329 212.841C148.135 227.949 143.171 239.21 141.152 255.843C139.401 269.272 139.019 280.52 138.966 294.093L141.132 296.862C152.658 310.733 164.731 322.765 179.048 333.751C180.074 334.538 182.25 336.088 183.096 336.945L183.57 337.021C183.627 335.744 184.651 331.171 184.809 329.148C185.26 323.378 184.411 300.105 187.911 296.418L189.838 297.186C190.961 299.998 192.408 301.007 194.643 302.983C197.837 307.985 200.234 311.059 203.903 315.627C211.123 322.385 217.486 329.402 225.059 335.951C245.437 353.576 263.954 361.728 287.744 372.515L296.282 375.151C293.889 376.901 287.977 380.995 286.297 382.984C290.398 382.524 296.878 376.605 297.238 376.676C306.309 378.457 316.666 384.038 326.112 384.601C329.15 384.586 328.056 384.224 330.53 386.603L332.75 384.475C350.977 387.03 369.555 384.783 386.646 377.955C391.808 375.848 396.554 373.067 401.786 370.784L405.328 368.03L405.517 365.628C416.337 347.573 413.836 306.463 412.555 286.279L411.204 284.431C411.572 274.834 406.628 257.463 403.41 248.332L400.343 240.515C401.17 236.745 397.988 231.612 396.242 228.145C409.439 224.767 425.224 216.038 425.99 201.097C429.281 201.869 432.436 206.415 437.796 207.133C451.075 213.237 474.9 238.861 484.676 250.235L485.167 251.94C492.703 260.994 499.548 270.601 505.646 280.68C506.645 282.333 510.717 289.894 511.795 290.458L514.522 284.518L515.697 286.111C515.008 287.95 513.755 291.849 512.602 293.182C517.871 306.564 525.364 324.047 527.494 338.178C538.91 375.912 527.583 428.311 501.783 457.709C495.242 465.161 483.41 477.668 474.615 482.03C455.982 501.97 408.801 507.298 383.393 510.525C375.339 521.898 361.358 540.96 348.985 548.288C348.626 548.626 348.258 548.955 347.884 549.276C328.752 565.795 295.839 575.044 270.882 572.566C225.896 568.101 201.079 546.473 173.247 514.136C153.51 512.215 128.807 507.673 111.044 498.647C107.266 497.686 98.9857 493.303 95.4371 491.291C66.9153 475.119 40.6894 446.402 31.8951 414.338C20.5723 384.034 25.4468 342.735 36.4359 313.03C38.4722 307.526 42.1059 298.265 45.382 293.478L45.8064 292.243C44.1217 285.185 35.8944 271.011 32.6365 257.627C30.1481 250.076 28.448 242.289 27.5634 234.388C20.3926 201.249 32.4501 152.021 56.6102 127.759C57.2223 126.483 57.4006 126.387 58.255 125.336C80.9082 97.462 130.518 77.2022 166.042 75.0803ZM207.703 418.714C202.83 416.999 196.439 414.958 191.945 412.674C144.988 398.506 104.751 368.22 72.3351 332.2C69.9707 351.185 76.741 374.019 88.592 388.801C103.937 407.94 121.969 415.466 144.513 421.264C149.005 421.458 154.729 422.36 159.562 422.707C177.804 424.018 190.036 422.418 207.703 418.714ZM331.023 472.921C333.082 472.602 338.485 473.213 340.949 473.38C361.696 474.779 383.536 473.309 402.601 464.208C411.95 432.623 412.489 403.948 406.095 372.003C401.307 380.546 397.457 389.582 392.808 398.145C384.837 412.824 373.753 427.338 362.286 439.455C356.799 445.314 350.943 450.817 344.754 455.931C341.744 458.411 326.896 469.06 326.463 471.111C328.233 472.272 329.001 472.383 331.023 472.921Z"/><path fill="#3091AC" d="M396.242 228.145C409.439 224.767 425.224 216.038 425.99 201.097C429.281 201.869 432.436 206.415 437.796 207.133C451.075 213.237 474.9 238.861 484.676 250.235L485.167 251.94C492.703 260.994 499.548 270.601 505.646 280.68C506.645 282.333 510.717 289.894 511.795 290.458L514.522 284.518L515.697 286.111C515.008 287.95 513.755 291.849 512.602 293.182C517.871 306.564 525.364 324.047 527.494 338.178C538.91 375.912 527.583 428.311 501.783 457.709C495.242 465.161 483.41 477.668 474.615 482.03C455.982 501.97 408.801 507.298 383.393 510.525C375.339 521.898 361.358 540.96 348.985 548.288C348.626 548.626 348.258 548.955 347.884 549.276C328.752 565.795 295.839 575.044 270.882 572.566C225.896 568.101 201.079 546.473 173.247 514.136C176.547 513.555 188.489 513.434 192.872 513.111C224.725 513.949 258.994 502.915 288.01 490.836C290.173 489.774 293.217 487.944 295.396 486.72L296.641 486.806C304.35 482.456 312.616 477.022 320.395 473.203C324.016 472.76 327.398 472.764 331.023 472.921C333.082 472.602 338.485 473.213 340.949 473.38C361.696 474.779 383.536 473.309 402.601 464.208C411.95 432.623 412.489 403.948 406.095 372.003C406.177 370.886 405.626 369.176 405.328 368.03L405.517 365.628C416.337 347.573 413.836 306.463 412.555 286.279L411.204 284.431C411.572 274.834 406.628 257.463 403.41 248.332L400.343 240.515C401.17 236.745 397.988 231.612 396.242 228.145Z"/><path fill="#3091AC" d="M402.601 464.208L402.865 465.346C399.268 477.385 394.995 488.01 389.146 499.151C388.239 500.877 385.471 506.062 385.114 507.688C383.099 507.424 374.265 507.875 371.738 507.958C374.025 508.176 379.439 508.313 380.895 509.651C375.683 511.362 359.93 509.893 354.349 508.997L352.771 509.684C359.141 511.686 372.893 512.175 379.673 512.099C374.046 521.395 357.188 541.276 348.506 546.569L348.374 547.609L348.985 548.288C348.626 548.626 348.258 548.955 347.884 549.276C328.752 565.795 295.839 575.044 270.882 572.566C225.896 568.101 201.079 546.473 173.247 514.136C176.547 513.555 188.489 513.434 192.872 513.111C224.725 513.949 258.994 502.915 288.01 490.836C290.173 489.774 293.217 487.944 295.396 486.72L296.641 486.806C304.35 482.456 312.616 477.022 320.395 473.203C324.016 472.76 327.398 472.764 331.023 472.921C333.082 472.602 338.485 473.213 340.949 473.38C361.696 474.779 383.536 473.309 402.601 464.208Z"/><defs><linearGradient id="gradient_0" gradientUnits="userSpaceOnUse" x1="348.34091" y1="468.42511" x2="355.24045" y2="510.58704"><stop offset="0" stop-color="#0D8EA7"/><stop offset="1" stop-color="#1D5D97"/></linearGradient></defs><path fill="url(#gradient_0)" d="M402.601 464.208L402.865 465.346C399.268 477.385 394.995 488.01 389.146 499.151C388.239 500.877 385.471 506.062 385.114 507.688C383.099 507.424 374.265 507.875 371.738 507.958C374.025 508.176 379.439 508.313 380.895 509.651C375.683 511.362 359.93 509.893 354.349 508.997C353.444 508.35 335.458 504.961 332.675 504.202C319.867 500.707 308.402 495.736 296.231 490.624C293.958 489.669 290.235 492.127 288.01 490.836C290.173 489.774 293.217 487.944 295.396 486.72L296.641 486.806C304.35 482.456 312.616 477.022 320.395 473.203C324.016 472.76 327.398 472.764 331.023 472.921C333.082 472.602 338.485 473.213 340.949 473.38C361.696 474.779 383.536 473.309 402.601 464.208Z"/><path fill="#3FB4CE" d="M295.396 486.72L296.641 486.806C316.882 497.851 348.624 507.233 371.738 507.958C374.025 508.176 379.439 508.313 380.895 509.651C375.683 511.362 359.93 509.893 354.349 508.997C353.444 508.35 335.458 504.961 332.675 504.202C319.867 500.707 308.402 495.736 296.231 490.624C293.958 489.669 290.235 492.127 288.01 490.836C290.173 489.774 293.217 487.944 295.396 486.72Z"/><path fill="#9860AC" d="M396.242 228.145C409.439 224.767 425.224 216.038 425.99 201.097C429.281 201.869 432.436 206.415 437.796 207.133C451.075 213.237 474.9 238.861 484.676 250.235L485.167 251.94C492.703 260.994 499.548 270.601 505.646 280.68C506.645 282.333 510.717 289.894 511.795 290.458L514.522 284.518L515.697 286.111C515.008 287.95 513.755 291.849 512.602 293.182C506.143 301.088 502.011 314.999 493.462 324.55C492.665 325.632 487.945 331.924 487.63 332.672C482.555 337.466 477.569 342.353 472.675 347.332L471.059 348.497L470.54 347.783C468.871 353.325 453.032 361.749 450.638 365.103L447.74 366.198L446.415 365.21C445.721 362.301 447.406 356.668 448.152 353.49C440.013 327.422 429.316 307.74 412.555 286.279L411.204 284.431C411.572 274.834 406.628 257.463 403.41 248.332L400.343 240.515C401.17 236.745 397.988 231.612 396.242 228.145Z"/><path fill="#7F2C85" d="M403.41 248.332C419.817 261.288 426.218 269.793 439.773 285.436L442.043 284.68C446.857 288.032 461.748 312.996 465.628 319.42C465.094 322.857 464.98 323.628 462.784 326.3L463.123 326.99C465.877 334.117 468.364 340.453 470.54 347.783C468.871 353.325 453.032 361.749 450.638 365.103L447.74 366.198L446.415 365.21C445.721 362.301 447.406 356.668 448.152 353.49C440.013 327.422 429.316 307.74 412.555 286.279L411.204 284.431C411.572 274.834 406.628 257.463 403.41 248.332Z"/><path fill="#2F185E" d="M463.123 326.99C465.877 334.117 468.364 340.453 470.54 347.783C468.871 353.325 453.032 361.749 450.638 365.103L447.74 366.198L446.415 365.21C445.721 362.301 447.406 356.668 448.152 353.49C452.062 345.198 458.367 335.006 463.123 326.99Z"/><path fill="#8396D6" d="M439.773 285.436L442.043 284.68C446.857 288.032 461.748 312.996 465.628 319.42C465.094 322.857 464.98 323.628 462.784 326.3C455.789 310.281 449.811 299.509 439.773 285.436Z"/><path fill="#4B498E" d="M485.167 251.94C492.703 260.994 499.548 270.601 505.646 280.68C506.645 282.333 510.717 289.894 511.795 290.458L514.522 284.518L515.697 286.111C515.008 287.95 513.755 291.849 512.602 293.182C506.143 301.088 502.011 314.999 493.462 324.55C492.665 325.632 487.945 331.924 487.63 332.672C482.555 337.466 477.569 342.353 472.675 347.332L471.059 348.497L470.54 347.783C468.364 340.453 465.877 334.117 463.123 326.99L462.784 326.3C464.98 323.628 465.094 322.857 465.628 319.42L467.242 315.621C468.079 311.945 472.631 304.199 474.375 300.192C481.084 284.78 485.649 268.824 485.167 251.94Z"/><path fill="#2A618F" d="M467.242 315.621L469.618 314.965C470.159 318.295 466.281 324.511 464.569 327.766C465.653 330.244 469.166 339.858 470.579 340.545C470.821 337.547 470.381 338.597 472.991 336.327C477.125 336.904 477.615 340.509 479.573 338.383C483.342 334.29 489.377 328.642 491.835 323.871L493.126 323.331L493.462 324.55C492.665 325.632 487.945 331.924 487.63 332.672C482.555 337.466 477.569 342.353 472.675 347.332L471.059 348.497L470.54 347.783C468.364 340.453 465.877 334.117 463.123 326.99L462.784 326.3C464.98 323.628 465.094 322.857 465.628 319.42L467.242 315.621Z"/><defs><linearGradient id="gradient_1" gradientUnits="userSpaceOnUse" x1="454.37421" y1="415.34323" x2="372.01553" y2="346.07916"><stop offset="0" stop-color="#2299A8"/><stop offset="1" stop-color="#9551AD"/></linearGradient></defs><path fill="url(#gradient_1)" d="M412.555 286.279C429.316 307.74 440.013 327.422 448.152 353.49C447.406 356.668 445.721 362.301 446.415 365.21L447.74 366.198L450.638 365.103C460.941 405.516 442.785 449.433 402.865 465.346L402.601 464.208C411.95 432.623 412.489 403.948 406.095 372.003C406.177 370.886 405.626 369.176 405.328 368.03L405.517 365.628C416.337 347.573 413.836 306.463 412.555 286.279Z"/><path fill="#4B498E" d="M470.54 347.783L471.059 348.497C480.197 386.574 480.853 425.293 459.654 459.801C452.309 471.7 442.7 482.041 431.372 490.239C427.566 492.402 423.782 494.602 420.02 496.839C422.399 497.352 426.43 495.451 429.142 494.516C424.099 498.288 403.476 505.941 398.481 505.413C393.336 505.719 389.624 507.21 385.114 507.688C385.471 506.062 388.239 500.877 389.146 499.151C394.995 488.01 399.268 477.385 402.865 465.346C442.785 449.433 460.941 405.516 450.638 365.103C453.032 361.749 468.871 353.325 470.54 347.783Z"/><path fill="#3FB4CE" d="M472.675 347.332C474.977 348.768 475.713 351.991 476.336 354.519C487.857 401.236 476.222 463.417 431.859 490.495L431.372 490.239C442.7 482.041 452.309 471.7 459.654 459.801C480.853 425.293 480.197 386.574 471.059 348.497L472.675 347.332Z"/><path fill="#2A618F" d="M398.481 505.413C403.683 507.355 402.893 507.265 408.293 506.345L405.139 505.948C418.072 503.72 435.088 499.767 447.508 495.232C454.243 492.773 471.398 481.572 474.615 482.03C455.982 501.97 408.801 507.298 383.393 510.525C375.339 521.898 361.358 540.96 348.985 548.288L348.374 547.609L348.506 546.569C357.188 541.276 374.046 521.395 379.673 512.099C372.893 512.175 359.141 511.686 352.771 509.684L354.349 508.997C359.93 509.893 375.683 511.362 380.895 509.651C379.439 508.313 374.025 508.176 371.738 507.958C374.265 507.875 383.099 507.424 385.114 507.688C389.624 507.21 393.336 505.719 398.481 505.413Z"/><path fill="#6B73AB" d="M493.462 324.55C502.011 314.999 506.143 301.088 512.602 293.182C517.871 306.564 525.364 324.047 527.494 338.178L526.959 339.352L526.315 339.299C525.716 331.269 519.778 319.071 518.505 310.251C517.774 309.478 517.153 308.822 516.641 308.282C515.2 307.784 509.079 305.488 508.024 306.189C502.533 309.83 493.751 331.638 487.63 332.672C487.945 331.924 492.665 325.632 493.462 324.55Z"/><path fill="#97134E" d="M166.042 75.0803C168.972 74.0789 169.818 74.1375 172.947 74.1244L173.331 74.7982C169.262 82.1159 153.313 110.579 154.638 118.443L154.271 118.882C147.318 140.218 149.452 145.143 146.322 164.142C146.589 179.885 147.184 197.543 151.329 212.841C148.135 227.949 143.171 239.21 141.152 255.843C139.401 269.272 139.019 280.52 138.966 294.093L141.132 296.862C139.421 302.177 143.401 318.996 144.596 324.788C149.928 345.511 155.111 357.894 166.05 376.215C169.091 390.153 194.984 412.366 208.564 416.226L207.829 416.881C202.898 415.273 197.503 412.913 192.645 411.918L191.945 412.674C144.988 398.506 104.751 368.22 72.3351 332.2C72.262 331.291 70.816 329.092 70.2637 328.147C70.4231 321.489 73.0427 302.764 76.6187 297.585C76.557 292.295 81.3551 289.223 78.4019 284.104C77.1776 283.39 56.6388 279.746 54.7002 279.955C51.6052 281.762 48.6072 289.424 46.8701 293.024L45.382 293.478L45.8064 292.243C44.1217 285.185 35.8944 271.011 32.6365 257.627C30.1481 250.076 28.448 242.289 27.5634 234.388C20.3926 201.249 32.4501 152.021 56.6102 127.759C57.2223 126.483 57.4006 126.387 58.255 125.336C80.9082 97.462 130.518 77.2022 166.042 75.0803Z"/><path fill="#7F2C85" d="M105.818 222.095L108.282 221.073L109.398 222.143C109.432 225.551 108.867 226.964 107.883 230.146C115.037 257.423 122.559 271.003 138.966 294.093L141.132 296.862C139.421 302.177 143.401 318.996 144.596 324.788C149.928 345.511 155.111 357.894 166.05 376.215C169.091 390.153 194.984 412.366 208.564 416.226L207.829 416.881C202.898 415.273 197.503 412.913 192.645 411.918L191.945 412.674C144.988 398.506 104.751 368.22 72.3351 332.2C72.262 331.291 70.816 329.092 70.2637 328.147C70.4231 321.489 73.0427 302.764 76.6187 297.585C82.1194 285.236 85.7659 275.019 91.848 262.451L92.1791 260.255C89.3747 258.104 84.7481 245.069 83.1996 241.024L83.4594 240.363L85.8832 238.514L85.6518 237.86C92.2194 232.41 98.9443 227.153 105.818 222.095Z"/><path fill="#7B1765" d="M105.818 222.095L108.282 221.073L109.398 222.143C109.432 225.551 108.867 226.964 107.883 230.146C115.037 257.423 122.559 271.003 138.966 294.093L141.132 296.862C139.421 302.177 143.401 318.996 144.596 324.788L143.325 325.995C142.034 325.136 141.249 324.802 139.711 324.585C123.055 312.611 102.842 277.903 93.7478 259.841L92.1791 260.255C89.3747 258.104 84.7481 245.069 83.1996 241.024L83.4594 240.363L85.8832 238.514L85.6518 237.86C92.2194 232.41 98.9443 227.153 105.818 222.095Z"/><path fill="#7F2C85" d="M105.818 222.095L108.282 221.073L109.398 222.143C109.432 225.551 108.867 226.964 107.883 230.146C104.967 238.009 97.9852 251.595 93.3965 258.887L93.7478 259.841L92.1791 260.255C89.3747 258.104 84.7481 245.069 83.1996 241.024L83.4594 240.363L85.8832 238.514L85.6518 237.86C92.2194 232.41 98.9443 227.153 105.818 222.095Z"/><path fill="#8396D6" d="M83.4594 240.363L85.8832 238.514C88.5185 245.256 91.0234 252.048 93.3965 258.887L93.7478 259.841L92.1791 260.255C89.3747 258.104 84.7481 245.069 83.1996 241.024L83.4594 240.363Z"/><path fill="#B640A8" d="M92.1791 260.255L93.7478 259.841C102.842 277.903 123.055 312.611 139.711 324.585L137.479 325.048C120.276 314.826 100.674 279.759 91.848 262.451L92.1791 260.255Z"/><defs><linearGradient id="gradient_2" gradientUnits="userSpaceOnUse" x1="74.187027" y1="138.23944" x2="36.43549" y2="283.23566"><stop offset="0" stop-color="#C93267"/><stop offset="1" stop-color="#761C83"/></linearGradient></defs><path fill="url(#gradient_2)" d="M27.5634 234.388C20.3926 201.249 32.4501 152.021 56.6102 127.759C52.5076 140.316 61.6309 140.423 71.1934 144.423C73.9271 145.567 77.7097 147.213 80.4067 148.021C80.9369 148.179 81.4698 148.329 82.005 148.469L83.8633 142.621L84.3066 142.699C81.9638 157.42 77.4277 163.201 76.7322 180.799C76.9645 188.677 79.4372 190.435 79.3495 198.227C80.0541 210.833 82.2085 225.706 85.6518 237.86L85.8832 238.514L83.4594 240.363L83.1996 241.024C84.7481 245.069 89.3747 258.104 92.1791 260.255L91.848 262.451C85.7659 275.019 82.1194 285.236 76.6187 297.585C76.557 292.295 81.3551 289.223 78.4019 284.104C77.1776 283.39 56.6388 279.746 54.7002 279.955C51.6052 281.762 48.6072 289.424 46.8701 293.024L45.382 293.478L45.8064 292.243C44.1217 285.185 35.8944 271.011 32.6365 257.627C30.1481 250.076 28.448 242.289 27.5634 234.388Z"/><path fill="#6B73AB" d="M83.1996 241.024C84.7481 245.069 89.3747 258.104 92.1791 260.255L91.848 262.451C85.7659 275.019 82.1194 285.236 76.6187 297.585C76.557 292.295 81.3551 289.223 78.4019 284.104C77.1776 283.39 56.6388 279.746 54.7002 279.955C51.6052 281.762 48.6072 289.424 46.8701 293.024L45.382 293.478L45.8064 292.243C53.609 274.445 69.3516 254.563 83.1996 241.024Z"/><path fill="#D53CA8" d="M83.4594 240.363C77.3735 221.133 75.0887 200.902 76.7322 180.799C76.9645 188.677 79.4372 190.435 79.3495 198.227C80.0541 210.833 82.2085 225.706 85.6518 237.86L85.8832 238.514L83.4594 240.363Z"/><path fill="#A22B7E" d="M27.5634 234.388L28.4843 232.858C30.5072 237.052 34.9394 253.795 32.6365 257.627C30.1481 250.076 28.448 242.289 27.5634 234.388Z"/><defs><linearGradient id="gradient_3" gradientUnits="userSpaceOnUse" x1="111.66151" y1="177.88483" x2="163.58328" y2="267.46622"><stop offset="0" stop-color="#8D1B5C"/><stop offset="1" stop-color="#D83D71"/></linearGradient></defs><path fill="url(#gradient_3)" d="M106.499 166.058C116.434 144.302 132.219 128.33 154.271 118.882C147.318 140.218 149.452 145.143 146.322 164.142C146.589 179.885 147.184 197.543 151.329 212.841C148.135 227.949 143.171 239.21 141.152 255.843C139.401 269.272 139.019 280.52 138.966 294.093C122.559 271.003 115.037 257.423 107.883 230.146C108.867 226.964 109.432 225.551 109.398 222.143L108.282 221.073L105.818 222.095C100.112 203.644 98.1438 183.863 106.499 166.058Z"/><path fill="#7B1765" d="M106.499 166.058C116.434 144.302 132.219 128.33 154.271 118.882C147.318 140.218 149.452 145.143 146.322 164.142C146.214 162.723 146.057 158.231 145.449 157.276L145.22 163.274C134.581 168.354 111.732 177.333 102.812 183.652C104.276 178.411 106.603 171.352 106.499 166.058Z"/><path fill="#BC2E61" d="M56.6102 127.759C57.2223 126.483 57.4006 126.387 58.255 125.336C80.9082 97.462 130.518 77.2022 166.042 75.0803L165.96 75.914C147.011 82.1287 133.552 87.8517 118.367 101.122C89.9384 125.965 78.6345 161.244 79.3495 198.227C79.4372 190.435 76.9645 188.677 76.7322 180.799C77.4277 163.201 81.9638 157.42 84.3066 142.699L83.8633 142.621L82.005 148.469C81.4698 148.329 80.9369 148.179 80.4067 148.021C77.7097 147.213 73.9271 145.567 71.1934 144.423C61.6309 140.423 52.5076 140.316 56.6102 127.759Z"/><defs><linearGradient id="gradient_4" gradientUnits="userSpaceOnUse" x1="266.49847" y1="404.53769" x2="309.18942" y2="477.66113"><stop offset="0" stop-color="#414388"/><stop offset="1" stop-color="#1C7E98"/></linearGradient></defs><path fill="url(#gradient_4)" d="M401.786 370.784L405.328 368.03C405.626 369.176 406.177 370.886 406.095 372.003C401.307 380.546 397.457 389.582 392.808 398.145C384.837 412.824 373.753 427.338 362.286 439.455C356.799 445.314 350.943 450.817 344.754 455.931C341.744 458.411 326.896 469.06 326.463 471.111C328.233 472.272 329.001 472.383 331.023 472.921C327.398 472.764 324.016 472.76 320.395 473.203C312.616 477.022 304.35 482.456 296.641 486.806L295.396 486.72C293.217 487.944 290.173 489.774 288.01 490.836C258.994 502.915 224.725 513.949 192.872 513.111C190.262 512.659 175.777 511.947 175.259 511.737C168.801 509.132 147.287 476.051 148.642 471.503C158.89 472.39 173.206 472.334 183.363 471.278C224.687 467.109 260.763 451.121 293.379 425.906C309.251 412.552 318.21 403.082 330.53 386.603L332.75 384.475C350.977 387.03 369.555 384.783 386.646 377.955C391.808 375.848 396.554 373.067 401.786 370.784Z"/><path fill="#2F185E" d="M332.75 384.475C350.977 387.03 369.555 384.783 386.646 377.955C391.808 375.848 396.554 373.067 401.786 370.784C376.798 397.261 357.206 410.095 321.445 420.875C315.414 422.693 302.193 425.803 296.111 425.978C295.2 425.999 294.288 425.975 293.379 425.906C309.251 412.552 318.21 403.082 330.53 386.603L332.75 384.475Z"/><path fill="#2A618F" d="M295.396 486.72C288.44 482.942 250.835 465.792 268.241 455.869C277.682 458.08 289.628 463.62 299.353 466.669C302.513 467.661 318.912 472.394 320.395 473.203C312.616 477.022 304.35 482.456 296.641 486.806L295.396 486.72Z"/><path fill="#4C2A82" d="M183.57 337.021C183.627 335.744 184.651 331.171 184.809 329.148C185.26 323.378 184.411 300.105 187.911 296.418L189.838 297.186C190.961 299.998 192.408 301.007 194.643 302.983C197.837 307.985 200.234 311.059 203.903 315.627C211.123 322.385 217.486 329.402 225.059 335.951C245.437 353.576 263.954 361.728 287.744 372.515L296.282 375.151C293.889 376.901 287.977 380.995 286.297 382.984C266.521 394.943 234.007 414.12 211.293 418.982C196.822 423.565 185.23 425.35 170.231 428.051C155.566 428.946 135.515 429.783 121.214 426.052C124.738 424.892 147.876 427.492 153.201 427.376C157.674 427.278 162.768 426.685 167.264 426.27C160.279 425.296 152.596 423.781 145.455 422.675L144.513 421.264C149.005 421.458 154.729 422.36 159.562 422.707C177.804 424.018 190.036 422.418 207.703 418.714C202.83 416.999 196.439 414.958 191.945 412.674L192.645 411.918C197.503 412.913 202.898 415.273 207.829 416.881L208.564 416.226C194.984 412.366 169.091 390.153 166.05 376.215C155.111 357.894 149.928 345.511 144.596 324.788C143.401 318.996 139.421 302.177 141.132 296.862C152.658 310.733 164.731 322.765 179.048 333.751C180.074 334.538 182.25 336.088 183.096 336.945L183.57 337.021Z"/><path fill="#7F2C85" d="M183.57 337.021C183.627 335.744 184.651 331.171 184.809 329.148C185.26 323.378 184.411 300.105 187.911 296.418L189.838 297.186C190.961 299.998 192.408 301.007 194.643 302.983C197.837 307.985 200.234 311.059 203.903 315.627C211.123 322.385 217.486 329.402 225.059 335.951C245.437 353.576 263.954 361.728 287.744 372.515C288.24 372.899 288.729 373.293 289.21 373.696C291.257 375.428 290.838 374.857 291.036 377.392C281.241 385.176 218.706 361.367 209.02 353.252C201.325 349.606 190.206 342.255 183.57 337.021Z"/><path fill="#B640A8" d="M183.57 337.021C183.627 335.744 184.651 331.171 184.809 329.148C185.26 323.378 184.411 300.105 187.911 296.418L189.838 297.186C190.961 299.998 192.408 301.007 194.643 302.983C197.837 307.985 200.234 311.059 203.903 315.627C200.681 315.154 198.715 312.096 196.67 309.691C194.082 319.452 194.738 330.678 194.696 340.893C199.462 344.079 203.75 347.719 208.613 351.096L209.02 353.252C201.325 349.606 190.206 342.255 183.57 337.021Z"/><path fill="#2F185E" d="M144.596 324.788C143.401 318.996 139.421 302.177 141.132 296.862C152.658 310.733 164.731 322.765 179.048 333.751C180.074 334.538 182.25 336.088 183.096 336.945C184.081 368.634 186.351 384.631 201.871 412.16C186.05 403.047 176.725 390.336 166.05 376.215C155.111 357.894 149.928 345.511 144.596 324.788Z"/><path fill="#3091AC" d="M286.297 382.984C290.398 382.524 296.878 376.605 297.238 376.676C306.309 378.457 316.666 384.038 326.112 384.601C329.15 384.586 328.056 384.224 330.53 386.603C318.21 403.082 309.251 412.552 293.379 425.906C260.763 451.121 224.687 467.109 183.363 471.278C176.683 468.52 162.247 472.095 155.983 469.847L157.585 469.347C153.996 466.049 145.427 466.951 140.852 467.372C143.819 468.059 150.474 468.7 153.753 469.11C142.451 469.591 125.804 467.579 115.67 462.448C120.563 457.939 115.742 428.577 130.387 428.664C138.856 428.714 163.792 433.72 170.231 428.051C185.23 425.35 196.822 423.565 211.293 418.982C234.007 414.12 266.521 394.943 286.297 382.984Z"/><path fill="#4187B9" d="M286.297 382.984C290.398 382.524 296.878 376.605 297.238 376.676C306.309 378.457 316.666 384.038 326.112 384.601L326.721 385.649C313.588 399.552 303.988 416.827 285.719 427.223C279.657 426.138 265.142 427.035 258.13 426.535C244.398 425.556 224.372 422.745 211.293 418.982C234.007 414.12 266.521 394.943 286.297 382.984Z"/><path fill="#3FB4CE" d="M326.112 384.601C329.15 384.586 328.056 384.224 330.53 386.603C318.21 403.082 309.251 412.552 293.379 425.906C260.763 451.121 224.687 467.109 183.363 471.278C176.683 468.52 162.247 472.095 155.983 469.847L157.585 469.347C196.149 474.696 250.503 449.774 281.661 428.936C275.127 429.004 268.332 428.786 261.779 428.67C268.459 427.559 278.246 427.985 285.719 427.223C303.988 416.827 313.588 399.552 326.721 385.649L326.112 384.601Z"/><path fill="#4B498E" d="M31.8951 414.338C33.7848 408.743 28.4003 395.527 27.8572 388.608C27.3377 381.988 27.5625 376.259 27.7811 369.689C27.8763 372.873 27.7631 375.16 28.9384 378.167C28.8623 375.873 28.3092 368.993 29.1073 367.432C30.8753 372.63 30.7304 378.062 31.8595 383.024C34.6271 395.188 50.819 429.397 62.5153 433.334L62.9215 433.588C66.1602 435.642 69.2445 438.77 72.2468 441.238C87.7074 453.951 104.783 460.016 123.101 466.697C131.983 468.607 140.081 469.771 148.642 471.503C147.287 476.051 168.801 509.132 175.259 511.737C175.777 511.947 190.262 512.659 192.872 513.111C188.489 513.434 176.547 513.555 173.247 514.136C153.51 512.215 128.807 507.673 111.044 498.647C107.266 497.686 98.9857 493.303 95.4371 491.291C66.9153 475.119 40.6894 446.402 31.8951 414.338Z"/><path fill="#2A618F" d="M123.101 466.697C131.983 468.607 140.081 469.771 148.642 471.503C147.287 476.051 168.801 509.132 175.259 511.737C175.777 511.947 190.262 512.659 192.872 513.111C188.489 513.434 176.547 513.555 173.247 514.136C153.51 512.215 128.807 507.673 111.044 498.647C116.723 498.075 117.435 500.959 122.949 502.047L122.485 498.875C127.424 491.802 140.713 480.325 148.628 477.204C146.759 468.578 130.389 472.536 123.101 466.697Z"/><defs><linearGradient id="gradient_5" gradientUnits="userSpaceOnUse" x1="31.147877" y1="398.43414" x2="124.52956" y2="399.11212"><stop offset="0" stop-color="#9C27A1"/><stop offset="1" stop-color="#6A70AF"/></linearGradient></defs><path fill="url(#gradient_5)" d="M62.5153 433.334C61.1288 431.095 56.7709 426.087 54.685 423.796C36.2432 403.537 22.5038 359.194 33.6729 333.123C34.1814 334.102 34.2549 334.205 34.9496 335.065L35.298 330.34C35.8984 332.316 35.6168 340.46 35.6508 343.067C36.2572 389.479 78.2848 419.415 121.214 426.052C135.515 429.783 155.566 428.946 170.231 428.051C163.792 433.72 138.856 428.714 130.387 428.664C115.742 428.577 120.563 457.939 115.67 462.448C125.804 467.579 142.451 469.591 153.753 469.11C150.474 468.7 143.819 468.059 140.852 467.372C145.427 466.951 153.996 466.049 157.585 469.347L155.983 469.847C162.247 472.095 176.683 468.52 183.363 471.278C173.206 472.334 158.89 472.39 148.642 471.503C140.081 469.771 131.983 468.607 123.101 466.697C104.783 460.016 87.7074 453.951 72.2468 441.238C69.2445 438.77 66.1602 435.642 62.9215 433.588L62.5153 433.334Z"/><path fill="#A976D5" d="M1322.27 185.338C1341.85 185.262 1362.44 184.885 1381.92 185.478C1413.83 183.664 1448.23 183.337 1473.56 205.561C1501.9 230.428 1503.74 281.048 1478.82 308.58C1475.47 312.347 1471.63 315.637 1467.39 318.356C1461.56 323.134 1454.56 326.228 1447.72 329.343C1463.71 352.863 1484.94 380.898 1499.3 404.406C1490.06 404.461 1479.97 404.721 1470.8 404.456C1460.57 389.077 1450.19 373.8 1439.66 358.626C1435.24 352.175 1428.09 340.867 1423.44 335.005C1400.89 336.499 1377.42 335.969 1354.78 335.853C1352.26 335.818 1350.92 335.645 1348.59 336.575C1347.89 343.299 1348.21 354.097 1348.21 361.081L1348.22 404.442L1322.88 404.44C1322.44 344.664 1322.43 284.886 1322.83 225.11C1321.95 215.649 1322.36 195.576 1322.27 185.338ZM1348.31 207.772C1348.28 223.154 1348.8 242.409 1348.15 257.456C1348.38 275.99 1347.99 294.934 1348.4 313.317C1355.62 313.331 1370.52 312.897 1377.12 313.48C1385.55 313.01 1396.21 313.515 1405.17 313.365C1421.08 313.099 1436.61 310.863 1450.39 302.035C1452.9 300.422 1460.14 292.775 1462.45 290.412C1473.42 269.558 1473.28 247.644 1460.6 227.679C1460.25 227.284 1459.9 226.895 1459.55 226.51C1439.14 204.48 1415.52 208.456 1389.01 207.426C1375.32 207.81 1361.9 207.538 1348.31 207.772Z"/><path fill="#DC4ECB" d="M1322.27 185.338C1341.85 185.262 1362.44 184.885 1381.92 185.478C1374.14 189.236 1359.16 183.447 1355.52 188.145C1356.56 194.989 1366.15 196.923 1359.88 205.365C1359.57 205.78 1359.25 206.188 1358.92 206.59C1364.77 206.556 1384.62 206.016 1389.01 207.426C1375.32 207.81 1361.9 207.538 1348.31 207.772C1348.28 223.154 1348.8 242.409 1348.15 257.456C1348.38 275.99 1347.99 294.934 1348.4 313.317C1355.62 313.331 1370.52 312.897 1377.12 313.48C1383.98 314.064 1390.86 314.501 1397.74 314.791C1388.63 315.757 1357.36 314.257 1351.18 315.992C1365.68 316.506 1379.97 316.513 1394.43 316.943C1400.87 317.135 1403.99 318.685 1411.4 318.923L1411.07 319.469L1372.83 319.514C1375.1 321.103 1376.66 321.877 1377.36 324.564C1375.96 332.044 1366.96 332.532 1360.31 334.129C1374 334.839 1390.91 334.465 1404.85 334.489C1394.28 335.775 1361.81 334.206 1354.78 335.853C1352.26 335.818 1350.92 335.645 1348.59 336.575C1347.89 343.299 1348.21 354.097 1348.21 361.081L1348.22 404.442L1322.88 404.44C1322.44 344.664 1322.43 284.886 1322.83 225.11C1321.95 215.649 1322.36 195.576 1322.27 185.338Z"/><path fill="#A976D5" d="M1322.27 185.338C1341.85 185.262 1362.44 184.885 1381.92 185.478C1374.14 189.236 1359.16 183.447 1355.52 188.145C1356.56 194.989 1366.15 196.923 1359.88 205.365C1359.57 205.78 1359.25 206.188 1358.92 206.59C1364.77 206.556 1384.62 206.016 1389.01 207.426C1375.32 207.81 1361.9 207.538 1348.31 207.772C1348.28 223.154 1348.8 242.409 1348.15 257.456C1345.26 239.519 1345.99 230.991 1347.1 212.679C1348.31 192.793 1342.03 197.925 1331.53 186.598C1328.51 186.348 1327.86 186.246 1325.03 187.231C1321.13 193.883 1326.65 215.438 1322.83 225.11C1321.95 215.649 1322.36 195.576 1322.27 185.338Z"/><path fill="#8396D6" d="M1381.92 185.478C1413.83 183.664 1448.23 183.337 1473.56 205.561C1501.9 230.428 1503.74 281.048 1478.82 308.58C1475.47 312.347 1471.63 315.637 1467.39 318.356C1469.13 314.29 1477.82 308.163 1482.52 301.077C1492.83 285.543 1496.82 264.667 1493.41 246.498L1492.82 246.136C1492.12 249.959 1492.63 259.395 1492.78 263.801C1493.27 277.61 1485.72 293.635 1477.66 304.816L1476.52 304.999C1475.89 298.946 1495.38 277.727 1490.35 255.826C1484.52 250.668 1478.86 244.813 1474.71 238.213C1472.72 235.056 1473.28 233.022 1470.19 231.174L1465.9 227.338C1462.66 226.571 1463.91 226.591 1460.6 227.679C1460.25 227.284 1459.9 226.895 1459.55 226.51C1439.14 204.48 1415.52 208.456 1389.01 207.426C1384.62 206.016 1364.77 206.556 1358.92 206.59C1359.25 206.188 1359.57 205.78 1359.88 205.365C1366.15 196.923 1356.56 194.989 1355.52 188.145C1359.16 183.447 1374.14 189.236 1381.92 185.478Z"/><path fill="#85A8D6" d="M1460.6 227.679C1463.91 226.591 1462.66 226.571 1465.9 227.338L1470.19 231.174C1471.58 235.607 1474.39 245.035 1473.45 249.483L1472.54 249.641L1470.87 243.979C1468.65 248.291 1476.57 272.802 1463.61 290.779L1462.45 290.412C1473.42 269.558 1473.28 247.644 1460.6 227.679Z"/><path fill="#7F2C85" d="M384.648 70.2891C418.872 73.7601 446.542 81.2442 475.298 101.342C480.366 104.883 489.843 112.644 493.62 117.293L493.877 117.615C516.759 139.809 534.434 185.117 530.939 216.927C530.356 239.585 526.017 265.722 515.697 286.111L514.522 284.518L511.795 290.458C510.717 289.894 506.645 282.333 505.646 280.68C499.548 270.601 492.703 260.994 485.167 251.94L484.676 250.235C485.028 247.627 484.785 243.048 484.723 240.275L484.597 239.028C479.992 194.318 453.8 170.869 411.1 162.469C392.391 158.788 378.458 160.156 359.587 162.151C356.702 162.878 353.998 163.305 351.718 165.222C351.24 165.352 331.927 160.817 330.153 160.446C320.628 158.45 309.156 156.521 299.889 156.423C293.497 156.356 273.392 158.015 269.685 156.419C279.961 148.912 290.634 141.964 301.659 135.605L302.25 135.658C304.599 134.846 308.473 133.067 310.887 132.048L310.919 131.617L309.338 129.206C295.136 114.767 285.816 107.042 268.164 96.4356C269.899 94.8112 279.875 90.2834 282.524 89.1463C317.668 74.0589 347.51 71.8193 384.648 70.2891Z"/><defs><linearGradient id="gradient_6" gradientUnits="userSpaceOnUse" x1="309.0545" y1="47.764755" x2="461.75912" y2="171.20312"><stop offset="0" stop-color="#EA3F62"/><stop offset="1" stop-color="#952270"/></linearGradient></defs><path fill="url(#gradient_6)" d="M384.648 70.2891C418.872 73.7601 446.542 81.2442 475.298 101.342C480.366 104.883 489.843 112.644 493.62 117.293L493.877 117.615C496.362 122.006 496.314 121.603 495.722 125.709C494.975 130.885 485.764 137.51 488.303 140.998C490.489 144.002 494.35 145.486 495.701 150.269C493.274 149.285 492.789 149.101 490.917 147.302C476.132 136.29 469.512 130.581 451.305 123.671C405.307 106.214 355.077 112.214 310.919 131.617L309.338 129.206C295.136 114.767 285.816 107.042 268.164 96.4356C269.899 94.8112 279.875 90.2834 282.524 89.1463C317.668 74.0589 347.51 71.8193 384.648 70.2891Z"/><path fill="#D53CA8" d="M309.338 129.206C312.204 126.891 314.986 125.755 318.395 124.416C369.974 104.15 435.711 102.689 481.172 138.223C483.426 139.985 488.315 143.878 489.966 145.979C490.301 146.407 490.618 146.848 490.917 147.302C476.132 136.29 469.512 130.581 451.305 123.671C405.307 106.214 355.077 112.214 310.919 131.617L309.338 129.206Z"/><path fill="#2F185E" d="M359.587 162.151C363.017 157.678 378.239 156.559 384.17 155.752C439.584 148.213 504.852 164.794 520.879 225.5C524.072 237.147 523.65 246.27 522.562 258.094C520.056 266.788 517.386 275.957 514.522 284.518L511.795 290.458C510.717 289.894 506.645 282.333 505.646 280.68C499.548 270.601 492.703 260.994 485.167 251.94L484.676 250.235C485.028 247.627 484.785 243.048 484.723 240.275L484.597 239.028C479.992 194.318 453.8 170.869 411.1 162.469C392.391 158.788 378.458 160.156 359.587 162.151Z"/><path fill="#4C2A82" d="M520.879 225.5C524.072 237.147 523.65 246.27 522.562 258.094C520.056 266.788 517.386 275.957 514.522 284.518L511.795 290.458C510.717 289.894 506.645 282.333 505.646 280.68C499.548 270.601 492.703 260.994 485.167 251.94L484.676 250.235C485.028 247.627 484.785 243.048 484.723 240.275L485.518 235.459C486.882 241.809 485.343 243.8 486.095 249.781C487.04 248.979 488.219 247.978 489.632 246.778C498.251 245.644 512.729 247.636 520.293 243.465C522.277 242.371 520.579 230.288 520.879 225.5Z"/><path fill="#7B1765" d="M493.877 117.615C516.759 139.809 534.434 185.117 530.939 216.927L530.032 214.773L528.395 216.479L527.466 216.31C526.654 211.432 526.114 207.682 524.499 202.945C520.996 186.157 509.025 161.289 495.701 150.269C494.35 145.486 490.489 144.002 488.303 140.998C485.764 137.51 494.975 130.885 495.722 125.709C496.314 121.603 496.362 122.006 493.877 117.615Z"/><path fill="#B640A8" d="M302.25 135.658C304.599 134.846 308.473 133.067 310.887 132.048L314.527 142.364L302.25 135.658Z"/><defs><linearGradient id="gradient_7" gradientUnits="userSpaceOnUse" x1="1565.5494" y1="381.66318" x2="1776.934" y2="191.86322"><stop offset="0" stop-color="#6EA7D5"/><stop offset="1" stop-color="#17EDDF"/></linearGradient></defs><path fill="url(#gradient_7)" d="M1545.46 185.302C1553.13 185.289 1561.01 185.176 1568.65 185.271L1660.35 347.651C1691.1 295.539 1721.99 238.342 1752.03 185.367C1759.65 185.362 1767.47 185.266 1775.08 185.377C1775.6 258.483 1775.7 331.592 1775.37 404.699C1767.33 404.677 1758.14 404.438 1750.19 404.724C1750.18 348.14 1751.1 288.669 1750.02 232.308C1725.22 274.67 1702.2 318.352 1677.77 360.95C1674.23 367.121 1670.66 373.478 1667.29 379.74L1653.02 379.793L1598.45 282.587C1589.96 267.444 1579.56 248.041 1570.43 233.448C1570.8 267.97 1570.89 302.494 1570.7 337.017L1570.61 404.793C1562.21 404.573 1553.8 404.575 1545.41 404.798C1545.19 362.542 1545.21 320.285 1545.46 278.029C1545.36 247.733 1545.01 215.445 1545.46 185.302Z"/><path fill="#8396D6" d="M1545.46 278.029L1545.53 277.762C1549.57 262.812 1544.56 192.856 1548.19 187.482C1549.84 189.195 1547.58 210.041 1548.39 215.218C1549.03 219.34 1549.19 231.087 1549.14 235.497C1548.73 268 1550.46 299.758 1552.74 332.224C1553.03 336.393 1551.51 354.693 1552.24 359.874C1557.59 364.173 1563.63 374.491 1567.58 383.386C1570.71 376.417 1567.51 333.953 1569.39 332.729L1570.7 337.017L1570.61 404.793C1562.21 404.573 1553.8 404.575 1545.41 404.798C1545.19 362.542 1545.21 320.285 1545.46 278.029Z"/><path fill="#4B498E" d="M706.55 180.71C710.157 180.141 719.681 180.356 723.526 180.576C750.375 182.115 766.341 187.743 788.675 201.682C784.883 211.789 779.542 223.006 775.041 232.926C755.71 220.119 736.904 213.064 713.404 212.941C693.88 212.839 663.599 219.811 663.941 244.428C664.257 267.098 694.176 271.643 711.17 275.981C748.937 284.822 796.744 292.667 796.52 342.1C796.352 379.232 770.398 400.165 735.623 406.194C722.169 408.527 710.256 408.096 696.67 407.978C669.823 407.947 640.567 397.91 620.554 379.632C623.63 370.339 630.302 357.249 634.911 348.573C660.666 369.17 685.979 377.07 719.198 374.816C738.843 373.483 759.851 364.574 757.593 341.415C755.716 322.164 731.946 317.715 716.75 313.376C691.384 307.344 663.891 303.097 642.968 286.305C620.476 268.253 620.288 229.82 638.781 208.879C656.578 188.727 680.908 182.565 706.55 180.71Z"/><path fill="#2F185E" d="M713.77 184.228C742.425 184.727 758.748 188.168 783.125 203.211C780.002 210.999 776.838 219.351 772.984 226.752C757.9 215.164 738.475 211.001 720.657 209.043C699.441 206.711 658.95 215.341 659.432 242.08C660.318 291.236 755.494 274.381 780.555 308.693C789.733 321.259 793.098 330.938 792.076 346.654C787.468 398.964 733.374 406.625 692.724 403.826C670.558 403.067 642.444 393.23 625.531 378.545C629.107 370.325 632.227 363.242 636.389 355.323C657.779 372.635 685.222 380.693 712.653 379.717C735.226 378.914 763.893 370.928 762.431 342.968C761.029 318.425 732.841 313.043 713.747 308.216C689.96 302.202 663.871 298.637 644.678 281.996C623.996 264.064 625.686 227.997 644.093 208.959C663.005 189.398 687.895 185.248 713.77 184.228Z"/><path fill="#A22B7E" d="M265.792 95.6038L268.164 96.4356C285.816 107.042 295.136 114.767 309.338 129.206L310.919 131.617L310.887 132.048C308.473 133.067 304.599 134.846 302.25 135.658L301.659 135.605L298.644 133.787C285.439 142.041 274.553 148.699 262.842 158.971L262.141 159.443C247.02 172.818 238.493 182.583 226.085 198.845C224.25 201.41 222.115 203.885 221.606 206.96C223.875 206.383 224.548 204.952 226.331 202.993C227.686 202.551 228.267 202.256 229.186 201.155C234.217 202.294 257.16 206.899 259.477 209.626L259.714 210.269C232.555 231.078 201.988 268.905 194.643 302.983C192.408 301.007 190.961 299.998 189.838 297.186L187.911 296.418C184.411 300.105 185.26 323.378 184.809 329.148C184.651 331.171 183.627 335.744 183.57 337.021L183.096 336.945C182.25 336.088 180.074 334.538 179.048 333.751C164.731 322.765 152.658 310.733 141.132 296.862L138.966 294.093C139.019 280.52 139.401 269.272 141.152 255.843C143.171 239.21 148.135 227.949 151.329 212.841C153.926 208.883 159.516 196.482 162.388 191.371C172.744 172.938 189.444 150.103 206.051 137.054C213.554 128.271 228.681 119.638 237.356 111.492L238.981 111.552C247.595 105.857 256.781 100.632 265.792 95.6038Z"/><path fill="#AE2A96" d="M150.743 222.569C157.469 245.929 169.11 271.922 185.597 290.551C185.716 290.684 186.741 291.047 186.952 291.118C188.316 287.658 188.685 286.347 189.431 282.718C189.41 283.353 189.535 298.806 189.838 297.186L187.911 296.418C184.411 300.105 185.26 323.378 184.809 329.148C184.651 331.171 183.627 335.744 183.57 337.021L183.096 336.945C182.25 336.088 180.074 334.538 179.048 333.751C164.731 322.765 152.658 310.733 141.132 296.862L138.966 294.093C139.019 280.52 139.401 269.272 141.152 255.843C143.046 253.692 148.611 229.005 150.743 222.569Z"/><path fill="#BC2E61" d="M265.792 95.6038L268.164 96.4356C285.816 107.042 295.136 114.767 309.338 129.206L310.919 131.617L310.887 132.048C308.473 133.067 304.599 134.846 302.25 135.658L301.659 135.605L298.644 133.787C285.439 142.041 274.553 148.699 262.842 158.971C261.371 158.688 259.858 158.345 258.388 158.031C259.224 157.886 262.342 157.356 262.813 156.916C269.67 150.531 277.652 145.972 285.138 140.302C279.579 139.839 273.634 142.292 271.165 142.249C260.983 142.068 239.877 138.44 231.697 132.298C230.121 131.114 230.225 123.444 230.099 121.065L228.809 120.587C224.71 122.275 211.697 133.992 207.619 137.443L206.051 137.054C213.554 128.271 228.681 119.638 237.356 111.492L238.981 111.552C247.595 105.857 256.781 100.632 265.792 95.6038Z"/><path fill="#DC4ECB" d="M265.792 95.6038L268.164 96.4356C285.816 107.042 295.136 114.767 309.338 129.206L310.919 131.617L310.887 132.048C308.473 133.067 304.599 134.846 302.25 135.658L301.659 135.605L298.644 133.787C274.684 121.201 263.896 118.833 238.981 111.552C247.595 105.857 256.781 100.632 265.792 95.6038Z"/><path fill="#7F2C85" d="M220.761 198.272C205.309 197.515 187.449 198.092 172.615 203.047C169.389 204.124 162.894 207.546 158.779 209.193L157.611 208.608C157.962 206.097 158.698 204.858 160.666 202.954C185.868 178.572 228.058 161.337 262.141 159.443C247.02 172.818 238.493 182.583 226.085 198.845L220.761 198.272Z"/><path fill="#BC2E61" d="M172.947 74.1244C174.999 72.4827 181.849 63.0442 183.915 60.3652C210.96 25.2985 253.386 3.22229 298.283 11.1193C336.265 17.8 362.716 39.43 384.648 70.2891C347.51 71.8193 317.668 74.0589 282.524 89.1463C279.875 90.2834 269.899 94.8112 268.164 96.4356L265.792 95.6038C256.781 100.632 247.595 105.857 238.981 111.552L237.356 111.492C207.168 106.161 183.557 106.639 154.638 118.443C153.313 110.579 169.262 82.1159 173.331 74.7982L172.947 74.1244Z"/><path fill="#D53CA8" d="M173.331 74.7982C196.798 69.3088 244.509 83.2135 265.792 95.6038C256.781 100.632 247.595 105.857 238.981 111.552L237.356 111.492C207.168 106.161 183.557 106.639 154.638 118.443C153.313 110.579 169.262 82.1159 173.331 74.7982Z"/><path fill="#4B498E" d="M814.021 184.167C873.308 182.728 941.04 183.747 1000.63 184.12L1000.61 216.406C976.015 217.193 950.612 216.873 925.949 216.858C926.73 253.567 926.262 292.954 926.169 329.799C925.833 354.645 926.23 379.614 925.877 404.561L888.734 404.672C888.284 342.048 888.162 279.422 888.366 216.796C865.583 217.092 836.52 217.497 814.069 216.418C813.895 206.122 813.429 194.327 814.021 184.167Z"/><defs><linearGradient id="gradient_8" gradientUnits="userSpaceOnUse" x1="840.63867" y1="311.25037" x2="1006.6564" y2="209.74559"><stop offset="0" stop-color="#22104F"/><stop offset="1" stop-color="#324286"/></linearGradient></defs><path fill="url(#gradient_8)" d="M817.736 188.149L996.312 188.175L996.482 212.757C987.716 212.853 927.2 211.28 923.282 214.036C920.652 222.629 921.593 250.812 921.616 261.131L921.821 327.611L921.819 400.778C912.491 401.008 902.337 400.806 892.943 400.806L892.779 284.202C892.817 262.363 893.675 234.32 892.319 213.077C870.789 211.678 839.989 212.699 817.635 212.655L817.736 188.149Z"/><path fill="#7B1765" d="M298.644 133.787L301.659 135.605C290.634 141.964 279.961 148.912 269.685 156.419C273.392 158.015 293.497 156.356 299.889 156.423C309.156 156.521 320.628 158.45 330.153 160.446C331.927 160.817 351.24 165.352 351.718 165.222C378.452 172.158 403.821 183.564 426.753 198.956C429.257 200.65 435.975 205.073 437.796 207.133C432.436 206.415 429.281 201.869 425.99 201.097C425.224 216.038 409.439 224.767 396.242 228.145C397.988 231.612 401.17 236.745 400.343 240.515L403.41 248.332C406.628 257.463 411.572 274.834 411.204 284.431C399.718 270.207 384.656 256.391 370.011 245.464L369.525 244.511C366.157 248.628 363.504 273.326 362.638 279.839L361.963 280.192C354.426 263.019 317.163 234.886 300.484 225.365C287.426 217.87 276.191 213.419 261.981 208.745L259.714 210.269L259.477 209.626C257.16 206.899 234.217 202.294 229.186 201.155C228.267 202.256 227.686 202.551 226.331 202.993C224.548 204.952 223.875 206.383 221.606 206.96C222.115 203.885 224.25 201.41 226.085 198.845C238.493 182.583 247.02 172.818 262.141 159.443L262.842 158.971C274.553 148.699 285.439 142.041 298.644 133.787Z"/><path fill="#AE2A96" d="M298.644 133.787L301.659 135.605C290.634 141.964 279.961 148.912 269.685 156.419C273.392 158.015 293.497 156.356 299.889 156.423C309.156 156.521 320.628 158.45 330.153 160.446C331.927 160.817 351.24 165.352 351.718 165.222C378.452 172.158 403.821 183.564 426.753 198.956C429.257 200.65 435.975 205.073 437.796 207.133C432.436 206.415 429.281 201.869 425.99 201.097C425.224 216.038 409.439 224.767 396.242 228.145C397.988 231.612 401.17 236.745 400.343 240.515C385.921 209.591 370.607 184.969 340.849 166.463C314.433 176.074 282.929 189.392 261.981 208.745L259.714 210.269L259.477 209.626C257.16 206.899 234.217 202.294 229.186 201.155C228.267 202.256 227.686 202.551 226.331 202.993C224.548 204.952 223.875 206.383 221.606 206.96C222.115 203.885 224.25 201.41 226.085 198.845C238.493 182.583 247.02 172.818 262.141 159.443L262.842 158.971C274.553 148.699 285.439 142.041 298.644 133.787Z"/><path fill="#D53CA8" d="M298.644 133.787L301.659 135.605C290.634 141.964 279.961 148.912 269.685 156.419C260.202 162.893 229.117 193.771 226.331 202.993C224.548 204.952 223.875 206.383 221.606 206.96C222.115 203.885 224.25 201.41 226.085 198.845C238.493 182.583 247.02 172.818 262.141 159.443L262.842 158.971C274.553 148.699 285.439 142.041 298.644 133.787Z"/><path fill="#A22B7E" d="M300.484 225.365C293.234 215.003 269.562 212.515 266.589 207.241C268.458 204.908 267.547 205.563 270.737 204.848L271.092 205.001C272.617 205.642 296.059 210.435 295.705 210.526C303.745 208.447 371.251 240.379 368.438 241.334L368.706 233.421C369.817 236.053 369.13 241.442 369.525 244.511C366.157 248.628 363.504 273.326 362.638 279.839L361.963 280.192C354.426 263.019 317.163 234.886 300.484 225.365Z"/><defs><linearGradient id="gradient_9" gradientUnits="userSpaceOnUse" x1="1098.6862" y1="333.38293" x2="1232.7825" y2="282.79715"><stop offset="0" stop-color="#A41884"/><stop offset="1" stop-color="#E534C4"/></linearGradient></defs><path fill="url(#gradient_9)" d="M1147.12 194.899C1187.83 172.928 1249.76 178.378 1281.25 214.33C1276.26 219.919 1270.44 226.748 1265.2 231.915L1253.88 221.761C1238.46 211.484 1230.26 209.073 1212.77 205.782C1184.75 205.363 1161.7 209.133 1140.39 229.726C1106.42 262.54 1105.51 324.771 1138.77 358.361C1169.4 389.549 1220.2 391.979 1255.05 366.372L1265.47 356.488C1271.22 362.085 1276.91 367.47 1282.19 373.528C1273.88 382.938 1263.91 390.741 1252.78 396.55C1226.68 409.893 1190.05 410.996 1162.39 402.072C1135.25 393.358 1112.75 374.122 1099.93 348.677C1085.84 321.109 1083.61 287.036 1093.17 257.668C1102 230.354 1121.44 207.736 1147.12 194.899Z"/><path fill="#DC4ECB" d="M1147.12 194.899C1187.83 172.928 1249.76 178.378 1281.25 214.33C1276.26 219.919 1270.44 226.748 1265.2 231.915L1253.88 221.761C1238.46 211.484 1230.26 209.073 1212.77 205.782C1209.52 203.288 1207.56 203.4 1203.82 203.818C1201.68 200.777 1198.97 202.247 1197.86 200.791C1191.79 192.827 1197.09 187.256 1183.3 187.092C1167.14 190.795 1139.39 197.895 1128.48 211.321L1128.08 210.46C1129.81 204.793 1144.05 200.703 1147.12 194.899Z"/><path fill="#D53CA8" d="M1147.12 194.899C1187.83 172.928 1249.76 178.378 1281.25 214.33C1276.26 219.919 1270.44 226.748 1265.2 231.915L1253.88 221.761C1257.52 222.49 1259.17 225.504 1264.23 224.114C1268.02 223.075 1270.64 217.491 1272.63 214.076C1252.87 191.696 1212.13 180.613 1183.3 187.092C1167.14 190.795 1139.39 197.895 1128.48 211.321L1128.08 210.46C1129.81 204.793 1144.05 200.703 1147.12 194.899Z"/><path fill="#D53CA8" d="M1249.39 376.881C1254.18 374.685 1264.7 366.383 1266.37 366.251C1267.59 366.15 1268.81 366.074 1270.04 366.021L1270.01 364.969C1268.98 364.378 1265.14 363.499 1264.59 364.001C1207.63 416.451 1112.38 379.382 1110.66 300.021C1110.1 273.909 1115.85 249.833 1135.07 229.011C1150.62 212.473 1172.07 202.738 1194.76 201.921C1194.26 202.523 1192.9 203.151 1192.15 203.549C1193.25 204.256 1201.51 203.767 1203.82 203.818C1207.56 203.4 1209.52 203.288 1212.77 205.782C1184.75 205.363 1161.7 209.133 1140.39 229.726C1106.42 262.54 1105.51 324.771 1138.77 358.361C1169.4 389.549 1220.2 391.979 1255.05 366.372L1255.7 367.295C1258.99 364.644 1262.86 361.718 1265.6 358.565C1268.13 361.091 1274.56 367.114 1276.05 369.87L1274.27 370.286L1273.39 370.622C1273.02 374.331 1264.6 383.877 1262.29 385.301C1257.49 388.267 1255.22 387.027 1249.77 391.98L1249.52 392.212L1249.17 391.828L1253.06 385.222C1253.02 381.608 1251.5 380.398 1249.39 376.881Z"/><path fill="#B640A8" d="M1147.12 194.899C1144.05 200.703 1129.81 204.793 1128.08 210.46L1128.48 211.321C1128.4 211.434 1128.33 211.546 1128.25 211.659C1099.05 236.9 1086.66 276.521 1092.51 314.281C1096.85 342.136 1112 367.156 1134.67 383.908C1171.32 410.656 1230.39 411.737 1266.76 383.637C1270.89 380.449 1274.03 375.439 1274.27 370.286L1276.05 369.87C1274.56 367.114 1268.13 361.091 1265.6 358.565C1262.86 361.718 1258.99 364.644 1255.7 367.295L1255.05 366.372L1265.47 356.488C1271.22 362.085 1276.91 367.47 1282.19 373.528C1273.88 382.938 1263.91 390.741 1252.78 396.55C1226.68 409.893 1190.05 410.996 1162.39 402.072C1135.25 393.358 1112.75 374.122 1099.93 348.677C1085.84 321.109 1083.61 287.036 1093.17 257.668C1102 230.354 1121.44 207.736 1147.12 194.899Z"/><path fill="#4C2A82" d="M369.525 244.511L370.011 245.464C384.656 256.391 399.718 270.207 411.204 284.431L412.555 286.279C413.836 306.463 416.337 347.573 405.517 365.628L405.328 368.03L401.786 370.784C396.554 373.067 391.808 375.848 386.646 377.955C369.555 384.783 350.977 387.03 332.75 384.475L330.53 386.603C328.056 384.224 329.15 384.586 326.112 384.601C316.666 384.038 306.309 378.457 297.238 376.676C296.878 376.605 290.398 382.524 286.297 382.984C287.977 380.995 293.889 376.901 296.282 375.151C318.668 357.854 329.552 342.579 345.319 320.284C345.468 319.322 349.618 311.113 350.34 309.714C355.388 299.925 358.817 290.727 361.963 280.192L362.638 279.839C363.504 273.326 366.157 248.628 369.525 244.511Z"/><defs><linearGradient id="gradient_10" gradientUnits="userSpaceOnUse" x1="384.6499" y1="358.61917" x2="395.2551" y2="250.88849"><stop offset="0" stop-color="#7133A6"/><stop offset="1" stop-color="#A226B5"/></linearGradient></defs><path fill="url(#gradient_10)" d="M369.525 244.511L370.011 245.464C384.656 256.391 399.718 270.207 411.204 284.431L412.555 286.279C413.836 306.463 416.337 347.573 405.517 365.628C404.889 351.291 379.164 298.593 368.819 289.232L368.682 288.581C366.995 286.774 364.125 282.125 362.638 279.839C363.504 273.326 366.157 248.628 369.525 244.511Z"/><path fill="#B640A8" d="M369.525 244.511L370.011 245.464C370.194 254.536 370.957 280.643 368.682 288.581C366.995 286.774 364.125 282.125 362.638 279.839C363.504 273.326 366.157 248.628 369.525 244.511Z"/><path fill="#6B73AB" d="M362.638 279.839C364.125 282.125 366.995 286.774 368.682 288.581L368.819 289.232C367.489 297.703 363.63 323.748 359.246 330.033C353.304 354.276 342.403 365.336 332.75 384.475L330.53 386.603C328.056 384.224 329.15 384.586 326.112 384.601C316.666 384.038 306.309 378.457 297.238 376.676C296.878 376.605 290.398 382.524 286.297 382.984C287.977 380.995 293.889 376.901 296.282 375.151C318.668 357.854 329.552 342.579 345.319 320.284C345.468 319.322 349.618 311.113 350.34 309.714C355.388 299.925 358.817 290.727 361.963 280.192L362.638 279.839Z"/><path fill="#9860AC" d="M362.638 279.839C364.125 282.125 366.995 286.774 368.682 288.581L368.819 289.232C367.489 297.703 363.63 323.748 359.246 330.033C358.054 327.111 363.587 312.611 364.481 307.186C361.602 304.468 360.086 300.591 358.349 296.975C356.22 301.64 349.493 319.208 345.319 320.284C345.468 319.322 349.618 311.113 350.34 309.714C355.388 299.925 358.817 290.727 361.963 280.192L362.638 279.839Z"/></svg>