<?xml version="1.0" encoding="utf-8" ?><svg xmlns="http://www.w3.org/2000/svg" xmlns:xlink="http://www.w3.org/1999/xlink" width="508" height="565" viewBox="0 0 508 565"><path fill="#952D8E" d="M360.797 61.1975C367.711 62.0139 374.762 62.5767 381.604 63.8184C405.022 68.0686 428.186 76.6543 447.92 90.0818C449.601 91.2254 458.209 97.3052 459.192 98.5859C465.436 103.097 479.661 118.028 483.1 124.857C485.479 127.396 490.415 136.317 492.06 139.589C503.529 162.404 507.778 186.81 506.985 212.186C506.908 214.651 506.75 217.798 506.356 220.226C505.915 230.989 503.285 242.03 500.708 252.478C498.049 263.259 493.272 273.665 489.081 283.91L488.926 285.372C490.286 288.239 494.276 298.068 495.247 300.976C498.847 308.559 501.804 321.104 503.719 329.329C503.944 330.294 504.889 334.593 504.941 335.449C506.561 341.746 506.675 349.159 507.103 355.643C508.87 382.405 503.085 409.038 489.485 432.23C467.558 469.623 425.872 493.662 383.396 499.297C379.367 499.799 375.326 500.192 371.277 500.477C368.211 500.709 361.682 500.789 359.144 501.868L359.038 502.097C355.415 506.793 352.294 511.679 348.535 516.443C341.3 525.481 332.965 533.581 323.725 540.558C322.44 541.525 319.47 543.759 318.11 544.501C305.721 553.318 289.085 559.667 274.15 562.383C227.365 570.894 181.79 546.546 153.489 509.869L149.253 505.137C141.138 504.082 132.178 503.689 124.328 501.514C122.592 501.497 112.641 498.913 110.644 498.245C106.469 496.85 100.803 495.384 96.6758 493.868C83.7501 489.121 71.0855 482.481 59.742 474.695C57.6442 473.255 53.7586 470.543 52.0809 468.91C49.5726 467.265 45.8008 463.827 43.5833 461.758C29.8531 448.951 18.216 432.759 11.2227 415.339C-3.10514 379.648 -0.695494 339.698 12.5476 304.104C15.5138 296.131 18.6328 289.892 21.902 282.266C20.1232 279.086 17.948 274.004 16.4542 270.561C15.9271 269.702 14.0515 265.045 13.6042 263.922C7.82465 249.142 4.08321 233.644 2.48285 217.856C0.0553 192.591 3.60667 168.398 14.7592 145.514C16.0722 142.82 19.5536 135.934 21.3622 133.734C22.6386 131.392 25.2629 127.772 26.8385 125.611C37.645 110.904 51.4179 98.6286 67.2669 89.5774C69.7459 88.1363 73.4415 85.7394 76.065 84.8051C80.3205 82.3086 90.0503 78.4595 94.9848 76.7703C104.971 72.9304 126.502 67.6192 137.066 66.4624C141.038 65.5943 145.671 65.3967 150.082 64.4062C149.717 65.2608 149.395 66.0259 148.973 66.8534L148.808 66.7556C140.987 81.037 134.315 92.6041 130.007 108.854L130.189 109.383L130.66 109.576L130.551 109.701C128.43 113.937 127.151 120.569 126.137 125.259C125.84 126.632 125.378 129.578 124.972 130.787C124.281 136.194 123.508 141.006 123.055 146.516C121.807 162.281 122.518 178.14 125.172 193.73C125.563 196.012 126.352 201.896 127.707 203.48C130.753 197.857 133.371 191.441 136.605 185.42C144.531 170.638 154.226 156.875 165.479 144.437C167.536 142.159 170.842 138.394 173.097 136.445C174.515 134.795 176.356 133.046 177.951 131.555C183.672 126.21 189.514 120.993 195.665 116.144C201.228 111.758 207.132 107.792 212.688 103.404C212.787 103.14 212.886 102.876 212.985 102.613C213.954 102.495 214.305 102.365 215.206 102.75C217.216 100.157 228.21 94.7845 231.283 92.6758C234.206 90.6697 238.88 89.0225 241.452 86.4923C242.123 86.6926 242.666 86.9042 243.366 86.9177C244.915 86.0627 246.675 85.3352 248.271 84.5562C275.666 71.1862 304.62 64.507 334.845 62.0396C339.014 61.7336 343.192 61.5698 347.371 61.5483C350 61.5284 359.015 61.6987 360.797 61.1975ZM170.628 293.681C172.435 297.395 174.201 298.984 176.263 302.063L176.532 302.302C177.382 303.07 178.587 304.531 179.362 305.444C184.452 311.439 189.76 316.913 195.652 322.161C210.305 335.205 226.639 346.229 244.219 354.937C248.033 356.824 251.989 358.402 255.891 360.075C257.111 360.598 259.979 361.671 260.954 362.201C264.259 363.402 268.877 365.185 272.271 366.05C277.214 362.474 282.471 357.537 286.897 353.379C308.463 333.118 325.856 307.933 335.284 279.776C336.16 277.161 338.468 271.619 337.349 269.311C337.009 269.123 330.751 261.183 329.963 260.265C307.809 234.465 278.514 214.029 246.478 202.526C244.009 201.639 240.076 200.215 237.645 199.996L236.514 200.752C210.881 220.41 188.458 247.237 176.286 277.285C174.281 282.236 171.839 288.514 170.628 293.681ZM67.4028 383.42C71.7943 387.969 76.724 392.689 82.0688 396.308C109.502 414.887 145.662 417.815 177.398 410.919C178.629 410.652 181.572 410.295 182.473 409.69L182.445 409.141C177.296 407.669 168.834 404.351 163.721 402.364C152.719 398.09 135.289 391.573 125.512 385.341C124.404 385.003 115.96 380.026 114.447 379.132C97.121 368.721 81.0056 356.419 66.3968 342.452C60.5029 336.736 54.0717 329.644 48.4895 323.537C46.9848 326.73 48.5382 339.671 49.1082 343.549C51.0703 356.898 56.784 369.843 65.1227 380.41C65.6554 381.085 67.0166 382.741 67.4028 383.42ZM453.426 233.037C455.377 235.195 458.396 238.323 460.141 240.506L460.547 240.306C461.806 238.16 459.795 222.556 459.29 219.73C455.701 199.649 446.025 182.402 429.096 170.612C400.038 150.375 365.488 148.144 331.635 154.03C330.522 154.443 329.131 154.761 328.472 155.592C328.673 156.137 328.668 156.106 329.05 156.549C331.733 156.851 335.854 158.519 338.538 159.306C352.05 163.27 364.842 168.68 377.349 175.125C381.406 177.215 387.589 180.094 391.258 182.801C409.247 193.35 426.005 205.87 441.222 220.129C444.008 222.713 451.357 230.005 453.426 233.037ZM378.675 454.628C379.905 451.329 381.407 444.059 382.113 440.534C386.317 419.532 387.967 400.491 384.953 379.209C384.33 374.449 383.677 370.532 382.589 365.869L381.904 364.532L381.385 364.395C380.55 365.08 380.158 366.544 379.618 367.565C376.7 373.774 373.854 379.955 370.564 385.981C357.948 409.179 341.136 429.836 320.98 446.9C314.864 452.042 307.558 457.107 301.079 462.039C304.968 463.593 310.823 463.906 315.026 464.32C331.016 465.892 347.483 464.928 363.013 460.688C367.403 459.489 375.348 457.715 378.675 454.628Z"/><path fill="#831473" d="M360.797 61.1975C367.711 62.0139 374.762 62.5767 381.604 63.8184C405.022 68.0686 428.186 76.6543 447.92 90.0818C449.601 91.2254 458.209 97.3052 459.192 98.5859C465.436 103.097 479.661 118.028 483.1 124.857C485.479 127.396 490.415 136.317 492.06 139.589C503.529 162.404 507.778 186.81 506.985 212.186C506.908 214.651 506.75 217.798 506.356 220.226C505.915 230.989 503.285 242.03 500.708 252.478C498.049 263.259 493.272 273.665 489.081 283.91L488.926 285.372C490.286 288.239 494.276 298.068 495.247 300.976C498.847 308.559 501.804 321.104 503.719 329.329C503.944 330.294 504.889 334.593 504.941 335.449C506.561 341.746 506.675 349.159 507.103 355.643C508.87 382.405 503.085 409.038 489.485 432.23C467.558 469.623 425.872 493.662 383.396 499.297C379.367 499.799 375.326 500.192 371.277 500.477C368.211 500.709 361.682 500.789 359.144 501.868C358.969 500.488 359.9 500.432 359.427 499.429L358.246 499.16L359.964 499.202C360.519 497.196 362.62 494.217 364.194 492.772C368.156 485.491 370.352 480.535 373.458 472.952C374.552 469.045 377.722 461.037 379.072 456.698C379.448 456.413 379.769 456.169 380.033 455.968L378.784 455.994L378.675 454.628C379.905 451.329 381.407 444.059 382.113 440.534C386.317 419.532 387.967 400.491 384.953 379.209C384.33 374.449 383.677 370.532 382.589 365.869L381.904 364.532L381.385 364.395C380.55 365.08 380.158 366.544 379.618 367.565L379.387 366.806C379.809 365.52 381.16 360.677 380.794 359.521C379.253 359.663 375.922 364.624 373.914 366.035C375.085 363.976 376.918 362.496 378.25 360.537L377.981 360.69C376.392 361.61 375.111 362.605 373.486 363.615C355.139 375.029 331.662 377.683 310.524 375.794C309.942 375.742 309.15 375.302 308.736 374.92C305.253 379.691 295.591 392.481 291.159 396.403C291.543 394.658 295.243 391.001 296.621 389.489C295.583 388.911 295.229 388.584 294.267 388.798C294.482 388.173 294.572 388.115 294.493 387.476C293.176 387.607 290.276 390.754 288.181 391.556C284.766 386.719 276.52 388.531 272.641 386.602C266.771 383.683 266.858 381.581 259.685 379.618C258.572 380.02 256.843 380.785 255.765 380.55C255.142 379.839 255.304 380.248 255.314 379.26C255.64 378.822 255.771 378.536 255.958 378.023C256.205 377.728 259.05 375.826 259.585 375.42C263.386 372.53 268.901 369.261 272.271 366.05C277.214 362.474 282.471 357.537 286.897 353.379C308.463 333.118 325.856 307.933 335.284 279.776C336.16 277.161 338.468 271.619 337.349 269.311C337.009 269.123 330.751 261.183 329.963 260.265C307.809 234.465 278.514 214.029 246.478 202.526C244.009 201.639 240.076 200.215 237.645 199.996L236.514 200.752L235.878 200.67C235.732 199.86 236.501 200.43 237.318 199.239C226.919 196.081 216.185 193.817 205.632 191.199C203.599 190.694 203.611 192.697 201.772 193.908C207.41 183.323 235.31 153.613 245.579 147.457C255.427 140.438 267.076 131.99 277.881 126.838L277.903 126.685C279.378 126.723 285.154 123.864 286.731 123.108L286.76 122.732C286.276 122.069 285.776 121.224 285.331 120.52C274.833 108.727 265.34 101.057 252.108 92.3031C249.24 90.4059 246.266 88.781 243.366 86.9177C244.915 86.0627 246.675 85.3352 248.271 84.5562C275.666 71.1862 304.62 64.507 334.845 62.0396C339.014 61.7336 343.192 61.5698 347.371 61.5483C350 61.5284 359.015 61.6987 360.797 61.1975ZM329.05 156.549C331.733 156.851 335.854 158.519 338.538 159.306C352.05 163.27 364.842 168.68 377.349 175.125C381.406 177.215 387.589 180.094 391.258 182.801C409.247 193.35 426.005 205.87 441.222 220.129C444.008 222.713 451.357 230.005 453.426 233.037C455.377 235.195 458.396 238.323 460.141 240.506L460.547 240.306C461.806 238.16 459.795 222.556 459.29 219.73C455.701 199.649 446.025 182.402 429.096 170.612C400.038 150.375 365.488 148.144 331.635 154.03C330.522 154.443 329.131 154.761 328.472 155.592C328.673 156.137 328.668 156.106 329.05 156.549Z"/><path fill="#831473" d="M360.797 61.1975C367.711 62.0139 374.762 62.5767 381.604 63.8184C405.022 68.0686 428.186 76.6543 447.92 90.0818C449.601 91.2254 458.209 97.3052 459.192 98.5859C465.436 103.097 479.661 118.028 483.1 124.857C485.479 127.396 490.415 136.317 492.06 139.589C503.529 162.404 507.778 186.81 506.985 212.186C506.908 214.651 506.75 217.798 506.356 220.226C505.915 230.989 503.285 242.03 500.708 252.478C498.049 263.259 493.272 273.665 489.081 283.91C488.065 283.391 488.356 283.495 487.66 282.365L487.516 282.356C484.706 275.481 466.709 247.157 460.981 242.396C460.553 241.659 460.313 241.353 460.141 240.506L460.547 240.306C461.806 238.16 459.795 222.556 459.29 219.73C455.701 199.649 446.025 182.402 429.096 170.612C400.038 150.375 365.488 148.144 331.635 154.03C330.522 154.443 329.131 154.761 328.472 155.592C328.673 156.137 328.668 156.106 329.05 156.549C328.177 156.268 323.739 155.326 322.445 154.99C306.273 150.783 288.95 147.743 272.248 147.337C268.441 147.236 264.633 147.257 260.828 147.398C258.446 147.482 247.187 148.46 245.842 148.063L245.579 147.457C255.427 140.438 267.076 131.99 277.881 126.838L277.903 126.685C279.378 126.723 285.154 123.864 286.731 123.108L286.76 122.732C286.276 122.069 285.776 121.224 285.331 120.52C274.833 108.727 265.34 101.057 252.108 92.3031C249.24 90.4059 246.266 88.781 243.366 86.9177C244.915 86.0627 246.675 85.3352 248.271 84.5562C275.666 71.1862 304.62 64.507 334.845 62.0396C339.014 61.7336 343.192 61.5698 347.371 61.5483C350 61.5284 359.015 61.6987 360.797 61.1975Z"/><defs><linearGradient id="gradient_0" gradientUnits="userSpaceOnUse" x1="283.69202" y1="38.068642" x2="423.41525" y2="150.85281"><stop offset="0" stop-color="#FF3F61"/><stop offset="1" stop-color="#BE1D75"/></linearGradient></defs><path fill="url(#gradient_0)" d="M360.797 61.1975C367.711 62.0139 374.762 62.5767 381.604 63.8184C405.022 68.0686 428.186 76.6543 447.92 90.0818C449.601 91.2254 458.209 97.3052 459.192 98.5859C459.755 100.085 461.15 100.478 460.811 101.748L460.458 101.784L459.61 101.085C458.002 102.119 459.346 104.307 458.525 105.458L457.758 105.225C457.155 105.896 456.491 108.397 455.833 108.734C453.58 109.887 451.737 118.094 449.111 118.437L448.594 117.76C446.804 119.496 448.785 120.732 445.5 120.323C446.93 121.163 448.887 122.038 449.554 123.49C432.361 112.845 417.288 106.66 397.245 103.545C394.114 103.058 388.556 102.013 385.574 102.131C386.233 102.586 385.871 102.436 386.729 102.517C385.103 103.061 379.32 101.992 377.467 101.954C376.127 101.927 365.988 101.609 365.74 101.969C367.857 102.395 369.379 102.587 371.455 103.283C370.159 103.506 368.866 103.747 367.576 104.006C374.491 103.983 379.728 104.155 386.653 104.604C385.491 104.737 384.573 104.787 383.403 104.829C350.039 103.248 317.062 108.052 286.76 122.732C286.276 122.069 285.776 121.224 285.331 120.52C274.833 108.727 265.34 101.057 252.108 92.3031C249.24 90.4059 246.266 88.781 243.366 86.9177C244.915 86.0627 246.675 85.3352 248.271 84.5562C275.666 71.1862 304.62 64.507 334.845 62.0396C339.014 61.7336 343.192 61.5698 347.371 61.5483C350 61.5284 359.015 61.6987 360.797 61.1975Z"/><path fill="#DB49A6" d="M285.331 120.52C285.651 120.228 285.975 119.941 286.304 119.661C289.465 116.975 295.35 115.23 299.397 113.704C326.921 103.552 356.346 99.6003 385.574 102.131C386.233 102.586 385.871 102.436 386.729 102.517C385.103 103.061 379.32 101.992 377.467 101.954C376.127 101.927 365.988 101.609 365.74 101.969C367.857 102.395 369.379 102.587 371.455 103.283C370.159 103.506 368.866 103.747 367.576 104.006C374.491 103.983 379.728 104.155 386.653 104.604C385.491 104.737 384.573 104.787 383.403 104.829C350.039 103.248 317.062 108.052 286.76 122.732C286.276 122.069 285.776 121.224 285.331 120.52Z"/><path fill="#BB217D" d="M286.76 122.732C317.062 108.052 350.039 103.248 383.403 104.829C386.511 105.316 393.847 105.734 396.281 106.538C395.594 106.835 375.898 104.825 372.997 104.863C358.577 105.048 344.52 105.935 330.392 109.05C328.253 109.522 324.038 109.844 322.135 110.937C322.788 111.638 322.567 111.206 322.56 112.394L322.196 112.885C319.379 112.953 319.793 114.392 315.751 114.544C314.307 116.537 308.955 117.943 308.235 120.122C307.962 120.948 310.35 123.008 311.138 124.014L311.617 123.748L311.799 124.02C311.099 125.601 309.607 125.548 309.715 127.325C311.558 127.732 314.419 128.191 316.092 128.511C317.942 128.865 320.866 130.623 323.024 130.898C326.592 133.365 324.978 135.482 325.295 137.27C325.468 138.245 333.123 140.443 330.258 143.92C327.268 147.55 322.115 149.057 320.729 153.807L321.334 153.494C324.921 156.916 329.4 152.883 331.635 154.03C330.522 154.443 329.131 154.761 328.472 155.592C328.673 156.137 328.668 156.106 329.05 156.549C328.177 156.268 323.739 155.326 322.445 154.99C306.273 150.783 288.95 147.743 272.248 147.337C268.441 147.236 264.633 147.257 260.828 147.398C258.446 147.482 247.187 148.46 245.842 148.063L245.579 147.457C255.427 140.438 267.076 131.99 277.881 126.838L277.903 126.685C279.378 126.723 285.154 123.864 286.731 123.108L286.76 122.732Z"/><path fill="#DB49A6" d="M286.731 123.108C288.32 125.305 289.417 130.104 289.934 132.797C287.49 131.762 279.18 126.997 277.881 126.838L277.903 126.685C279.378 126.723 285.154 123.864 286.731 123.108Z"/><path fill="#BB217D" d="M459.192 98.5859C465.436 103.097 479.661 118.028 483.1 124.857C480.88 124.437 478.954 117.37 475.78 117.93C475.457 118.425 475.478 118.388 475.502 118.981L474.836 119.877L474.596 119.745L474.51 119.393L474.263 119.37C472.867 123.554 472.318 131.623 469.234 134.678L468.845 134.382C468.85 133.599 468.871 133.076 468.935 132.296C467.955 133.875 468.449 134.343 467.257 135.982L466.77 135.959C467.095 136.542 470.929 140.161 471.752 140.947C474.657 143.721 481.932 151.78 483.578 154.98L483.444 155.241C481.753 153.924 477.275 147.172 475.462 146.486C471.995 140.804 455.323 127.624 449.554 123.49C448.887 122.038 446.93 121.163 445.5 120.323C448.785 120.732 446.804 119.496 448.594 117.76L449.111 118.437C451.737 118.094 453.58 109.887 455.833 108.734C456.491 108.397 457.155 105.896 457.758 105.225L458.525 105.458C459.346 104.307 458.002 102.119 459.61 101.085L460.458 101.784L460.811 101.748C461.15 100.478 459.755 100.085 459.192 98.5859Z"/><path fill="#D02398" d="M371.455 103.283C369.379 102.587 367.857 102.395 365.74 101.969C365.988 101.609 376.127 101.927 377.467 101.954C379.32 101.992 385.103 103.061 386.729 102.517C385.871 102.436 386.233 102.586 385.574 102.131C388.556 102.013 394.114 103.058 397.245 103.545C417.288 106.66 432.361 112.845 449.554 123.49C455.323 127.624 471.995 140.804 475.462 146.486L475.414 146.609C474.98 146.92 473.7 145.289 473.269 144.863C452.634 124.496 425.197 110.621 396.281 106.538C393.847 105.734 386.511 105.316 383.403 104.829C384.573 104.787 385.491 104.737 386.653 104.604C379.728 104.155 374.491 103.983 367.576 104.006C368.866 103.747 370.159 103.506 371.455 103.283Z"/><path fill="#952D8E" d="M487.66 282.365C490.082 275.593 492.557 268.97 494.892 262.193C503.335 237.695 499.679 211.447 485.685 189.756C485.016 188.72 481.553 184.204 481.828 183.496C485.489 187.593 489.373 195.291 491.754 200.258C496.867 210.928 499.669 223.076 499.736 234.914C499.741 235.787 499.567 237.284 499.88 238.024C500.285 237.54 500.377 237.43 500.648 236.879L500.849 236.462L501.759 236.624C501.904 235.65 502.191 234.813 502.766 233.992C504.484 231.543 502.359 229.838 505.06 227.959C505.502 224.456 505.609 221.037 506.132 217.445C506.268 218.31 506.302 219.341 506.356 220.226C505.915 230.989 503.285 242.03 500.708 252.478C498.049 263.259 493.272 273.665 489.081 283.91C488.065 283.391 488.356 283.495 487.66 282.365Z"/><path fill="#0295AF" d="M479.083 300.899C480.356 298.649 487.223 285.509 488.104 284.485L488.926 285.372C490.286 288.239 494.276 298.068 495.247 300.976C498.847 308.559 501.804 321.104 503.719 329.329C503.944 330.294 504.889 334.593 504.941 335.449C506.561 341.746 506.675 349.159 507.103 355.643C508.87 382.405 503.085 409.038 489.485 432.23C467.558 469.623 425.872 493.662 383.396 499.297C379.367 499.799 375.326 500.192 371.277 500.477C368.211 500.709 361.682 500.789 359.144 501.868C358.969 500.488 359.9 500.432 359.427 499.429L358.246 499.16L359.964 499.202C360.519 497.196 362.62 494.217 364.194 492.772C368.156 485.491 370.352 480.535 373.458 472.952C374.552 469.045 377.722 461.037 379.072 456.698C379.448 456.413 379.769 456.169 380.033 455.968L378.784 455.994L378.675 454.628C379.905 451.329 381.407 444.059 382.113 440.534C386.317 419.532 387.967 400.491 384.953 379.209C386.506 381.25 386.387 386.488 386.958 389.55C388.195 384.175 396.196 373.901 400.39 370.089C402.401 369.866 406.33 366.343 407.534 364.871C407.652 364.029 407.638 363.771 408.06 363.014C413.96 360.55 415.011 358.942 421.407 357.92C421.915 355.209 421.645 352.071 422.781 349.256L423.099 349.29C423.441 348.38 423.977 345.794 424.226 344.725C424.971 343.603 426.212 340.017 427.287 338.217C431.264 331.564 435.12 324.848 438.915 318.09C440.713 321.258 442.979 328.273 444.262 331.987C444.8 333.46 446.459 338.938 446.962 339.841C447.966 339.222 448.535 338.574 449.368 337.749C449.441 337.623 462.742 323.945 463.528 323.265C467.039 319.136 474.1 309.801 476.379 304.869C477.126 304.051 478.132 302.081 479.083 300.899Z"/><path fill="#204788" d="M438.915 318.09C440.713 321.258 442.979 328.273 444.262 331.987C444.8 333.46 446.459 338.938 446.962 339.841C456.288 374.505 456.24 407.172 441.352 440.27C440.586 441.116 439.034 444.563 438.369 445.789C436.691 448.864 434.87 451.859 432.911 454.763C422.952 469.695 406.182 483.917 389.572 490.768C385.428 492.445 381.176 493.843 376.846 494.953C373.126 495.92 367.448 497 364.101 498.789C371.025 498.919 377.261 497.193 384.135 497.023C382.168 498.021 380.014 497.664 377.81 497.907C374.486 498.275 371.209 498.94 367.877 499.151C365.399 499.293 362.351 498.961 359.964 499.202C360.519 497.196 362.62 494.217 364.194 492.772C368.156 485.491 370.352 480.535 373.458 472.952C374.552 469.045 377.722 461.037 379.072 456.698C379.448 456.413 379.769 456.169 380.033 455.968L378.784 455.994L378.675 454.628C379.905 451.329 381.407 444.059 382.113 440.534C386.317 419.532 387.967 400.491 384.953 379.209C386.506 381.25 386.387 386.488 386.958 389.55C388.195 384.175 396.196 373.901 400.39 370.089C402.401 369.866 406.33 366.343 407.534 364.871C407.652 364.029 407.638 363.771 408.06 363.014C413.96 360.55 415.011 358.942 421.407 357.92C421.915 355.209 421.645 352.071 422.781 349.256L423.099 349.29C423.441 348.38 423.977 345.794 424.226 344.725C424.971 343.603 426.212 340.017 427.287 338.217C431.264 331.564 435.12 324.848 438.915 318.09Z"/><defs><linearGradient id="gradient_1" gradientUnits="userSpaceOnUse" x1="381.98349" y1="393.86172" x2="419.23651" y2="420.18555"><stop offset="0" stop-color="#0E7DAB"/><stop offset="1" stop-color="#0097AC"/></linearGradient></defs><path fill="url(#gradient_1)" d="M384.953 379.209C386.506 381.25 386.387 386.488 386.958 389.55C388.195 384.175 396.196 373.901 400.39 370.089C402.401 369.866 406.33 366.343 407.534 364.871C407.652 364.029 407.638 363.771 408.06 363.014C413.96 360.55 415.011 358.942 421.407 357.92C425.059 358.588 424.322 361.415 427.578 360.918C431.105 385.686 428.961 409.11 413.432 429.617C405.535 440.046 392.213 451.287 380.033 455.968L378.784 455.994L378.675 454.628C379.905 451.329 381.407 444.059 382.113 440.534C386.317 419.532 387.967 400.491 384.953 379.209Z"/><path fill="#431374" d="M438.915 318.09C440.713 321.258 442.979 328.273 444.262 331.987C443.134 339.243 450.27 338.997 440.549 345.829C436.15 348.92 431.416 352.497 426.784 355.463C427.04 357.242 427.277 359.159 427.578 360.918C424.322 361.415 425.059 358.588 421.407 357.92C421.915 355.209 421.645 352.071 422.781 349.256L423.099 349.29C423.441 348.38 423.977 345.794 424.226 344.725C424.971 343.603 426.212 340.017 427.287 338.217C431.264 331.564 435.12 324.848 438.915 318.09Z"/><path fill="#447EB1" d="M421.407 357.92C421.915 355.209 421.645 352.071 422.781 349.256L423.099 349.29C422.437 352.874 422.023 354.432 422.233 358.077C423.359 357.478 426.007 355.796 426.784 355.463C427.04 357.242 427.277 359.159 427.578 360.918C424.322 361.415 425.059 358.588 421.407 357.92Z"/><path fill="#1E2D80" d="M373.458 472.952L373.798 473.118C373.493 475.1 369.098 483.873 369.234 484.67C370.295 483.55 374.667 474.349 375.21 472.704L375.362 472.256C376.219 474.595 365.629 491.581 365.525 495.083C367.14 495.596 379.037 492.419 381.191 491.807C383.588 491.127 386.84 488.69 389.727 488.144L391.365 487.831C389.863 488.563 385.102 490.579 384.18 491.513C385.973 491.183 387.976 489.982 389.232 490.029C387.416 491.579 362.817 498.49 361.103 498.099C361.674 496.599 363.468 494.687 364.194 492.772C368.156 485.491 370.352 480.535 373.458 472.952Z"/><path fill="#447EB1" d="M479.083 300.899C480.356 298.649 487.223 285.509 488.104 284.485L488.926 285.372C490.286 288.239 494.276 298.068 495.247 300.976C498.847 308.559 501.804 321.104 503.719 329.329C503.944 330.294 504.889 334.593 504.941 335.449C504.341 336.503 504.823 338.878 504.946 340.354C504.815 339.917 504.704 339.192 504.557 338.814C503.067 334.988 497.869 331.643 493.89 331.251C491.31 330.996 488.737 331.875 486.176 331.161C483.517 330.532 482.721 329.213 480.683 328.091L480.302 327.885C478.033 327.973 475.762 327.824 473.524 327.442C470.955 326.986 465.086 325.464 463.528 323.265C467.039 319.136 474.1 309.801 476.379 304.869C477.126 304.051 478.132 302.081 479.083 300.899Z"/><path fill="#6C6DAD" d="M479.083 300.899C480.356 298.649 487.223 285.509 488.104 284.485L488.926 285.372C490.286 288.239 494.276 298.068 495.247 300.976L494.951 301.36C494.307 300.535 491.975 294.295 491.417 292.87C490.34 292.906 485.226 291.631 485.131 291.671C483.288 292.441 481.479 299.864 479.083 300.899Z"/><path fill="#00D0DE" d="M449.368 337.749C450.369 338.669 450.896 341.591 451.273 343.071C453.98 353.626 455.621 364.426 456.172 375.309C456.914 393.527 455.047 411.818 448.553 428.909C448.043 430.25 445.82 436.015 445.14 436.921C445.131 436.865 449.711 424.235 450.381 422.05C452.594 414.832 457.894 390.196 455.053 383.369L454.816 383.258C454.57 384.671 453.96 384.32 453.932 385.298C453.49 401.134 451.331 417.129 445.428 431.924C444.262 434.847 443.227 437.853 441.66 440.553L441.352 440.27C456.24 407.172 456.288 374.505 446.962 339.841C447.966 339.222 448.535 338.574 449.368 337.749Z"/><path fill="#DB49A6" d="M364.725 199.916C365.797 199.471 366.92 199.233 368.037 198.754C371.69 197.187 377.133 193.631 379.081 190.211C380.023 188.557 378.746 184.528 377.99 182.852C376.248 178.994 373.161 176.02 369.025 174.874C368.104 174.591 365.346 173.22 364.934 172.303C365.371 172.03 365.464 172.054 365.973 172.066L366.46 172.083L367.301 171.251C368.759 171.541 371.684 173.618 372.705 173.867C376.044 174.68 389.126 182.975 391.258 182.801C409.247 193.35 426.005 205.87 441.222 220.129C444.008 222.713 451.357 230.005 453.426 233.037C455.377 235.195 458.396 238.323 460.141 240.506C460.313 241.353 460.553 241.659 460.981 242.396C466.709 247.157 484.706 275.481 487.516 282.356L487.66 282.365C488.356 283.495 488.065 283.391 489.081 283.91L488.926 285.372L488.104 284.485C487.223 285.509 480.356 298.649 479.083 300.899C478.132 302.081 477.126 304.051 476.379 304.869C474.1 309.801 467.039 319.136 463.528 323.265C462.742 323.945 449.441 337.623 449.368 337.749C448.535 338.574 447.966 339.222 446.962 339.841C446.459 338.938 444.8 333.46 444.262 331.987C442.979 328.273 440.713 321.258 438.915 318.09C435.12 324.848 431.264 331.564 427.287 338.217C426.212 340.017 424.971 343.603 424.226 344.725C423.324 342.948 421.545 336.532 420.595 333.991C416.74 323.685 412.769 314.2 407.011 304.801C406.037 303.21 404.416 300.023 403.297 298.718C400.997 293.849 391.474 280.732 387.764 276.4C386.639 268.795 385.83 262.237 384.013 254.675C383.324 251.812 379.571 240.851 379.814 239.251C379.545 238.888 378.915 237.771 378.653 237.331C378.349 237.004 375.015 228.78 374.577 227.736C372.278 222.253 369.584 217.236 366.878 211.95C366.934 209.235 360.137 200.212 358.675 197.377L358.929 197.16C359.245 197.768 359.392 198.263 359.986 198.549L360.252 198.039C360.72 198.135 363.181 199.451 364.725 199.916Z"/><path fill="#733F96" d="M378.653 237.331L379.04 236.859C381.731 236.79 391.988 246.493 394.525 248.768C395.506 250.158 398.797 252.654 400.172 253.987C403.124 256.848 409.737 263.397 411.638 266.74C422.331 278.705 433.634 297.186 439.962 312.1C440.749 313.953 439.26 315.169 439.256 317.377L438.913 317.633L438.915 318.09C435.12 324.848 431.264 331.564 427.287 338.217C426.212 340.017 424.971 343.603 424.226 344.725C423.324 342.948 421.545 336.532 420.595 333.991C416.74 323.685 412.769 314.2 407.011 304.801C406.037 303.21 404.416 300.023 403.297 298.718C400.997 293.849 391.474 280.732 387.764 276.4C386.639 268.795 385.83 262.237 384.013 254.675C383.324 251.812 379.571 240.851 379.814 239.251C379.545 238.888 378.915 237.771 378.653 237.331Z"/><path fill="#909BD1" d="M412.88 272.601C413.217 270.601 402.894 261.369 403.305 259.535C406.667 259.307 408.771 264.745 411.638 266.74C422.331 278.705 433.634 297.186 439.962 312.1C440.749 313.953 439.26 315.169 439.256 317.377L438.913 317.633C432.205 300.8 423.478 287.103 412.88 272.601Z"/><path fill="#EF64AB" d="M378.653 237.331L379.04 236.859C381.731 236.79 391.988 246.493 394.525 248.768C395.506 250.158 398.797 252.654 400.172 253.987C403.124 256.848 409.737 263.397 411.638 266.74C408.771 264.745 406.667 259.307 403.305 259.535C402.894 261.369 413.217 270.601 412.88 272.601C411.356 271.618 405.601 263.733 403.739 261.839C396.167 254.135 388.472 245.799 379.814 239.251C379.545 238.888 378.915 237.771 378.653 237.331Z"/><path fill="#733F96" d="M460.981 242.396C466.709 247.157 484.706 275.481 487.516 282.356L487.66 282.365C488.356 283.495 488.065 283.391 489.081 283.91L488.926 285.372L488.104 284.485C487.223 285.509 480.356 298.649 479.083 300.899C478.132 302.081 477.126 304.051 476.379 304.869C474.1 309.801 467.039 319.136 463.528 323.265C462.742 323.945 449.441 337.623 449.368 337.749C448.535 338.574 447.966 339.222 446.962 339.841C446.459 338.938 444.8 333.46 444.262 331.987C442.979 328.273 440.713 321.258 438.915 318.09L438.913 317.633L439.256 317.377C440.028 316.065 440.942 313.877 441.694 312.389C444.083 307.694 446.406 302.964 448.66 298.203C454.462 282.208 459.384 268.701 460.905 251.319C461.179 248.187 460.796 245.511 460.965 242.636L460.981 242.396Z"/><path fill="#095E97" d="M448.66 298.203L448.951 297.844C449.372 297.32 449.549 297.002 449.887 296.424C450.706 296.119 454.639 298.211 455.936 298.48C463.045 299.953 470.008 301.131 477.018 303.108L476.379 304.869C474.1 309.801 467.039 319.136 463.528 323.265C462.742 323.945 449.441 337.623 449.368 337.749C448.535 338.574 447.966 339.222 446.962 339.841C446.459 338.938 444.8 333.46 444.262 331.987C442.979 328.273 440.713 321.258 438.915 318.09L438.913 317.633L439.256 317.377C440.028 316.065 440.942 313.877 441.694 312.389C444.083 307.694 446.406 302.964 448.66 298.203Z"/><defs><linearGradient id="gradient_2" gradientUnits="userSpaceOnUse" x1="435.67575" y1="256.70868" x2="451.96863" y2="307.96542"><stop offset="0" stop-color="#A069B3"/><stop offset="1" stop-color="#4E8EB5"/></linearGradient></defs><path fill="url(#gradient_2)" d="M414.147 268.477C415.073 267.808 426.6 262.436 427.851 262.216C438.894 260.272 449.3 248.022 460.215 252.832C460.39 252.208 459.959 251.387 460.241 250.827C460.553 250.212 460.475 249.675 460.549 249.076C461.33 242.711 458.861 239.466 454.452 235.366C453.562 234.466 453.367 234.15 453.426 233.037C455.377 235.195 458.396 238.323 460.141 240.506C460.313 241.353 460.553 241.659 460.981 242.396L460.965 242.636C460.796 245.511 461.179 248.187 460.905 251.319C459.384 268.701 454.462 282.208 448.66 298.203C446.406 302.964 444.083 307.694 441.694 312.389C440.942 313.877 440.028 316.065 439.256 317.377C439.26 315.169 440.749 313.953 439.962 312.1C433.634 297.186 422.331 278.705 411.638 266.74C409.737 263.397 403.124 256.848 400.172 253.987C398.797 252.654 395.506 250.158 394.525 248.768C397.727 249.145 411.546 265.814 414.147 268.477Z"/><path fill="#512785" d="M337.349 269.311C337.748 269.226 338.117 269.126 338.491 268.964C340.018 265.718 342.503 249.774 343.008 245.345C343.264 243.097 343.36 239.364 343.884 237.255L343.917 237.259L343.796 237.62C346.136 243.102 340.267 263.494 339.74 270.074C339.575 272.146 342.883 277.109 344.544 278.146C344.701 278.856 344.823 279.094 344.77 279.808C346.743 280.514 359.684 302.474 361.358 305.54C363.831 310.167 366.193 314.853 368.442 319.593C372.051 327.256 375.155 335.149 377.732 343.218C378.543 345.767 380.965 354.539 381.77 356.438C380.687 361.267 382.349 361.685 382.589 365.869L381.904 364.532L381.385 364.395C380.55 365.08 380.158 366.544 379.618 367.565L379.387 366.806C379.809 365.52 381.16 360.677 380.794 359.521C379.253 359.663 375.922 364.624 373.914 366.035C375.085 363.976 376.918 362.496 378.25 360.537L377.981 360.69C376.392 361.61 375.111 362.605 373.486 363.615C355.139 375.029 331.662 377.683 310.524 375.794C309.942 375.742 309.15 375.302 308.736 374.92C305.253 379.691 295.591 392.481 291.159 396.403C291.543 394.658 295.243 391.001 296.621 389.489C295.583 388.911 295.229 388.584 294.267 388.798C294.482 388.173 294.572 388.115 294.493 387.476C293.176 387.607 290.276 390.754 288.181 391.556C284.766 386.719 276.52 388.531 272.641 386.602C266.771 383.683 266.858 381.581 259.685 379.618C258.572 380.02 256.843 380.785 255.765 380.55C255.142 379.839 255.304 380.248 255.314 379.26C255.64 378.822 255.771 378.536 255.958 378.023C256.205 377.728 259.05 375.826 259.585 375.42C263.386 372.53 268.901 369.261 272.271 366.05C277.214 362.474 282.471 357.537 286.897 353.379C308.463 333.118 325.856 307.933 335.284 279.776C336.16 277.161 338.468 271.619 337.349 269.311Z"/><defs><linearGradient id="gradient_3" gradientUnits="userSpaceOnUse" x1="304.53293" y1="268.68594" x2="294.46283" y2="391.99335"><stop offset="0" stop-color="#98469F"/><stop offset="1" stop-color="#338CC0"/></linearGradient></defs><path fill="url(#gradient_3)" d="M337.349 269.311C337.748 269.226 338.117 269.126 338.491 268.964C340.018 265.718 342.503 249.774 343.008 245.345C343.264 243.097 343.36 239.364 343.884 237.255L343.917 237.259L343.796 237.62C346.136 243.102 340.267 263.494 339.74 270.074C339.575 272.146 342.883 277.109 344.544 278.146C344.701 278.856 344.823 279.094 344.77 279.808C342.286 306.389 332.602 333.885 319.771 357.216C316.699 362.801 312.277 369.531 308.736 374.92C305.253 379.691 295.591 392.481 291.159 396.403C291.543 394.658 295.243 391.001 296.621 389.489C295.583 388.911 295.229 388.584 294.267 388.798C294.482 388.173 294.572 388.115 294.493 387.476C293.176 387.607 290.276 390.754 288.181 391.556C284.766 386.719 276.52 388.531 272.641 386.602C266.771 383.683 266.858 381.581 259.685 379.618C258.572 380.02 256.843 380.785 255.765 380.55C255.142 379.839 255.304 380.248 255.314 379.26C255.64 378.822 255.771 378.536 255.958 378.023C256.205 377.728 259.05 375.826 259.585 375.42C263.386 372.53 268.901 369.261 272.271 366.05C277.214 362.474 282.471 357.537 286.897 353.379C308.463 333.118 325.856 307.933 335.284 279.776C336.16 277.161 338.468 271.619 337.349 269.311Z"/><path fill="#048ABA" d="M294.176 357.187L294.456 357.121C298.032 358.136 300.274 358.962 303.242 361.569C303.972 362.202 309.912 368.03 309.62 368.637C308.277 371.435 306.981 375.78 303.007 373.222C301.179 372.046 297.461 371.365 296.129 371.197C292.696 370.89 277.005 369.102 277.021 365.233C278.795 363.128 282.291 361.956 284.576 360.407C285.788 359.585 287.281 358.002 288.658 357.617C290.46 357.113 292.314 357.607 294.176 357.187Z"/><defs><linearGradient id="gradient_4" gradientUnits="userSpaceOnUse" x1="359.76346" y1="352.72644" x2="371.76376" y2="240.18692"><stop offset="0" stop-color="#802FAA"/><stop offset="1" stop-color="#BF20BA"/></linearGradient></defs><path fill="url(#gradient_4)" d="M344.544 278.146C344.753 277.7 344.74 277.702 344.786 277.199C345.553 268.848 345.924 260.466 345.896 252.081C345.879 249.667 345.381 238.158 345.701 236.457C346.332 236.862 346.765 237.087 347.421 237.421C358.057 244.597 380.095 265.935 387.764 276.4C391.474 280.732 400.997 293.849 403.297 298.718C404.416 300.023 406.037 303.21 407.011 304.801C412.769 314.2 416.74 323.685 420.595 333.991C421.545 336.532 423.324 342.948 424.226 344.725C423.977 345.794 423.441 348.38 423.099 349.29L422.781 349.256C421.645 352.071 421.915 355.209 421.407 357.92C415.011 358.942 413.96 360.55 408.06 363.014C407.638 363.771 407.652 364.029 407.534 364.871C406.33 366.343 402.401 369.866 400.39 370.089C396.196 373.901 388.195 384.175 386.958 389.55C386.387 386.488 386.506 381.25 384.953 379.209C384.33 374.449 383.677 370.532 382.589 365.869C382.349 361.685 380.687 361.267 381.77 356.438C380.965 354.539 378.543 345.767 377.732 343.218C375.155 335.149 372.051 327.256 368.442 319.593C366.193 314.853 363.831 310.167 361.358 305.54C359.684 302.474 346.743 280.514 344.77 279.808C344.823 279.094 344.701 278.856 344.544 278.146Z"/><path fill="#6C6DAD" d="M381.77 356.438C383.068 354.372 384.721 348.559 385.318 346.002C389.975 326.077 393.642 297.616 388.483 277.834C392.526 283.911 397.61 289.55 401.246 295.978C401.709 296.797 402.534 298.257 403.297 298.718C404.416 300.023 406.037 303.21 407.011 304.801C412.769 314.2 416.74 323.685 420.595 333.991C421.545 336.532 423.324 342.948 424.226 344.725C423.977 345.794 423.441 348.38 423.099 349.29L422.781 349.256C421.645 352.071 421.915 355.209 421.407 357.92C415.011 358.942 413.96 360.55 408.06 363.014C407.638 363.771 407.652 364.029 407.534 364.871C406.33 366.343 402.401 369.866 400.39 370.089C396.196 373.901 388.195 384.175 386.958 389.55C386.387 386.488 386.506 381.25 384.953 379.209C384.33 374.449 383.677 370.532 382.589 365.869C382.349 361.685 380.687 361.267 381.77 356.438Z"/><path fill="#D02398" d="M201.772 193.908C207.41 183.323 235.31 153.613 245.579 147.457L245.842 148.063C247.187 148.46 258.446 147.482 260.828 147.398C264.633 147.257 268.441 147.236 272.248 147.337C288.95 147.743 306.273 150.783 322.445 154.99C323.739 155.326 328.177 156.268 329.05 156.549C331.733 156.851 335.854 158.519 338.538 159.306C352.05 163.27 364.842 168.68 377.349 175.125C381.406 177.215 387.589 180.094 391.258 182.801C389.126 182.975 376.044 174.68 372.705 173.867C371.684 173.618 368.759 171.541 367.301 171.251L366.46 172.083L365.973 172.066C365.464 172.054 365.371 172.03 364.934 172.303C365.346 173.22 368.104 174.591 369.025 174.874C373.161 176.02 376.248 178.994 377.99 182.852C378.746 184.528 380.023 188.557 379.081 190.211C377.133 193.631 371.69 197.187 368.037 198.754C366.92 199.233 365.797 199.471 364.725 199.916C363.181 199.451 360.72 198.135 360.252 198.039L359.986 198.549C359.392 198.263 359.245 197.768 358.929 197.16L358.675 197.377C360.137 200.212 366.934 209.235 366.878 211.95C365.996 210.749 364.424 207.832 363.605 206.442C361.741 203.26 359.766 200.145 357.684 197.102C349.681 185.493 329.78 163.226 316.77 157.784C313.005 158.652 306.256 161.409 302.392 162.905C283.377 170.266 265.05 179.762 248.254 191.336C245.427 193.284 241.974 196.29 239.202 198.492C238.354 198.782 238.164 199.249 237.645 199.996L236.514 200.752L235.878 200.67C235.732 199.86 236.501 200.43 237.318 199.239C226.919 196.081 216.185 193.817 205.632 191.199C203.599 190.694 203.611 192.697 201.772 193.908Z"/><path fill="#952D8E" d="M239.202 198.492C239.939 199.56 244.496 200.248 246.358 201.006L246.592 200.767C244.94 199.108 241.015 199.14 240.581 198.134C241.434 197.386 244.198 194.828 245.273 195.037C264.712 198.811 284.401 203.211 302.656 211.056C312.572 215.317 321.949 220.601 331.498 225.597C335.141 227.502 342.533 233.569 345.254 234.771C346.023 231.692 344.911 228.716 345.245 225.701C345.519 227.344 345.554 229.401 345.662 231.082C345.84 233.844 345.033 235.424 347.421 237.421C346.765 237.087 346.332 236.862 345.701 236.457C345.381 238.158 345.879 249.667 345.896 252.081C345.924 260.466 345.553 268.848 344.786 277.199C344.74 277.702 344.753 277.7 344.544 278.146C342.883 277.109 339.575 272.146 339.74 270.074C340.267 263.494 346.136 243.102 343.796 237.62L343.917 237.259L343.884 237.255C343.36 239.364 343.264 243.097 343.008 245.345C342.503 249.774 340.018 265.718 338.491 268.964C338.117 269.126 337.748 269.226 337.349 269.311C337.009 269.123 330.751 261.183 329.963 260.265C307.809 234.465 278.514 214.029 246.478 202.526C244.009 201.639 240.076 200.215 237.645 199.996C238.164 199.249 238.354 198.782 239.202 198.492Z"/><defs><linearGradient id="gradient_5" gradientUnits="userSpaceOnUse" x1="221.59717" y1="380.04709" x2="338.32162" y2="516.81439"><stop offset="0" stop-color="#185287"/><stop offset="1" stop-color="#0084A8"/></linearGradient></defs><path fill="url(#gradient_5)" d="M373.914 366.035C375.922 364.624 379.253 359.663 380.794 359.521C381.16 360.677 379.809 365.52 379.387 366.806L379.618 367.565C376.7 373.774 373.854 379.955 370.564 385.981C357.948 409.179 341.136 429.836 320.98 446.9C314.864 452.042 307.558 457.107 301.079 462.039C304.968 463.593 310.823 463.906 315.026 464.32C331.016 465.892 347.483 464.928 363.013 460.688C367.403 459.489 375.348 457.715 378.675 454.628L378.784 455.994L380.033 455.968C379.769 456.169 379.448 456.413 379.072 456.698C377.722 461.037 374.552 469.045 373.458 472.952C370.352 480.535 368.156 485.491 364.194 492.772C362.62 494.217 360.519 497.196 359.964 499.202L358.246 499.16L359.427 499.429C359.9 500.432 358.969 500.488 359.144 501.868L359.038 502.097C355.415 506.793 352.294 511.679 348.535 516.443C341.3 525.481 332.965 533.581 323.725 540.558C322.44 541.525 319.47 543.759 318.11 544.501C305.721 553.318 289.085 559.667 274.15 562.383C227.365 570.894 181.79 546.546 153.489 509.869C153.625 509.594 153.869 509.246 154.134 509.091C153.97 507.815 153.556 507.684 152.646 506.57C153.758 505.207 153.94 504.756 155.611 504.334C152.835 504.148 150.338 504.991 148.468 502.732L148.217 502.194C147.388 500.785 145.238 497.922 144.234 496.481C141.67 492.821 139.147 489.133 136.663 485.418C135.492 483.85 130.218 474.925 129.52 474.568C127.022 471.663 125.3 465.741 122.562 462.807C122.614 462.863 120.153 462.203 119.402 461.739C124.595 462.476 139.286 463.555 144.378 462.954C146.927 463.132 152.55 462.801 155.135 462.635C174.113 461.416 192.937 456.821 210.713 450.154C213.762 449.011 219.311 447.102 222.126 445.484C233.117 440.883 247.562 432.732 257.264 425.926C259.795 424.159 262.281 422.326 264.718 420.431C266.028 419.395 268.483 417.296 269.792 416.454L270.213 416.188C277.482 410.291 284.981 403.452 291.159 396.403C295.591 392.481 305.253 379.691 308.736 374.92C309.15 375.302 309.942 375.742 310.524 375.794C331.662 377.683 355.139 375.029 373.486 363.615C375.111 362.605 376.392 361.61 377.981 360.69L378.25 360.537C376.918 362.496 375.085 363.976 373.914 366.035Z"/><path fill="#0295AF" d="M272.013 477.673C300.5 491.278 326.281 499.361 358.246 499.16L359.427 499.429C359.9 500.432 358.969 500.488 359.144 501.868L359.038 502.097C355.415 506.793 352.294 511.679 348.535 516.443C341.3 525.481 332.965 533.581 323.725 540.558C322.44 541.525 319.47 543.759 318.11 544.501C305.721 553.318 289.085 559.667 274.15 562.383C227.365 570.894 181.79 546.546 153.489 509.869C153.625 509.594 153.869 509.246 154.134 509.091C153.97 507.815 153.556 507.684 152.646 506.57C153.758 505.207 153.94 504.756 155.611 504.334C158.509 504.335 167.697 503.914 170.156 504.33C204.903 502.869 241.364 494.491 272.013 477.673Z"/><defs><linearGradient id="gradient_6" gradientUnits="userSpaceOnUse" x1="257.01401" y1="507.31876" x2="255.38986" y2="479.30905"><stop offset="0" stop-color="#0097BB"/><stop offset="1" stop-color="#00B1C3"/></linearGradient></defs><path fill="url(#gradient_6)" d="M272.013 477.673C300.5 491.278 326.281 499.361 358.246 499.16L359.427 499.429C359.9 500.432 358.969 500.488 359.144 501.868L359.038 502.097C354.269 502.131 347.083 503.218 342.039 502.367C341.824 502.182 341.466 501.846 341.167 501.805C334.454 500.9 327.687 499.8 321.045 498.436C303.825 494.777 287.17 488.835 271.523 480.768C271.434 480.798 271.345 480.829 271.256 480.859C263.309 484.453 255.221 488.51 247.169 491.86C239.917 494.507 232.667 497.852 225.239 499.942C216.712 502.342 207.822 503.684 199.085 505.028C194.545 505.727 190.265 506.603 185.665 506.649C184.658 506.659 183.389 507.189 182.335 507.156C179.168 507.278 175.94 507.109 172.76 507.083C171.255 507.071 170.065 507.581 169.036 507.586C164.058 507.61 159.323 507.608 154.413 506.788L154.156 506.542C155.62 503.168 168.985 505.789 170.156 504.33C204.903 502.869 241.364 494.491 272.013 477.673Z"/><path fill="#447EB1" d="M318.11 544.501C318.124 544.291 318.137 544.082 318.151 543.872C321.289 541.201 332.426 533.994 333.347 530.318L332.523 529.897C332.141 528.698 333.433 526.78 333.509 524.701L332.811 524.165C332.626 522.861 332.638 521.2 332.371 520.028C331.44 515.952 330.735 512.377 330.953 508.162C331.016 506.94 330.419 506.088 330.675 504.569C331.284 503.842 331.463 503.699 331.8 502.786L331.496 502.337C329.701 501.756 326.179 502.278 324.347 501.966C322.615 501.671 321.127 501.386 319.349 501.132C319.254 501.19 340.118 502.294 342.039 502.367C347.083 503.218 354.269 502.131 359.038 502.097C355.415 506.793 352.294 511.679 348.535 516.443C341.3 525.481 332.965 533.581 323.725 540.558C322.44 541.525 319.47 543.759 318.11 544.501Z"/><path fill="#431374" d="M308.736 374.92C309.15 375.302 309.942 375.742 310.524 375.794C331.662 377.683 355.139 375.029 373.486 363.615C375.111 362.605 376.392 361.61 377.981 360.69L378.25 360.537C376.918 362.496 375.085 363.976 373.914 366.035C369.119 370.881 364.321 376.013 359.015 380.355C335.715 399.426 306.81 411.253 277.273 416.373C274.99 416.769 272.623 416.854 270.361 417.264L269.95 416.973C270.119 416.647 270.217 416.563 270.213 416.188C277.482 410.291 284.981 403.452 291.159 396.403C295.591 392.481 305.253 379.691 308.736 374.92Z"/><path fill="#204788" d="M136.663 485.418C140.635 487.178 147.55 498.54 149.747 502.389C148.904 502.674 149.06 502.414 148.468 502.732L148.217 502.194C147.388 500.785 145.238 497.922 144.234 496.481C141.67 492.821 139.147 489.133 136.663 485.418Z"/><path fill="#095E97" d="M243.77 447.311C250.042 446.936 264.978 454.143 271.752 456.354C280.102 459.079 288.182 462.56 297.126 463.432C293.586 464.994 289.232 468.078 285.748 470.15C281.666 472.862 276.506 475.162 272.202 477.56C266.31 474.932 243.758 462.834 240.983 458.338C239.859 456.516 239.546 454.395 240.04 452.317C240.569 450.094 241.835 448.474 243.77 447.311Z"/><path fill="#BB217D" d="M215.206 102.75C217.216 100.157 228.21 94.7845 231.283 92.6758C234.206 90.6697 238.88 89.0225 241.452 86.4923C242.123 86.6926 242.666 86.9042 243.366 86.9177C246.266 88.781 249.24 90.4059 252.108 92.3031C265.34 101.057 274.833 108.727 285.331 120.52C285.776 121.224 286.276 122.069 286.76 122.732L286.731 123.108C285.154 123.864 279.378 126.723 277.903 126.685L277.881 126.838C267.076 131.99 255.427 140.438 245.579 147.457C235.31 153.613 207.41 183.323 201.772 193.908C203.611 192.697 203.599 190.694 205.632 191.199C216.185 193.817 226.919 196.081 237.318 199.239C236.501 200.43 235.732 199.86 235.878 200.67L236.514 200.752C210.881 220.41 188.458 247.237 176.286 277.285C174.281 282.236 171.839 288.514 170.628 293.681C172.435 297.395 174.201 298.984 176.263 302.063L176.532 302.302C177.382 303.07 178.587 304.531 179.362 305.444C184.452 311.439 189.76 316.913 195.652 322.161C210.305 335.205 226.639 346.229 244.219 354.937C248.033 356.824 251.989 358.402 255.891 360.075C257.111 360.598 259.979 361.671 260.954 362.201C264.259 363.402 268.877 365.185 272.271 366.05C268.901 369.261 263.386 372.53 259.585 375.42C259.05 375.826 256.205 377.728 255.958 378.023C249.902 381.604 244.027 385.39 237.779 388.665C236.59 389.288 235.067 390.09 233.985 390.823C231.2 392.161 217.507 399.169 215.579 399.373C210.939 402.017 191.818 408.871 186.739 410.259L185.011 410.72C184.402 410.24 184.016 409.835 183.477 409.29C184.764 409.267 186.931 409.535 188.261 409.671C185.886 407.815 178.688 404.455 177.667 403.28L177.812 402.746C176.054 400.55 171.307 391.767 170.415 389.17C163.5 375.31 160.316 354.912 159.591 339.658C159.446 336.625 159.18 330.869 159.403 327.932C158.12 326.794 156.288 325.547 154.886 324.516C140.331 313.813 127.86 301.014 116.557 286.918C116.416 286.581 115.962 286.073 115.726 285.534C115.866 284.88 115.319 278.553 115.347 277.081C115.405 269.567 115.583 261.734 116.262 254.289C117.656 239.009 121.155 224.653 126.419 210.288C127.138 208.326 127.193 205.587 127.707 203.48C130.753 197.857 133.371 191.441 136.605 185.42C144.531 170.638 154.226 156.875 165.479 144.437C167.536 142.159 170.842 138.394 173.097 136.445C174.515 134.795 176.356 133.046 177.951 131.555C183.672 126.21 189.514 120.993 195.665 116.144C201.228 111.758 207.132 107.792 212.688 103.404C212.787 103.14 212.886 102.876 212.985 102.613C213.954 102.495 214.305 102.365 215.206 102.75Z"/><path fill="#512785" d="M159.403 327.932C160.529 328.966 169.419 335.253 170.533 335.614C171.902 337.238 178.733 340.924 181.118 342.253C195.364 350.191 211.054 358.122 226.667 362.98C238.362 366.618 250.529 369.815 262.568 371.81C263.922 372.003 269.704 367.615 270.882 366.532C268.587 365.59 261.961 363.855 260.954 362.201C264.259 363.402 268.877 365.185 272.271 366.05C268.901 369.261 263.386 372.53 259.585 375.42C259.05 375.826 256.205 377.728 255.958 378.023C249.902 381.604 244.027 385.39 237.779 388.665C236.59 389.288 235.067 390.09 233.985 390.823C231.2 392.161 217.507 399.169 215.579 399.373C210.939 402.017 191.818 408.871 186.739 410.259L185.011 410.72C184.402 410.24 184.016 409.835 183.477 409.29C184.764 409.267 186.931 409.535 188.261 409.671C185.886 407.815 178.688 404.455 177.667 403.28L177.812 402.746C176.054 400.55 171.307 391.767 170.415 389.17C163.5 375.31 160.316 354.912 159.591 339.658C159.446 336.625 159.18 330.869 159.403 327.932Z"/><path fill="#1E2D80" d="M170.415 389.17C172.031 390.188 175.477 398.467 177.413 401.181C181.083 406.323 184.003 405.807 186.896 408.2C189.675 406.587 192.618 405.089 195.941 405.899C199.747 406.828 212.083 398.892 215.579 399.373C210.939 402.017 191.818 408.871 186.739 410.259L185.011 410.72C184.402 410.24 184.016 409.835 183.477 409.29C184.764 409.267 186.931 409.535 188.261 409.671C185.886 407.815 178.688 404.455 177.667 403.28L177.812 402.746C176.054 400.55 171.307 391.767 170.415 389.17Z"/><path fill="#952D8E" d="M170.533 335.614L170.937 335.526C169.838 334.21 159.955 328.126 160.211 327.257C162.926 318.042 163.448 308.277 166.125 298.959C166.583 297.367 167.241 297.018 167.431 295.239L167.123 294.89C166.768 295.997 166.128 296.892 165.767 297.934C163.413 304.737 162.898 312.033 161.247 319.014C160.799 320.908 161.118 322.641 160.078 324.567L159.671 324.675C158.417 321.701 161.497 298.169 162.207 293.32C162.405 291.965 163.16 287.709 163.13 286.753L163.118 286.458L163.382 286.204C164.2 286.687 174.641 300.718 175.795 302.468L176.263 302.063L176.532 302.302C177.382 303.07 178.587 304.531 179.362 305.444C184.452 311.439 189.76 316.913 195.652 322.161C210.305 335.205 226.639 346.229 244.219 354.937C248.033 356.824 251.989 358.402 255.891 360.075C257.111 360.598 259.979 361.671 260.954 362.201C261.961 363.855 268.587 365.59 270.882 366.532C269.704 367.615 263.922 372.003 262.568 371.81C250.529 369.815 238.362 366.618 226.667 362.98C211.054 358.122 195.364 350.191 181.118 342.253C178.733 340.924 171.902 337.238 170.533 335.614Z"/><path fill="#952D8E" d="M235.027 150.153C236.29 149.849 237.91 149.537 239.19 149.622C236.429 152.281 233.49 154.656 230.685 157.266C226.121 161.525 221.769 166.006 217.645 170.692C214.138 174.691 210.75 178.793 207.488 182.994C206.04 184.864 203.608 188.333 202.175 189.955C200.505 189.216 196.461 189.048 194.517 188.978C175.62 188.3 155.556 189.311 138.157 197.403C136.505 198.171 135.344 198.766 134.008 200.016L133.707 200.303L133.239 200.103C133.008 199.038 134.599 196.691 135.396 195.888C159.409 171.677 191.908 157.336 225.255 151.697C228.335 151.176 231.751 150.974 234.538 150.279L235.027 150.153Z"/><path fill="#EF64AB" d="M215.206 102.75C217.216 100.157 228.21 94.7845 231.283 92.6758C234.206 90.6697 238.88 89.0225 241.452 86.4923C242.123 86.6926 242.666 86.9042 243.366 86.9177C246.266 88.781 249.24 90.4059 252.108 92.3031C265.34 101.057 274.833 108.727 285.331 120.52C285.776 121.224 286.276 122.069 286.76 122.732L286.731 123.108C285.154 123.864 279.378 126.723 277.903 126.685C277.074 125.81 276.491 125.656 275.398 125.178C273.839 124.474 272.211 123.608 270.683 122.813C258.805 116.633 246.208 111.448 233.386 107.583C227.432 105.788 221.219 104.422 215.206 102.75Z"/><path fill="#F0386D" d="M212.985 102.613C213.954 102.495 214.305 102.365 215.206 102.75C221.219 104.422 227.432 105.788 233.386 107.583C246.208 111.448 258.805 116.633 270.683 122.813C272.211 123.608 273.839 124.474 275.398 125.178C274.106 126.036 272.647 126.137 271.172 126.966C265.964 129.939 260.905 133.164 256.011 136.628C251.156 140.038 246.422 143.382 241.972 147.312C241.279 147.925 239.94 149.177 239.19 149.622C237.91 149.537 236.29 149.849 235.027 150.153C234.426 150.101 233.825 150.043 233.224 149.977C233.802 149.44 238.448 149.53 239.307 148.766C246.261 142.518 253.692 137.508 261.441 132.298C265.384 129.646 269.692 127.432 273.595 124.9L273.43 124.554C270.999 124.033 262.791 118.919 259.613 118.034C258.83 117.816 258.472 117.633 257.749 117.27L257.489 117.137L257.204 117.386C257.03 118.424 258.321 121.711 259.314 122.324C258.573 129.48 250.463 128.968 245.109 129.468C242.725 129.69 239.657 130.672 237.183 130.853C236.03 130.937 234.233 129.348 232.977 129.65C229.965 129.754 227.973 128.594 225.103 127.423C221.481 125.945 212.991 123.1 211.682 118.847C210.717 115.711 209.326 115.569 208.551 112.784C208.238 111.661 209.569 110.589 209.95 109.648L209.28 109.822C208.693 109.436 208.613 108.88 208.357 108.177L208.236 107.838C205.428 108.713 183.365 127.196 180.268 130.229C179.061 131.411 175.121 135.806 173.707 136.663L173.097 136.445C174.515 134.795 176.356 133.046 177.951 131.555C183.672 126.21 189.514 120.993 195.665 116.144C201.228 111.758 207.132 107.792 212.688 103.404C212.787 103.14 212.886 102.876 212.985 102.613Z"/><path fill="#DB49A6" d="M275.398 125.178C276.491 125.656 277.074 125.81 277.903 126.685L277.881 126.838C267.076 131.99 255.427 140.438 245.579 147.457C235.31 153.613 207.41 183.323 201.772 193.908C200.065 195.358 195.234 204.047 193.814 204.923L193.736 204.645C196.924 200.645 199.024 195.603 202.656 191.839C203.002 191.481 202.982 190.492 202.963 190.014C201.115 190.921 193.356 204.868 192.059 205.71C192.447 204.085 200.632 191.72 202.175 189.955C203.608 188.333 206.04 184.864 207.488 182.994C210.75 178.793 214.138 174.691 217.645 170.692C221.769 166.006 226.121 161.525 230.685 157.266C233.49 154.656 236.429 152.281 239.19 149.622C239.94 149.177 241.279 147.925 241.972 147.312C246.422 143.382 251.156 140.038 256.011 136.628C260.905 133.164 265.964 129.939 271.172 126.966C272.647 126.137 274.106 126.036 275.398 125.178Z"/><path fill="#B10A4F" d="M137.066 66.4624C141.038 65.5943 145.671 65.3967 150.082 64.4062C149.717 65.2608 149.395 66.0259 148.973 66.8534L148.808 66.7556C140.987 81.037 134.315 92.6041 130.007 108.854L130.189 109.383L130.66 109.576L130.551 109.701C128.43 113.937 127.151 120.569 126.137 125.259C125.84 126.632 125.378 129.578 124.972 130.787C124.281 136.194 123.508 141.006 123.055 146.516C121.807 162.281 122.518 178.14 125.172 193.73C125.563 196.012 126.352 201.896 127.707 203.48C127.193 205.587 127.138 208.326 126.419 210.288C121.155 224.653 117.656 239.009 116.262 254.289C115.583 261.734 115.405 269.567 115.347 277.081C115.319 278.553 115.866 284.88 115.726 285.534C112.762 282.187 110.343 278.495 107.858 274.833C100.287 263.682 94.4025 252.623 89.5645 240.064C88.3176 236.828 84.68 224.858 83.5871 223.368L83.846 222.053C83.0275 219.24 82.8085 216.084 81.9669 213.201C77.793 215.423 70.6139 221.842 66.6602 224.908C65.2748 225.982 63.1538 228.136 61.7668 229.024L61.6448 229.302C60.8842 230.104 59.8018 231.171 59.1558 232.021C53.6774 237.286 48.5202 242.875 43.712 248.759C41.307 248.985 29.0148 268.768 27.0713 271.772C25.5649 274.1 23.7507 278.79 21.9241 280.775C20.2831 279.397 18.8019 271.795 16.4542 270.561C15.9271 269.702 14.0515 265.045 13.6042 263.922C7.82465 249.142 4.08321 233.644 2.48285 217.856C0.0553 192.591 3.60667 168.398 14.7592 145.514C16.0722 142.82 19.5536 135.934 21.3622 133.734C22.6386 131.392 25.2629 127.772 26.8385 125.611C37.645 110.904 51.4179 98.6286 67.2669 89.5774C69.7459 88.1363 73.4415 85.7394 76.065 84.8051C80.3205 82.3086 90.0503 78.4595 94.9848 76.7703C104.971 72.9304 126.502 67.6192 137.066 66.4624Z"/><path fill="#BB217D" d="M21.3622 133.734L21.8685 133.888C24.5575 129.914 28.2024 123.191 32.7523 121.477C34.256 120.911 36.643 124.114 38.109 124.776C44.9373 127.858 52.9933 131.657 60.1262 133.812C60.5087 134.999 57.7173 142.836 57.1393 144.837C50.0386 169.415 51.0064 196.545 56.7788 221.305C57.0803 222.575 59.2691 229.464 59.9741 229.882C61.2834 228.924 60.5729 228.754 61.2814 227.555L61.7668 229.024L61.6448 229.302C60.8842 230.104 59.8018 231.171 59.1558 232.021C53.6774 237.286 48.5202 242.875 43.712 248.759C41.307 248.985 29.0148 268.768 27.0713 271.772C25.5649 274.1 23.7507 278.79 21.9241 280.775C20.2831 279.397 18.8019 271.795 16.4542 270.561C15.9271 269.702 14.0515 265.045 13.6042 263.922C7.82465 249.142 4.08321 233.644 2.48285 217.856C0.0553 192.591 3.60667 168.398 14.7592 145.514C16.0722 142.82 19.5536 135.934 21.3622 133.734Z"/><defs><linearGradient id="gradient_7" gradientUnits="userSpaceOnUse" x1="85.705727" y1="148.30661" x2="151.71727" y2="263.27896"><stop offset="0" stop-color="#950C58"/><stop offset="1" stop-color="#FF3F79"/></linearGradient></defs><path fill="url(#gradient_7)" d="M87.8328 147.556C87.8477 148.106 87.8711 148.655 87.9029 149.203L88.3642 149.32L88.5143 149.08L87.8575 148.904L88.5682 148.998C89.7777 146.951 94.0637 145.641 96.3043 144.315C100.473 141.85 103.812 138.693 107.693 135.868C108.578 135.224 111.185 134.709 112.141 134.08C112.775 133.663 113.65 132.256 114.48 132.106C116.764 131.691 119.46 132.911 121.739 132.24C123.345 131.768 123.786 129.898 124.572 128.4L124.874 128.334L124.972 130.787C124.281 136.194 123.508 141.006 123.055 146.516C121.807 162.281 122.518 178.14 125.172 193.73C125.563 196.012 126.352 201.896 127.707 203.48C127.193 205.587 127.138 208.326 126.419 210.288C121.155 224.653 117.656 239.009 116.262 254.289C115.583 261.734 115.405 269.567 115.347 277.081C115.319 278.553 115.866 284.88 115.726 285.534C112.762 282.187 110.343 278.495 107.858 274.833C100.287 263.682 94.4025 252.623 89.5645 240.064C88.3176 236.828 84.68 224.858 83.5871 223.368L83.846 222.053C83.0275 219.24 82.8085 216.084 81.9669 213.201L81.9703 212.936C81.6003 212.228 81.1967 210.76 81.0091 209.974C77.8198 196.618 75.6304 181.1 79.227 167.676C79.7892 165.578 80.1741 162.813 81.2331 160.984C82.0163 158.083 83.6912 153.007 85.4149 150.675C85.7285 150.783 85.8824 150.597 86.3607 150.392C86.787 149.458 87.3443 148.47 87.8328 147.556Z"/><path fill="#D02398" d="M81.9703 212.936C83.413 212.148 84.8495 211.349 86.2795 210.539C85.7657 214.399 85.5485 218.625 83.846 222.053C83.0275 219.24 82.8085 216.084 81.9669 213.201L81.9703 212.936Z"/><path fill="#BB217D" d="M81.2331 160.984C82.0163 158.083 83.6912 153.007 85.4149 150.675C85.7285 150.783 85.8824 150.597 86.3607 150.392C84.4852 154.875 83.044 157.891 81.8666 162.623C81.2371 162.07 81.6285 161.823 81.2331 160.984Z"/><path fill="#F0386D" d="M137.066 66.4624C141.038 65.5943 145.671 65.3967 150.082 64.4062C149.717 65.2608 149.395 66.0259 148.973 66.8534L148.808 66.7556C146.185 65.924 137.397 69.1697 135.814 68.8376C129.433 70.5571 116.832 76.4844 110.921 79.9415C94.8448 89.5258 81.4466 103.009 71.9657 119.144C57.6662 143.906 52.8814 173.418 56.3477 201.637C57.5446 211.381 59.3997 218.194 61.2814 227.555C60.5729 228.754 61.2834 228.924 59.9741 229.882C59.2691 229.464 57.0803 222.575 56.7788 221.305C51.0064 196.545 50.0386 169.415 57.1393 144.837C57.7173 142.836 60.5087 134.999 60.1262 133.812C52.9933 131.657 44.9373 127.858 38.109 124.776C36.643 124.114 34.256 120.911 32.7523 121.477C28.2024 123.191 24.5575 129.914 21.8685 133.888L21.3622 133.734C22.6386 131.392 25.2629 127.772 26.8385 125.611C37.645 110.904 51.4179 98.6286 67.2669 89.5774C69.7459 88.1363 73.4415 85.7394 76.065 84.8051C80.3205 82.3086 90.0503 78.4595 94.9848 76.7703C104.971 72.9304 126.502 67.6192 137.066 66.4624Z"/><path fill="#F33A64" d="M94.9848 76.7703L95.502 76.9232C94.8525 78.0664 84.5552 80.9019 82.9962 82.843C82.5095 83.449 83.7408 83.4365 82.479 84.0134L82.1313 83.8829C81.3652 83.6005 80.9 83.3065 80.1466 83.5039L80.2064 84.129L81.0649 84.5624L80.7093 84.9388C80.0098 84.6177 79.9909 84.5907 79.3835 84.1088C78.0173 84.4819 77.9437 85.2434 76.065 84.8051C80.3205 82.3086 90.0503 78.4595 94.9848 76.7703Z"/><path fill="#F33A64" d="M137.066 66.4624C141.038 65.5943 145.671 65.3967 150.082 64.4062C149.717 65.2608 149.395 66.0259 148.973 66.8534L148.808 66.7556C146.185 65.924 137.397 69.1697 135.814 68.8376C137.066 67.9261 142.157 66.9146 143.946 66.4971C141.564 66.5342 140.011 66.8226 137.513 66.5187L137.066 66.4624Z"/><path fill="#F33A64" d="M66.6856 98.7701C67.4261 98.587 67.7509 98.641 68.4984 98.6739L68.7386 99.06C67.759 104.073 66.1935 107.837 63.1509 111.919C62.7792 110.841 62.6675 109.827 61.601 109.398C60.1842 109.873 60.579 111.591 57.9036 112.987L56.838 112.158C56.2373 109.605 56.8326 106.543 58.5756 104.445C59.5256 103.301 60.4 103.795 61.5932 103.714C63.1647 103.606 62.6101 106.235 64.4751 106.104C65.8128 105.085 64.3411 102.437 64.9218 99.4765C65.5796 98.707 65.3706 98.9525 66.6856 98.7701Z"/><path fill="#F33A64" d="M77.2769 89.3001C77.9272 89.7855 79.0945 89.9717 79.9225 90.1726C81.4315 93.2199 71.0835 99.3158 70.1268 103.689L69.9104 104.067L69.591 104.046C69.6524 101.189 70.0962 98.417 70.4318 95.5879C70.6994 93.3326 71.8053 93.1484 72.9441 91.2578L73.1275 90.9479C74.7458 89.8009 75.3033 89.5547 77.2769 89.3001Z"/><path fill="#BB217D" d="M87.8328 147.556L87.9479 147.32C95.1719 132.768 115.17 114.978 130.551 109.701C128.43 113.937 127.151 120.569 126.137 125.259C125.84 126.632 125.378 129.578 124.972 130.787L124.874 128.334L124.572 128.4C123.786 129.898 123.345 131.768 121.739 132.24C119.46 132.911 116.764 131.691 114.48 132.106C113.65 132.256 112.775 133.663 112.141 134.08C111.185 134.709 108.578 135.224 107.693 135.868C103.812 138.693 100.473 141.85 96.3043 144.315C94.0637 145.641 89.7777 146.951 88.5682 148.998L87.8575 148.904L88.5143 149.08L88.3642 149.32L87.9029 149.203C87.8711 148.655 87.8477 148.106 87.8328 147.556Z"/><path fill="#0295AF" d="M233.985 390.823C235.067 390.09 236.59 389.288 237.779 388.665C244.027 385.39 249.902 381.604 255.958 378.023C255.771 378.536 255.64 378.822 255.314 379.26C255.304 380.248 255.142 379.839 255.765 380.55C256.843 380.785 258.572 380.02 259.685 379.618C266.858 381.581 266.771 383.683 272.641 386.602C276.52 388.531 284.766 386.719 288.181 391.556C290.276 390.754 293.176 387.607 294.493 387.476C294.572 388.115 294.482 388.173 294.267 388.798C295.229 388.584 295.583 388.911 296.621 389.489C295.243 391.001 291.543 394.658 291.159 396.403C284.981 403.452 277.482 410.291 270.213 416.188L269.792 416.454C268.483 417.296 266.028 419.395 264.718 420.431C262.281 422.326 259.795 424.159 257.264 425.926C247.562 432.732 233.117 440.883 222.126 445.484C219.311 447.102 213.762 449.011 210.713 450.154C192.937 456.821 174.113 461.416 155.135 462.635C152.55 462.801 146.927 463.132 144.378 462.954C139.286 463.555 124.595 462.476 119.402 461.739C95.2113 458.179 80.5039 452.336 59.72 440.172C59.1038 439.509 54.3472 436.503 53.2349 435.721C51.3016 434.362 50.4129 433.586 48.5952 431.928L48.4889 431.562L48.3389 431.65L48.2204 431.487C49.3509 431.94 51.3649 433.954 52.4758 434.713C55.5226 436.794 65.1954 443.364 68.2935 444.264C69.3943 442.973 70.114 441.281 70.9484 439.758L71.6319 440.098L72.7487 439.115C72.311 437.902 72.6762 437.794 73.378 436.72C77.2636 430.799 76.5283 423.397 80.2278 417.418C80.809 416.479 83.1412 417.045 82.9135 414.103C80.3424 413.708 73.6395 411.263 71.0115 410.198C61.5679 406.374 51.663 401.437 43.7158 395.008C42.3882 393.935 40.043 393.135 39.3416 391.57C41.5406 392.235 46.6771 397.691 49.916 398.839C50.9758 398.912 60.6407 404.411 62.334 405.255C70.0537 409.058 78.1211 412.112 86.425 414.373C86.47 413.775 86.46 413.817 86.801 413.323C90.0384 411.467 97.399 412.007 101.219 409.535C101.825 409.142 103.46 409.476 104.291 408.524L103.94 408.112C100.006 407.15 96.1357 405.189 92.5266 403.379C86.8001 400.507 69.3528 389.606 67.4705 383.649C67.4465 383.573 67.4254 383.497 67.4028 383.42C71.7943 387.969 76.724 392.689 82.0688 396.308C109.502 414.887 145.662 417.815 177.398 410.919C178.629 410.652 181.572 410.295 182.473 409.69L182.445 409.141C183.268 409.07 182.991 408.929 183.477 409.29C184.016 409.835 184.402 410.24 185.011 410.72L186.739 410.259C191.818 408.871 210.939 402.017 215.579 399.373C217.507 399.169 231.2 392.161 233.985 390.823Z"/><defs><linearGradient id="gradient_8" gradientUnits="userSpaceOnUse" x1="71.532196" y1="429.90472" x2="122.34457" y2="441.16315"><stop offset="0" stop-color="#8658AF"/><stop offset="1" stop-color="#3980B6"/></linearGradient></defs><path fill="url(#gradient_8)" d="M67.4028 383.42C71.7943 387.969 76.724 392.689 82.0688 396.308C109.502 414.887 145.662 417.815 177.398 410.919C178.629 410.652 181.572 410.295 182.473 409.69L182.445 409.141C183.268 409.07 182.991 408.929 183.477 409.29C184.016 409.835 184.402 410.24 185.011 410.72C179.555 412.133 174.262 414.057 168.666 415.048C167.522 415.251 165.905 415.598 164.833 415.959C161.928 419.29 129.7 420.533 123.565 420.677C121.856 420.717 119.477 427.05 119.213 428.567C119.003 429.775 118.999 431.481 119.099 432.723C119.843 439.235 118.975 444.407 118.154 450.811C117.858 453.115 117.031 455.432 116.982 457.759C118.958 458.176 123.502 458.703 125.499 458.611C125.689 458.234 125.834 457.848 126.01 457.472C126.631 456.14 128.504 455.591 129.01 454.172C130.618 449.664 130.325 444.877 130.913 440.222C131.232 437.7 133.55 424.579 134.527 423.163C135.214 422.166 136.649 421.761 137.763 421.454C139.105 421.083 140.562 420.777 141.958 420.851L141.895 421.103L142.033 420.914C139.432 422.673 134.911 421.581 134.2 425.244C133.838 427.112 133.529 428.993 133.183 430.864C131.657 436.908 131.128 442.727 130.779 448.914C130.671 450.827 129.399 452.482 129.383 454.878C128.114 455.973 126.31 457.155 126.167 458.738C128.919 459.84 137.691 460.247 141.695 461.27L141.326 461.277C138.543 461.309 135.021 460.843 132.245 460.5C128.028 459.978 123.672 459.896 119.575 458.866C118.954 458.71 117.816 460.086 117.572 460.597L117.702 460.966C119.883 460.935 121.856 461.701 124.102 461.857C130.721 462.317 137.827 462.097 144.378 462.954C139.286 463.555 124.595 462.476 119.402 461.739C95.2113 458.179 80.5039 452.336 59.72 440.172C59.1038 439.509 54.3472 436.503 53.2349 435.721C51.3016 434.362 50.4129 433.586 48.5952 431.928L48.4889 431.562L48.3389 431.65L48.2204 431.487C49.3509 431.94 51.3649 433.954 52.4758 434.713C55.5226 436.794 65.1954 443.364 68.2935 444.264C69.3943 442.973 70.114 441.281 70.9484 439.758L71.6319 440.098L72.7487 439.115C72.311 437.902 72.6762 437.794 73.378 436.72C77.2636 430.799 76.5283 423.397 80.2278 417.418C80.809 416.479 83.1412 417.045 82.9135 414.103C80.3424 413.708 73.6395 411.263 71.0115 410.198C61.5679 406.374 51.663 401.437 43.7158 395.008C42.3882 393.935 40.043 393.135 39.3416 391.57C41.5406 392.235 46.6771 397.691 49.916 398.839C50.9758 398.912 60.6407 404.411 62.334 405.255C70.0537 409.058 78.1211 412.112 86.425 414.373C86.47 413.775 86.46 413.817 86.801 413.323C90.0384 411.467 97.399 412.007 101.219 409.535C101.825 409.142 103.46 409.476 104.291 408.524L103.94 408.112C100.006 407.15 96.1357 405.189 92.5266 403.379C86.8001 400.507 69.3528 389.606 67.4705 383.649C67.4465 383.573 67.4254 383.497 67.4028 383.42Z"/><path fill="#512785" d="M67.4028 383.42C71.7943 387.969 76.724 392.689 82.0688 396.308C109.502 414.887 145.662 417.815 177.398 410.919C178.629 410.652 181.572 410.295 182.473 409.69L182.445 409.141C183.268 409.07 182.991 408.929 183.477 409.29C184.016 409.835 184.402 410.24 185.011 410.72C179.555 412.133 174.262 414.057 168.666 415.048C167.522 415.251 165.905 415.598 164.833 415.959C124.521 423.105 85.4372 421.355 49.916 398.839C50.9758 398.912 60.6407 404.411 62.334 405.255C70.0537 409.058 78.1211 412.112 86.425 414.373C86.47 413.775 86.46 413.817 86.801 413.323C90.0384 411.467 97.399 412.007 101.219 409.535C101.825 409.142 103.46 409.476 104.291 408.524L103.94 408.112C100.006 407.15 96.1357 405.189 92.5266 403.379C86.8001 400.507 69.3528 389.606 67.4705 383.649C67.4465 383.573 67.4254 383.497 67.4028 383.42Z"/><path fill="#048ABA" d="M233.985 390.823C235.067 390.09 236.59 389.288 237.779 388.665C244.027 385.39 249.902 381.604 255.958 378.023C255.771 378.536 255.64 378.822 255.314 379.26C255.304 380.248 255.142 379.839 255.765 380.55C256.843 380.785 258.572 380.02 259.685 379.618C266.858 381.581 266.771 383.683 272.641 386.602C276.52 388.531 284.766 386.719 288.181 391.556C290.276 390.754 293.176 387.607 294.493 387.476C294.572 388.115 294.482 388.173 294.267 388.798C293.28 390.335 292.073 391.719 290.683 392.904C288.993 395.281 287.081 398.357 285.16 400.404C284.376 401.24 281.555 402.343 280.291 403.345C276.436 406.403 265.354 417.131 261.408 418.408C256.423 418.187 251.609 418.378 246.603 418.376C238.646 418.379 230.696 417.911 222.794 416.974C213.346 415.797 204.021 413.556 194.649 411.961C192.154 411.537 188.681 410.234 186.739 410.259C191.818 408.871 210.939 402.017 215.579 399.373C217.507 399.169 231.2 392.161 233.985 390.823Z"/><path fill="#447EB1" d="M233.985 390.823C235.067 390.09 236.59 389.288 237.779 388.665C244.027 385.39 249.902 381.604 255.958 378.023C255.771 378.536 255.64 378.822 255.314 379.26C255.304 380.248 255.142 379.839 255.765 380.55C256.843 380.785 258.572 380.02 259.685 379.618C266.858 381.581 266.771 383.683 272.641 386.602C276.52 388.531 284.766 386.719 288.181 391.556C290.276 390.754 293.176 387.607 294.493 387.476C294.572 388.115 294.482 388.173 294.267 388.798C293.28 390.335 292.073 391.719 290.683 392.904C290.991 391.992 291.925 390.452 292.423 389.581L292.21 389.897L291.879 389.659L292.01 390.296L291.62 389.893C290.605 390.811 287.502 393.582 286.201 393.885C284.614 394.256 282.031 391.464 281.198 391.155C278.046 389.984 274.167 389.823 270.837 388.629C267.134 387.3 262.19 385.032 258.657 383.951C252.972 382.213 243.815 388.262 237.662 389.981L238.675 389.408C236.921 389.777 235.569 390.78 233.985 390.823Z"/><path fill="#09A2CF" d="M294.267 388.798C295.229 388.584 295.583 388.911 296.621 389.489C295.243 391.001 291.543 394.658 291.159 396.403C284.981 403.452 277.482 410.291 270.213 416.188L269.792 416.454C268.483 417.296 266.028 419.395 264.718 420.431C262.281 422.326 259.795 424.159 257.264 425.926C247.562 432.732 233.117 440.883 222.126 445.484L221.74 445.21C221.921 444.954 237.571 437.426 239.287 436.328C246.642 431.624 257.901 425.927 264.151 420.02C263.697 419.647 263.24 419.278 262.781 418.912C261.58 419.032 260.733 419.589 259.642 420.144C260.293 419.395 260.658 419.069 261.408 418.408C265.354 417.131 276.436 406.403 280.291 403.345C281.555 402.343 284.376 401.24 285.16 400.404C287.081 398.357 288.993 395.281 290.683 392.904C292.073 391.719 293.28 390.335 294.267 388.798Z"/><path fill="#204788" d="M59.72 440.172C80.5039 452.336 95.2113 458.179 119.402 461.739C120.153 462.203 122.614 462.863 122.562 462.807C125.3 465.741 127.022 471.663 129.52 474.568C130.218 474.925 135.492 483.85 136.663 485.418C139.147 489.133 141.67 492.821 144.234 496.481C145.238 497.922 147.388 500.785 148.217 502.194L148.468 502.732C150.338 504.991 152.835 504.148 155.611 504.334C153.94 504.756 153.758 505.207 152.646 506.57C153.556 507.684 153.97 507.815 154.134 509.091C153.869 509.246 153.625 509.594 153.489 509.869L149.253 505.137C141.138 504.082 132.178 503.689 124.328 501.514C122.592 501.497 112.641 498.913 110.644 498.245C106.469 496.85 100.803 495.384 96.6758 493.868C83.7501 489.121 71.0855 482.481 59.742 474.695C57.6442 473.255 53.7586 470.543 52.0809 468.91L52.3339 468.656C52.7959 468.739 60.2705 474.414 62.3222 475.371C61.9048 474.711 61.0395 474.402 60.574 473.925C57.9626 471.247 51.3135 467.752 49.4495 464.906C47.7974 463.37 44.1276 460.62 43.0032 459.276L41.0889 456.999C42.0328 457.801 46.1325 461.484 46.9589 461.703C47.9259 461.324 48.0137 461.163 48.7309 460.364L49.0361 460.02C50.1847 458.747 50.775 457.567 51.3399 456.937C53.5901 454.431 57.924 452.312 60.5255 449.859C61.5558 448.887 62.7713 447.07 63.622 447.103C64.7259 447.145 65.4828 446.185 66.1679 445.196C65.5858 443.073 60.5693 442.005 59.72 440.172Z"/><path fill="#095E97" d="M49.4495 464.906C53.5457 467.573 59.1863 472.186 62.8514 474.676C69.0987 478.92 90.3132 490.46 97.1479 492.02L96.1174 491.318L96.1277 491.084C97.1383 491.329 98.7356 492.188 99.3705 492.214C99.0406 490.117 101.41 487.812 102.935 486.516C104.38 485.288 106.747 484.362 108.418 483.353C110.889 481.862 113.375 480.363 115.779 478.759C118.176 477.158 120.245 472.557 123.596 472.825C124.874 472.927 126.099 472.97 127.383 472.999C127.992 473.675 128.636 474.536 129.437 474.9L129.52 474.568C130.218 474.925 135.492 483.85 136.663 485.418C139.147 489.133 141.67 492.821 144.234 496.481C145.238 497.922 147.388 500.785 148.217 502.194L148.468 502.732C150.338 504.991 152.835 504.148 155.611 504.334C153.94 504.756 153.758 505.207 152.646 506.57C153.556 507.684 153.97 507.815 154.134 509.091C153.869 509.246 153.625 509.594 153.489 509.869L149.253 505.137C141.138 504.082 132.178 503.689 124.328 501.514C122.592 501.497 112.641 498.913 110.644 498.245C106.469 496.85 100.803 495.384 96.6758 493.868C83.7501 489.121 71.0855 482.481 59.742 474.695C57.6442 473.255 53.7586 470.543 52.0809 468.91L52.3339 468.656C52.7959 468.739 60.2705 474.414 62.3222 475.371C61.9048 474.711 61.0395 474.402 60.574 473.925C57.9626 471.247 51.3135 467.752 49.4495 464.906Z"/><path fill="#447EB1" d="M49.4495 464.906C53.5457 467.573 59.1863 472.186 62.8514 474.676C69.0987 478.92 90.3132 490.46 97.1479 492.02C106.536 495.025 117.774 498.448 127.388 500.394C131.425 501.125 144.861 504.509 147.802 502.501C148.09 502.304 148.001 502.371 148.217 502.194L148.468 502.732C150.338 504.991 152.835 504.148 155.611 504.334C153.94 504.756 153.758 505.207 152.646 506.57C153.556 507.684 153.97 507.815 154.134 509.091C153.869 509.246 153.625 509.594 153.489 509.869L149.253 505.137C141.138 504.082 132.178 503.689 124.328 501.514C122.592 501.497 112.641 498.913 110.644 498.245C106.469 496.85 100.803 495.384 96.6758 493.868C83.7501 489.121 71.0855 482.481 59.742 474.695C57.6442 473.255 53.7586 470.543 52.0809 468.91L52.3339 468.656C52.7959 468.739 60.2705 474.414 62.3222 475.371C61.9048 474.711 61.0395 474.402 60.574 473.925C57.9626 471.247 51.3135 467.752 49.4495 464.906Z"/><path fill="#048ABA" d="M127.388 500.394C131.425 501.125 144.861 504.509 147.802 502.501C148.09 502.304 148.001 502.371 148.217 502.194L148.468 502.732C150.338 504.991 152.835 504.148 155.611 504.334C153.94 504.756 153.758 505.207 152.646 506.57C153.556 507.684 153.97 507.815 154.134 509.091C153.869 509.246 153.625 509.594 153.489 509.869L149.253 505.137C141.138 504.082 132.178 503.689 124.328 501.514C124.594 501.394 125.108 501.154 125.412 501.194C130.885 501.927 136.214 503.791 141.802 503.474C139.51 502.409 129.657 502.483 127.388 500.394Z"/><path fill="#431374" d="M143.347 369.108C139.85 363.405 136.151 357.166 133.209 351.177C124.923 333.888 119.421 315.398 116.908 296.392C116.657 294.448 115.994 288.573 116.557 286.918C127.86 301.014 140.331 313.813 154.886 324.516C156.288 325.547 158.12 326.794 159.403 327.932C159.18 330.869 159.446 336.625 159.591 339.658C160.316 354.912 163.5 375.31 170.415 389.17C171.307 391.767 176.054 400.55 177.812 402.746L177.667 403.28C165.038 396.852 151.39 380.497 143.347 369.108Z"/><path fill="#6C6DAD" d="M61.6448 229.302C63.2382 231.008 67.6659 246.576 69.5084 249.729C69.2211 250.929 68.8715 251.399 68.2637 252.444C65.3915 259.697 60.8201 267.258 58.2945 274.885C57.8561 276.209 56.4604 279.423 56.1916 280.613L56.0551 280.477C55.6391 279.09 60.492 269.769 60.5047 267.34C60.3863 267.656 60.4892 267.475 60.0717 267.789C59.4462 267.379 59.6039 267.488 59.2362 266.771L59.1378 266.575C57.9662 267.256 53.5338 267.218 52.6671 266.541C52.5546 265.874 52.6229 265.674 52.162 265.23C48.1439 264.72 47.3964 266.773 43.7275 264.029L42.8684 264.516C41.6446 264.263 39.6503 263.923 38.6086 263.338L35.2317 261.449C33.6112 263.013 31.8787 267.373 29.3208 269.643C31.6294 265.663 34.6019 261.618 37.0854 257.708C38.9034 254.846 42.1625 251.68 43.712 248.759C48.5202 242.875 53.6774 237.286 59.1558 232.021C59.8018 231.171 60.8842 230.104 61.6448 229.302Z"/><path fill="#909BD1" d="M61.6448 229.302C63.2382 231.008 67.6659 246.576 69.5084 249.729C69.2211 250.929 68.8715 251.399 68.2637 252.444C66.0854 250.856 60.8734 234 59.1558 232.021C59.8018 231.171 60.8842 230.104 61.6448 229.302Z"/><path fill="#733F96" d="M61.7668 229.024C63.1538 228.136 65.2748 225.982 66.6602 224.908C70.6139 221.842 77.793 215.423 81.9669 213.201C82.8085 216.084 83.0275 219.24 83.846 222.053L83.5871 223.368C82.2266 225.191 81.5397 227.858 80.3861 229.838C76.8205 235.957 73.2568 243.881 69.5084 249.729C67.6659 246.576 63.2382 231.008 61.6448 229.302L61.7668 229.024Z"/><path fill="#733F96" d="M125.512 385.341C128.107 385.496 138.231 391.315 141.356 392.627C155.319 398.486 169.541 404.598 184.123 408.58L184.112 408.364C183.574 407.42 167.387 397.387 164.479 394.275C161.138 390.699 143.155 373.423 143.347 369.108C151.39 380.497 165.038 396.852 177.667 403.28C178.688 404.455 185.886 407.815 188.261 409.671C186.931 409.535 184.764 409.267 183.477 409.29C182.991 408.929 183.268 409.07 182.445 409.141C177.296 407.669 168.834 404.351 163.721 402.364C152.719 398.09 135.289 391.573 125.512 385.341Z"/><defs><linearGradient id="gradient_9" gradientUnits="userSpaceOnUse" x1="289.62787" y1="110.52102" x2="214.46724" y2="5.5162835"><stop offset="0" stop-color="#9B045E"/><stop offset="1" stop-color="#FC3C62"/></linearGradient></defs><path fill="url(#gradient_9)" d="M150.082 64.4062C152.805 60.9386 155.339 56.9118 158.102 53.3042C163.855 45.9322 170.212 39.0524 177.107 32.7361C232.567 -18.1157 310.016 -6.02409 354.268 52.315C356.303 54.9977 358.558 58.8495 360.797 61.1975C359.015 61.6987 350 61.5284 347.371 61.5483C343.192 61.5698 339.014 61.7336 334.845 62.0396C304.62 64.507 275.666 71.1862 248.271 84.5562C246.675 85.3352 244.915 86.0627 243.366 86.9177C242.666 86.9042 242.123 86.6926 241.452 86.4923C238.88 89.0225 234.206 90.6697 231.283 92.6758C228.21 94.7845 217.216 100.157 215.206 102.75C214.305 102.365 213.954 102.495 212.985 102.613C208.98 101.943 205.056 100.99 201.036 100.427C178.26 97.2394 151.849 100.198 130.66 109.576L130.189 109.383L130.007 108.854C134.315 92.6041 140.987 81.037 148.808 66.7556L148.973 66.8534C149.395 66.0259 149.717 65.2608 150.082 64.4062Z"/><path fill="#DB49A6" d="M148.973 66.8534C152.348 64.6801 155.751 65.3373 159.611 65.3097C171.043 65.2282 182.375 66.3727 193.537 68.8551C208.448 72.1296 222.679 76.5359 236.289 83.534C237.195 84 240.999 85.8369 241.452 86.4923C238.88 89.0225 234.206 90.6697 231.283 92.6758C228.21 94.7845 217.216 100.157 215.206 102.75C214.305 102.365 213.954 102.495 212.985 102.613C208.98 101.943 205.056 100.99 201.036 100.427C178.26 97.2394 151.849 100.198 130.66 109.576L130.189 109.383L130.007 108.854C134.315 92.6041 140.987 81.037 148.808 66.7556L148.973 66.8534Z"/></svg>