<?xml version="1.0" encoding="utf-8" ?><svg xmlns="http://www.w3.org/2000/svg" xmlns:xlink="http://www.w3.org/1999/xlink" width="1156" height="843" viewBox="0 0 1156 843"><path fill="#0B6B9A" d="M685.603 61.5588C705.691 62.1907 732.816 69.2459 750.8 78.1933C757.843 80.915 764.522 85.2514 770.852 89.3188C830.594 127.706 844.233 204.978 819.31 268.784C817.502 273.353 815.65 277.904 813.753 282.437L812.809 284.639C814.157 288.553 820.23 302.521 820.529 304.665C822.699 309.684 828.376 328.649 828.548 334.115C830.447 341.101 830.459 346.824 831.003 353.847C833.067 380.483 827.636 407.61 814.221 430.949C805.073 446.616 792.826 460.251 778.228 471.02C776.942 471.951 772.213 475.22 771.007 475.678C755.111 487.714 726.657 496.719 707.066 499.287C699.385 500.294 691.636 500.389 684.241 501.391L682.795 502.268C671.47 518.408 660.828 531.731 644.284 543.14C642.84 544.136 638.71 546.92 637.27 547.374C621.498 558.886 591.819 565.497 572.452 563.795C526.52 559.758 501.987 538.174 473.571 505.48C471.947 504.839 463.635 503.962 461.455 503.698C458.161 503.897 449.404 501.912 446.004 501.16C420.238 495.46 392.484 483.768 372.594 466.068C359.254 457.188 337.599 426.882 333.803 410.998C323.07 387.435 323.625 344.993 331.456 320.615C332.442 312.135 342.141 290.417 345.986 282.474C336.037 263.832 329.101 241.144 326.726 220.223C322.587 183.764 331.531 149.109 354.8 120.439C371.719 99.5938 395.284 84.8 420.552 76.205C425.44 74.5424 433.265 71.8101 438.361 71.2592C441.753 71.8429 456.032 67.8744 461.759 67.394L461.696 68.2267C464.958 68.2251 469.062 66.1769 472.89 66.7365C468.379 74.556 454.4 100.154 454.516 108.481L454.983 109.351L454.446 109.627C445.623 134.821 443.425 175.836 451.32 203.032C451.431 203.254 451.542 203.476 451.652 203.698C467.929 168.685 484.277 146.105 514.019 120.642C520.147 115.396 531.9 107.742 536.633 103.274L536.33 102.338C538.069 102.21 537.794 101.941 538.847 102.739C546.435 97.3131 557.429 91.3486 565.657 86.6121L567.677 87.1731C569.812 85.6393 579.806 81.1736 582.48 80.0689C608.576 69.3853 636.276 63.1471 664.431 61.6131C670.768 61.2058 678.157 62.0647 684.925 61.6075L685.603 61.5588ZM498.343 300.242C499.84 301.278 512.505 315.378 515.083 318.15C518.44 321.759 533.783 333.242 535.193 334.994C557.156 349.668 570.434 357.645 596.252 366.166C604.59 359.532 611.238 353.093 618.917 345.652C622.546 340.735 629.122 334.247 633.348 328.662C645.091 313.144 650.528 300.67 658.259 283.504C658.416 282.476 661.432 272.521 661.953 270.415C643.692 245.952 624.217 230.093 597.937 214.856C584.774 208.155 576.37 204.162 561.994 199.908C534.331 217.644 502.084 261.406 494.563 293.861C495.46 295.29 497.832 298.898 498.343 300.242ZM375.563 354.47C382.531 375.859 395.159 391.225 415.785 402.024C442.523 416.025 477.177 417.296 506.162 409.831C506.481 409.712 506.799 409.593 507.118 409.474C491.923 404.143 458.166 391.909 445.904 383.146C443.84 382.575 436.448 378.003 434.279 376.688C409.027 361.374 391.892 344.149 371.984 323.17C371.691 334.723 372.416 343.376 375.563 354.47ZM656.88 153.847C655.267 154.26 653.663 154.44 652.608 155.654L652.377 156.307C686.502 165.663 713.6 179.557 742.041 200.674C748.334 205.347 759.097 213.603 764.249 219.526C768.899 222.647 780.179 235.829 784.294 240.709C785.757 235.926 783.795 220.882 782.437 215.439C775.852 189.032 764.668 177.722 742.723 163.957C739.639 163.08 732.448 159.117 727.849 157.672C704.884 150.484 680.484 149.169 656.88 153.847ZM625.034 462.185C645.066 466.986 684.703 465.665 702.392 455.148C707.848 443.049 710.401 409.849 710.657 396.297C709.875 384.822 708.667 374.684 706.039 363.473C703.926 366.203 700.863 373.356 699.161 376.761C694.736 385.612 687.375 400.194 681.002 407.602C670.519 422.522 658.096 435.979 644.062 447.619C637.894 452.635 631.015 457.274 625.034 462.185Z"/><path fill="#CB3AA1" d="M685.603 61.5588C705.691 62.1907 732.816 69.2459 750.8 78.1933C757.843 80.915 764.522 85.2514 770.852 89.3188C830.594 127.706 844.233 204.978 819.31 268.784C817.502 273.353 815.65 277.904 813.753 282.437L812.809 284.639C809.562 286.217 805.651 297.968 802.048 302.023L802.066 302.886C798.951 306.888 797.36 310.904 793.85 314.988C791.787 317.775 789.634 320.8 787.447 323.466C785.536 325.154 774.701 336.041 773.657 337.617L770.999 340.161C770.037 337.098 769.24 334.795 768.034 331.825C767.845 334.799 769.03 338.033 770.208 340.749C765.688 344.332 755.262 352.899 750.656 355.393L751.359 358.909L751.821 362.081C750.208 361.569 749.613 361.212 748.216 360.247L746.804 360.324C745.572 362.04 745.28 363.551 744.665 365.573C735.351 369.368 727.04 375.266 720.383 382.807C718.326 385.137 716.668 387.81 714.908 390.355C713.19 392.84 713.381 395.016 710.657 396.297C709.875 384.822 708.667 374.684 706.039 363.473C706.22 362.146 705.538 360.391 705.152 358.985C704.135 359.625 703.09 360.24 702.151 360.986C696.758 363.826 691.21 367.255 685.537 369.528C672.927 374.581 645.492 379.417 632.79 374.915C632.115 375.818 629.867 379.015 629.15 379.488C626.318 383.603 623.375 387.194 620.099 390.959C614.964 396.983 609.881 402.066 604.327 407.673L599.54 411.49C601.166 407.57 608.519 402.304 611.562 399.322C613.077 397.838 615.025 394.954 616.605 393.118L614.261 394.393L614.063 392.436L613.167 392.172L609.748 394.317C604.442 390.679 587.264 385.474 579.902 383.122C577.434 384.109 573.749 385.098 571.111 385.887C568.102 387.212 565.449 388.656 562.167 388.63C571.269 382.632 578.304 379.499 587.71 372.497L594.876 367.275L596.252 366.166C604.59 359.532 611.238 353.093 618.917 345.652C622.546 340.735 629.122 334.247 633.348 328.662C645.091 313.144 650.528 300.67 658.259 283.504C658.416 282.476 661.432 272.521 661.953 270.415C643.692 245.952 624.217 230.093 597.937 214.856C584.774 208.155 576.37 204.162 561.994 199.908C534.331 217.644 502.084 261.406 494.563 293.861C495.46 295.29 497.832 298.898 498.343 300.242L498.128 300.5L497.503 300.4C495.229 297.118 489.655 290.03 488.252 287.401L489.694 287.149C489.887 286.01 488.152 284.903 488.087 284.386C487.705 281.366 488.505 277.59 488.485 274.483C487.631 276.523 486.92 279.627 486.429 281.786C473.114 264.135 465.215 251.094 457.796 229.79C455.491 223.172 453.545 215.398 450.81 209.216C450.71 207.99 451.386 205.096 451.652 203.698C467.929 168.685 484.277 146.105 514.019 120.642C520.147 115.396 531.9 107.742 536.633 103.274L536.33 102.338C538.069 102.21 537.794 101.941 538.847 102.739C546.435 97.3131 557.429 91.3486 565.657 86.6121L567.677 87.1731C569.812 85.6393 579.806 81.1736 582.48 80.0689C608.576 69.3853 636.276 63.1471 664.431 61.6131C670.768 61.2058 678.157 62.0647 684.925 61.6075L685.603 61.5588ZM652.377 156.307C686.502 165.663 713.6 179.557 742.041 200.674C748.334 205.347 759.097 213.603 764.249 219.526C768.899 222.647 780.179 235.829 784.294 240.709C785.757 235.926 783.795 220.882 782.437 215.439C775.852 189.032 764.668 177.722 742.723 163.957C739.639 163.08 732.448 159.117 727.849 157.672C704.884 150.484 680.484 149.169 656.88 153.847C655.267 154.26 653.663 154.44 652.608 155.654L652.377 156.307Z"/><path fill="#9C1774" d="M685.603 61.5588C705.691 62.1907 732.816 69.2459 750.8 78.1933C757.843 80.915 764.522 85.2514 770.852 89.3188C830.594 127.706 844.233 204.978 819.31 268.784C817.502 273.353 815.65 277.904 813.753 282.437L811.827 281.709C803.124 268.525 796.243 254.225 784.863 242.1L784.294 240.709C785.757 235.926 783.795 220.882 782.437 215.439C775.852 189.032 764.668 177.722 742.723 163.957C739.639 163.08 732.448 159.117 727.849 157.672C704.884 150.484 680.484 149.169 656.88 153.847C655.267 154.26 653.663 154.44 652.608 155.654L652.377 156.307C649.58 156.111 638.584 153.285 635.18 152.51C623.119 149.767 612.357 148.652 600.419 147.564C594.516 147.025 570.497 148.983 568.635 148.348C574.77 142.948 594.256 130.428 601.855 126.866L601.923 126.58C604.937 125.906 607.996 124.373 610.838 123.086L610.831 122.724L609.336 120.529C596.116 105.982 584.836 97.2987 567.677 87.1731C569.812 85.6393 579.806 81.1736 582.48 80.0689C608.576 69.3853 636.276 63.1471 664.431 61.6131C670.768 61.2058 678.157 62.0647 684.925 61.6075L685.603 61.5588Z"/><defs><linearGradient id="gradient_0" gradientUnits="userSpaceOnUse" x1="595.92731" y1="47.395477" x2="702.79297" y2="119.77751"><stop offset="0" stop-color="#FE445F"/><stop offset="1" stop-color="#E32370"/></linearGradient></defs><path fill="url(#gradient_0)" d="M685.603 61.5588C705.691 62.1907 732.816 69.2459 750.8 78.1933C746.085 78.8228 723.143 65.6374 717.598 68.6089C716.468 72.1658 720.81 74.8789 721.793 78.0304C724.691 87.3211 722.684 96.2274 713.155 100.373L712.675 101.226C716.899 102.629 723.428 103.003 727.757 103.858C734.275 105.145 757.419 111.204 760.465 115.93C748.567 109.931 722.171 101.371 708.993 102.215C684.179 98.9245 647.592 104.415 624.26 113.279C620.375 114.756 613.932 116.845 610.758 119.312C610.262 119.691 609.787 120.098 609.336 120.529C596.116 105.982 584.836 97.2987 567.677 87.1731C569.812 85.6393 579.806 81.1736 582.48 80.0689C608.576 69.3853 636.276 63.1471 664.431 61.6131C670.768 61.2058 678.157 62.0647 684.925 61.6075L685.603 61.5588Z"/><path fill="#551072" d="M681.86 146.988C718.671 141.999 760.014 146.191 790.4 169.385C808.101 182.773 819.678 202.718 822.525 224.733C825.499 246.569 819.214 261.856 811.827 281.709C803.124 268.525 796.243 254.225 784.863 242.1L784.294 240.709C785.757 235.926 783.795 220.882 782.437 215.439C775.852 189.032 764.668 177.722 742.723 163.957C739.639 163.08 732.448 159.117 727.849 157.672C704.884 150.484 680.484 149.169 656.88 153.847C659.912 148.944 675.786 147.861 681.86 146.988Z"/><path fill="#661A60" d="M656.88 153.847C659.912 148.944 675.786 147.861 681.86 146.988C684.781 148.554 691.298 148.036 695.105 148.425C708.656 149.811 725.82 153.13 737.91 159.526L736.872 160.074C739.352 161.669 740.392 161.101 742.931 163.094L742.723 163.957C739.639 163.08 732.448 159.117 727.849 157.672C704.884 150.484 680.484 149.169 656.88 153.847Z"/><path fill="#FD309E" d="M609.336 120.529C609.787 120.098 610.262 119.691 610.758 119.312C613.932 116.845 620.375 114.756 624.26 113.279C647.592 104.415 684.179 98.9245 708.993 102.215C703.843 103.757 680.899 100.942 677.126 103.175L677.247 104.119C677.332 104.14 689.833 103.58 691.126 103.494C696.678 103.124 701.176 103.777 706.632 104.018L705.113 104.636C674.816 103.347 637.991 108.675 610.831 122.724L609.336 120.529Z"/><path fill="#CB3AA1" d="M708.993 102.215C722.171 101.371 748.567 109.931 760.465 115.93C767.197 119.555 772.209 122.486 778.377 127.111C780.747 130.809 790.281 135.786 790.222 138.491C778.319 124.321 742.98 109.882 724.755 107.117C718.321 106.141 711.453 105.629 705.113 104.636L706.632 104.018C701.176 103.777 696.678 103.124 691.126 103.494C689.833 103.58 677.332 104.14 677.247 104.119L677.126 103.175C680.899 100.942 703.843 103.757 708.993 102.215Z"/><path fill="#DD3EB1" d="M610.838 123.086C612.507 126.958 613.123 129.138 614.245 133.186C610.773 131.272 605.432 128.101 601.855 126.866L601.923 126.58C604.937 125.906 607.996 124.373 610.838 123.086Z"/><path fill="#B9268E" d="M778.377 127.111C785.202 130.528 798.014 142.724 801.504 149.511C800.329 148.376 790.48 139.102 790.222 138.491C790.281 135.786 780.747 130.809 778.377 127.111Z"/><path fill="#CE256A" d="M538.847 102.739C546.435 97.3131 557.429 91.3486 565.657 86.6121L567.677 87.1731C584.836 97.2987 596.116 105.982 609.336 120.529L610.831 122.724L610.838 123.086C607.996 124.373 604.937 125.906 601.923 126.58L601.855 126.866C594.256 130.428 574.77 142.948 568.635 148.348C556.146 156.294 538.22 177.364 529.165 188.959L528.888 189.418C527.188 192.192 525.271 194.7 523.414 197.376C512.056 213.742 502.461 232.048 496.476 251.09C495.826 253.16 495.052 255.914 493.918 257.681L493.21 257.494C490.759 262.744 490.381 270.012 488.485 274.483C487.631 276.523 486.92 279.627 486.429 281.786C473.114 264.135 465.215 251.094 457.796 229.79C455.491 223.172 453.545 215.398 450.81 209.216C450.71 207.99 451.386 205.096 451.652 203.698C467.929 168.685 484.277 146.105 514.019 120.642C520.147 115.396 531.9 107.742 536.633 103.274L536.33 102.338C538.069 102.21 537.794 101.941 538.847 102.739Z"/><path fill="#9C1774" d="M526.04 189.947C506.727 186.621 480.834 190.412 462.824 197.73C460.899 198.512 459.282 200.474 457.37 200.209L457.048 198.943C457.995 196.068 460.579 193.368 462.9 191.43C487.028 171.289 513.537 158.546 544.361 152.653C548.833 151.798 558.069 150.166 562.277 150.403C545.33 165.32 539.861 172.763 526.04 189.947Z"/><path fill="#F363A9" d="M538.847 102.739C546.435 97.3131 557.429 91.3486 565.657 86.6121L567.677 87.1731C584.836 97.2987 596.116 105.982 609.336 120.529L610.831 122.724L610.838 123.086C607.996 124.373 604.937 125.906 601.923 126.58C600.474 125.625 599.918 125.349 598.332 124.623C573.29 112.483 565.675 109.868 538.847 102.739Z"/><path fill="#DD3EB1" d="M598.332 124.623C599.918 125.349 600.474 125.625 601.923 126.58L601.855 126.866C594.256 130.428 574.77 142.948 568.635 148.348C556.146 156.294 538.22 177.364 529.165 188.959L528.888 189.418C527.188 192.192 525.271 194.7 523.414 197.376C512.056 213.742 502.461 232.048 496.476 251.09C495.826 253.16 495.052 255.914 493.918 257.681L493.21 257.494C494.377 255.085 496.43 246.733 497.999 242.862C505.036 225.509 514.637 204.773 526.04 189.947C539.861 172.763 545.33 165.32 562.277 150.403C569.433 144.091 577.054 138.325 585.074 133.155C587.88 131.315 596.537 126.362 598.332 124.623Z"/><path fill="#552B85" d="M670.056 245.901C670.035 243.191 669.622 239.161 671.118 237.184C685.914 248.367 699.363 261.229 711.198 275.511C712.478 277.08 715.239 280.397 716.069 282.145C714.157 281.592 714.829 282.151 713.89 280.54C713.514 287.986 714.449 296.612 714.497 304.432C714.542 311.959 712.196 325.595 712.478 331.704C711.075 338.35 708.655 350.937 705.749 356.488L705.152 358.985C704.135 359.625 703.09 360.24 702.151 360.986C696.758 363.826 691.21 367.255 685.537 369.528C672.927 374.581 645.492 379.417 632.79 374.915C632.115 375.818 629.867 379.015 629.15 379.488C626.318 383.603 623.375 387.194 620.099 390.959C614.964 396.983 609.881 402.066 604.327 407.673L599.54 411.49C601.166 407.57 608.519 402.304 611.562 399.322C613.077 397.838 615.025 394.954 616.605 393.118L614.261 394.393L614.063 392.436L613.167 392.172L609.748 394.317C604.442 390.679 587.264 385.474 579.902 383.122C577.434 384.109 573.749 385.098 571.111 385.887C568.102 387.212 565.449 388.656 562.167 388.63C571.269 382.632 578.304 379.499 587.71 372.497L594.876 367.275L596.252 366.166C604.59 359.532 611.238 353.093 618.917 345.652C622.546 340.735 629.122 334.247 633.348 328.662C645.091 313.144 650.528 300.67 658.259 283.504L658.985 283.853C660.534 280.319 661.497 276.276 662.515 272.529C664.368 275.566 665.704 277.21 667.971 279.988C670.849 277.037 670.598 251.298 670.056 245.901Z"/><path fill="#666BAB" d="M662.515 272.529C664.368 275.566 665.704 277.21 667.971 279.988C667.427 282.997 664.229 299.218 665.127 300.83C663.112 312.685 651.513 346.566 644.384 355.64C642.291 360.749 635.898 370.215 632.79 374.915C632.115 375.818 629.867 379.015 629.15 379.488C626.318 383.603 623.375 387.194 620.099 390.959C614.964 396.983 609.881 402.066 604.327 407.673L599.54 411.49C601.166 407.57 608.519 402.304 611.562 399.322C613.077 397.838 615.025 394.954 616.605 393.118L614.261 394.393L614.063 392.436L613.167 392.172L609.748 394.317C604.442 390.679 587.264 385.474 579.902 383.122C577.434 384.109 573.749 385.098 571.111 385.887C568.102 387.212 565.449 388.656 562.167 388.63C571.269 382.632 578.304 379.499 587.71 372.497L594.876 367.275L596.252 366.166C604.59 359.532 611.238 353.093 618.917 345.652C622.546 340.735 629.122 334.247 633.348 328.662C645.091 313.144 650.528 300.67 658.259 283.504L658.985 283.853C660.534 280.319 661.497 276.276 662.515 272.529Z"/><path fill="#0B6B9A" d="M596.252 366.166C604.59 359.532 611.238 353.093 618.917 345.652C618.119 350.619 605.892 357.929 604.337 361.492C605.192 361.187 606.041 360.866 606.884 360.528C613.565 351.619 619.959 355.536 627.878 360.79C628.96 361.508 629.939 362.374 630.146 363.61C631.603 364.889 632.663 366.052 634.465 366.703L635.813 364.956L636.305 365.585C635.631 367.272 635.594 367.424 635.396 369.221C637.279 364.883 641.342 360.008 643.946 354.662L644.384 355.64C642.291 360.749 635.898 370.215 632.79 374.915C632.115 375.818 629.867 379.015 629.15 379.488C626.318 383.603 623.375 387.194 620.099 390.959C614.964 396.983 609.881 402.066 604.327 407.673L599.54 411.49C601.166 407.57 608.519 402.304 611.562 399.322C613.077 397.838 615.025 394.954 616.605 393.118L614.261 394.393L614.063 392.436L613.167 392.172L609.748 394.317C604.442 390.679 587.264 385.474 579.902 383.122C577.434 384.109 573.749 385.098 571.111 385.887C568.102 387.212 565.449 388.656 562.167 388.63C571.269 382.632 578.304 379.499 587.71 372.497L594.876 367.275L596.252 366.166Z"/><path fill="#2289B8" d="M606.884 360.528C613.565 351.619 619.959 355.536 627.878 360.79C628.96 361.508 629.939 362.374 630.146 363.61C631.671 366.523 632.013 366.215 634.442 368.084C633.048 370.34 631.478 373.029 629.926 375.129C625.474 372.267 624.307 371.933 619.106 370.986C611.628 370.018 606.508 369.921 600.231 365.623C602.849 363.716 603.984 363.05 606.871 361.562L606.884 360.528Z"/><path fill="#0093AB" d="M571.111 385.887C572.615 384.502 576.91 381.554 578.842 381.696C583.807 382.059 590.26 386.07 595.101 387.736C597.914 388.704 601.9 388.607 604.729 389.544C605.999 389.964 608.161 392.469 609.714 392.214C612.816 391.705 616.186 388.616 618.994 387.27L618.547 390.167C619.083 390.454 619.541 390.718 620.099 390.959C614.964 396.983 609.881 402.066 604.327 407.673L599.54 411.49C601.166 407.57 608.519 402.304 611.562 399.322C613.077 397.838 615.025 394.954 616.605 393.118L614.261 394.393L614.063 392.436L613.167 392.172L609.748 394.317C604.442 390.679 587.264 385.474 579.902 383.122C577.434 384.109 573.749 385.098 571.111 385.887Z"/><path fill="#2289B8" d="M618.994 387.27C621.048 384.792 626.771 377.074 629.772 376.973C629.203 377.965 629.202 378.351 629.15 379.488C626.318 383.603 623.375 387.194 620.099 390.959C619.541 390.718 619.083 390.454 618.547 390.167L618.994 387.27Z"/><defs><linearGradient id="gradient_1" gradientUnits="userSpaceOnUse" x1="684.08447" y1="351.2511" x2="695.4444" y2="240.7773"><stop offset="0" stop-color="#812FAA"/><stop offset="1" stop-color="#BE20BA"/></linearGradient></defs><path fill="url(#gradient_1)" d="M670.056 245.901C670.035 243.191 669.622 239.161 671.118 237.184C685.914 248.367 699.363 261.229 711.198 275.511C712.478 277.08 715.239 280.397 716.069 282.145C714.157 281.592 714.829 282.151 713.89 280.54C713.514 287.986 714.449 296.612 714.497 304.432C714.542 311.959 712.196 325.595 712.478 331.704C711.075 338.35 708.655 350.937 705.749 356.488C699.292 333.53 691.114 313.842 678.354 293.609C675.765 289.503 672.024 283.238 668.769 279.721C668.071 285.097 666.797 295.827 665.127 300.83C664.229 299.218 667.427 282.997 667.971 279.988C670.849 277.037 670.598 251.298 670.056 245.901Z"/><path fill="#9C1774" d="M640.731 157.661C653.658 164.228 667.102 179.035 676.453 189.774C690.216 208.926 693.003 215.993 702.45 236.869L703.431 238.818C706.178 247.866 711.764 266.19 711.198 275.511C699.363 261.229 685.914 248.367 671.118 237.184C669.622 239.161 670.035 243.191 670.056 245.901C670.598 251.298 670.849 277.037 667.971 279.988C665.704 277.21 664.368 275.566 662.515 272.529C661.497 276.276 660.534 280.319 658.985 283.853L658.259 283.504C658.416 282.476 661.432 272.521 661.953 270.415C643.692 245.952 624.217 230.093 597.937 214.856C584.774 208.155 576.37 204.162 561.994 199.908C579.203 182.259 617.857 165.777 640.731 157.661Z"/><path fill="#B9268E" d="M597.937 214.856C593.326 208.754 572.438 202.268 564.708 199.529L567.019 199.435L567.157 198.896L565.691 198.44C565.704 196.85 565.434 197.525 566.557 196.364C571.957 194.595 607.899 204.017 615.042 206.557C623.904 209.672 632.537 213.404 640.878 217.727C651.098 222.907 659.875 227.102 668.877 234.263C668.872 232.726 668.682 227.9 669.156 226.804C669.338 229.93 669.606 233.051 669.957 236.163L671.118 237.184C669.622 239.161 670.035 243.191 670.056 245.901C670.598 251.298 670.849 277.037 667.971 279.988C665.704 277.21 664.368 275.566 662.515 272.529C661.497 276.276 660.534 280.319 658.985 283.853L658.259 283.504C658.416 282.476 661.432 272.521 661.953 270.415C643.692 245.952 624.217 230.093 597.937 214.856Z"/><path fill="#DD3EB1" d="M663.097 268.162C664.8 263.722 666.619 252.49 667.836 247.464C668.452 244.92 667.958 243.081 669.038 239.709C670.769 242.037 668.333 241.035 670.056 245.901C670.598 251.298 670.849 277.037 667.971 279.988C665.704 277.21 664.368 275.566 662.515 272.529C661.497 276.276 660.534 280.319 658.985 283.853L658.259 283.504C658.416 282.476 661.432 272.521 661.953 270.415L663.097 268.162Z"/><path fill="#CB3AA1" d="M663.097 268.162C662.605 265.126 666.232 247.766 667.155 243.676C667.503 242.135 666.909 236.921 667.132 234.465L669.957 236.163L671.118 237.184C669.622 239.161 670.035 243.191 670.056 245.901C668.333 241.035 670.769 242.037 669.038 239.709C667.958 243.081 668.452 244.92 667.836 247.464C666.619 252.49 664.8 263.722 663.097 268.162Z"/><path fill="#873096" d="M702.45 236.869C706.176 236.939 729.543 255.977 730.811 260.079C737.906 270.641 745.678 277.318 752.131 290.161L755.543 294.721C757.867 300.153 762.229 307.564 765.066 313.232C764.518 314.504 763.8 316.369 763.051 317.475L762.962 317.971C764.441 321.334 767.296 328.254 768.034 331.825C767.845 334.799 769.03 338.033 770.208 340.749C765.688 344.332 755.262 352.899 750.656 355.393L751.359 358.909L751.821 362.081C750.208 361.569 749.613 361.212 748.216 360.247L746.804 360.324C745.572 362.04 745.28 363.551 744.665 365.573C735.351 369.368 727.04 375.266 720.383 382.807C718.326 385.137 716.668 387.81 714.908 390.355C713.19 392.84 713.381 395.016 710.657 396.297C709.875 384.822 708.667 374.684 706.039 363.473C706.22 362.146 705.538 360.391 705.152 358.985L705.749 356.488C708.655 350.937 711.075 338.35 712.478 331.704C712.196 325.595 714.542 311.959 714.497 304.432C714.449 296.612 713.514 287.986 713.89 280.54C714.829 282.151 714.157 281.592 716.069 282.145C715.239 280.397 712.478 277.08 711.198 275.511C711.764 266.19 706.178 247.866 703.431 238.818L702.45 236.869Z"/><defs><linearGradient id="gradient_2" gradientUnits="userSpaceOnUse" x1="736.52271" y1="373.30521" x2="712.20782" y2="340.84863"><stop offset="0" stop-color="#1B82AC"/><stop offset="1" stop-color="#7A69B0"/></linearGradient></defs><path fill="url(#gradient_2)" d="M712.478 331.704C712.196 325.595 714.542 311.959 714.497 304.432C714.449 296.612 713.514 287.986 713.89 280.54C714.829 282.151 714.157 281.592 716.069 282.145C722.016 288.261 735.48 311.333 738.594 319.462C742.162 326.313 745.9 337.264 748.219 344.708C747.532 347.603 745.217 354.542 746.825 356.901C748.836 357.022 748.534 356.717 750.656 355.393L751.359 358.909L751.821 362.081C750.208 361.569 749.613 361.212 748.216 360.247L746.804 360.324C745.572 362.04 745.28 363.551 744.665 365.573C735.351 369.368 727.04 375.266 720.383 382.807C718.326 385.137 716.668 387.81 714.908 390.355C713.19 392.84 713.381 395.016 710.657 396.297C709.875 384.822 708.667 374.684 706.039 363.473C706.22 362.146 705.538 360.391 705.152 358.985L705.749 356.488C708.655 350.937 711.075 338.35 712.478 331.704Z"/><path fill="#8A6CB2" d="M712.478 331.704C712.196 325.595 714.542 311.959 714.497 304.432C714.449 296.612 713.514 287.986 713.89 280.54C714.829 282.151 714.157 281.592 716.069 282.145C722.016 288.261 735.48 311.333 738.594 319.462C737.418 322.213 741.057 324.298 739.569 326.112C736.806 327.128 728.545 329.646 726.551 330.677C721.014 333.539 715.055 342.255 710.072 346.669C711.024 342.883 713.424 335.174 712.478 331.704Z"/><path fill="#25105B" d="M762.962 317.971C764.441 321.334 767.296 328.254 768.034 331.825C767.845 334.799 769.03 338.033 770.208 340.749C765.688 344.332 755.262 352.899 750.656 355.393C748.534 356.717 748.836 357.022 746.825 356.901C745.217 354.542 747.532 347.603 748.219 344.708C752.483 335.571 757.899 326.751 762.962 317.971Z"/><path fill="#9E92D9" d="M702.45 236.869C706.176 236.939 729.543 255.977 730.811 260.079C737.906 270.641 745.678 277.318 752.131 290.161C752.684 291.436 753.074 291.998 752.93 293.383C750.865 292.645 751.919 291.838 750.423 291.574L750.308 291.74C748.589 290.166 743.927 282.489 742.312 280.13C731.46 264.275 717.949 251.235 703.431 238.818L702.45 236.869Z"/><path fill="#679CDA" d="M752.131 290.161L755.543 294.721C757.867 300.153 762.229 307.564 765.066 313.232C764.518 314.504 763.8 316.369 763.051 317.475C759.719 310.516 752.843 298.053 750.308 291.74L750.423 291.574C751.919 291.838 750.865 292.645 752.93 293.383C753.074 291.998 752.684 291.436 752.131 290.161Z"/><path fill="#B9268E" d="M529.165 188.959C531.172 191.037 556.711 196.471 561.721 197.541C565.594 195.824 574.444 188.256 577.354 186.502C596.346 175.053 619.454 162.293 640.879 157.149C645.911 155.941 676.421 185.194 676.922 189.408L676.453 189.774C667.102 179.035 653.658 164.228 640.731 157.661C617.857 165.777 579.203 182.259 561.994 199.908C534.331 217.644 502.084 261.406 494.563 293.861C495.46 295.29 497.832 298.898 498.343 300.242L498.128 300.5L497.503 300.4C495.229 297.118 489.655 290.03 488.252 287.401L489.694 287.149C489.887 286.01 488.152 284.903 488.087 284.386C487.705 281.366 488.505 277.59 488.485 274.483C490.381 270.012 490.759 262.744 493.21 257.494L493.918 257.681C495.052 255.914 495.826 253.16 496.476 251.09C502.461 232.048 512.056 213.742 523.414 197.376C525.271 194.7 527.188 192.192 528.888 189.418L529.165 188.959Z"/><path fill="#5C4B99" d="M784.863 242.1C796.243 254.225 803.124 268.525 811.827 281.709L813.753 282.437L812.809 284.639C809.562 286.217 805.651 297.968 802.048 302.023L802.066 302.886C798.951 306.888 797.36 310.904 793.85 314.988C791.787 317.775 789.634 320.8 787.447 323.466C785.536 325.154 774.701 336.041 773.657 337.617L770.999 340.161C770.037 337.098 769.24 334.795 768.034 331.825C767.296 328.254 764.441 321.334 762.962 317.971L763.051 317.475C763.8 316.369 764.518 314.504 765.066 313.232L768.671 306.602C769.163 305.258 771.003 301.647 771.697 300.182C772.872 297.137 773.887 294.815 775.291 291.866L776.385 287.276C781.508 277.416 785.629 253.366 784.863 242.1Z"/><path fill="#0B6B9A" d="M768.671 306.602C770.096 308.064 771.023 309.152 772.318 310.727C783.247 311.228 783.866 311.707 793.85 314.988C791.787 317.775 789.634 320.8 787.447 323.466C785.536 325.154 774.701 336.041 773.657 337.617L770.999 340.161C770.037 337.098 769.24 334.795 768.034 331.825C767.296 328.254 764.441 321.334 762.962 317.971L763.051 317.475C763.8 316.369 764.518 314.504 765.066 313.232L768.671 306.602Z"/><path fill="#12508B" d="M771.697 300.182C776.103 302.898 778.538 303.858 783.688 304.412C784.19 303.948 784.355 303.923 784.617 303.363C788.133 302.389 794.194 305.461 797.818 306.583C799.962 305.756 799.792 303.81 802.048 302.023L802.066 302.886C798.951 306.888 797.36 310.904 793.85 314.988C783.866 311.707 783.247 311.228 772.318 310.727C771.023 309.152 770.096 308.064 768.671 306.602C769.163 305.258 771.003 301.647 771.697 300.182Z"/><path fill="#2D4D8D" d="M775.291 291.866C776.113 293.469 774.052 297.019 773.198 298.661C777.185 301.262 780.145 301.847 784.617 303.363C784.355 303.923 784.19 303.948 783.688 304.412C778.538 303.858 776.103 302.898 771.697 300.182C772.872 297.137 773.887 294.815 775.291 291.866Z"/><path fill="#8A6CB2" d="M764.249 219.526C768.899 222.647 780.179 235.829 784.294 240.709L784.863 242.1C785.629 253.366 781.508 277.416 776.385 287.276L775.291 291.866C773.887 294.815 772.872 297.137 771.697 300.182C771.003 301.647 769.163 305.258 768.671 306.602L765.066 313.232C762.229 307.564 757.867 300.153 755.543 294.721L752.131 290.161C745.678 277.318 737.906 270.641 730.811 260.079C739.169 260.24 745.938 254.279 753.252 250.976C761.175 247.399 768.474 243.13 776.75 240.329C779.556 239.379 780.444 240.508 783.02 241.698L782.683 240.807L782.804 241.62L783.054 241.67L782.355 240.37L781.608 240.988L782.083 240.032C779.871 237.416 764.243 221.055 764.249 219.526Z"/><path fill="#2289B8" d="M755.543 294.721C758.778 297.036 757.837 302.24 763.564 300.41C765.325 299.848 767.615 300.14 769.431 300.492L770.185 300.644C772.454 297.068 773.601 290.192 776.385 287.276L775.291 291.866C773.887 294.815 772.872 297.137 771.697 300.182C771.003 301.647 769.163 305.258 768.671 306.602L765.066 313.232C762.229 307.564 757.867 300.153 755.543 294.721Z"/><path fill="#552B85" d="M461.696 68.2267C464.958 68.2251 469.062 66.1769 472.89 66.7365C468.379 74.556 454.4 100.154 454.516 108.481L454.983 109.351L454.446 109.627C445.623 134.821 443.425 175.836 451.32 203.032C451.431 203.254 451.542 203.476 451.652 203.698C451.386 205.096 450.71 207.99 450.81 209.216C453.545 215.398 455.491 223.172 457.796 229.79C465.215 251.094 473.114 264.135 486.429 281.786C486.92 279.627 487.631 276.523 488.485 274.483C488.505 277.59 487.705 281.366 488.087 284.386C488.152 284.903 489.887 286.01 489.694 287.149L488.252 287.401C489.655 290.03 495.229 297.118 497.503 300.4L498.128 300.5L498.343 300.242C499.84 301.278 512.505 315.378 515.083 318.15C518.44 321.759 533.783 333.242 535.193 334.994C557.156 349.668 570.434 357.645 596.252 366.166L594.876 367.275L587.71 372.497C578.304 379.499 571.269 382.632 562.167 388.63C545.057 397.436 530.661 403.783 512.111 409.9L508.642 410.436C508.111 409.974 507.739 409.825 507.118 409.474C491.923 404.143 458.166 391.909 445.904 383.146C443.84 382.575 436.448 378.003 434.279 376.688C409.027 361.374 391.892 344.149 371.984 323.17C371.691 334.723 372.416 343.376 375.563 354.47L374.75 355.323C371.57 346.314 371.109 336.595 370.763 327.128C370.541 321.028 370.288 322.87 368.072 317.868C369.726 318.222 370.778 317.693 371.13 315.895C373.049 306.094 374.577 293.427 379.113 284.423C381.928 274.804 387.53 262.029 392.19 253.265L391.777 252.034C389.171 247.686 385.066 236.664 383.292 231.851C370.138 244.619 359.301 258.619 349.902 274.389C348.621 276.538 347.299 278.882 345.902 280.95L345.986 282.474C336.037 263.832 329.101 241.144 326.726 220.223C322.587 183.764 331.531 149.109 354.8 120.439C371.719 99.5938 395.284 84.8 420.552 76.205C425.44 74.5424 433.265 71.8101 438.361 71.2592C441.753 71.8429 456.032 67.8744 461.759 67.394L461.696 68.2267Z"/><defs><linearGradient id="gradient_3" gradientUnits="userSpaceOnUse" x1="394.70148" y1="66.729645" x2="393.2338" y2="279.81979"><stop offset="0" stop-color="#FF4062"/><stop offset="1" stop-color="#8B1486"/></linearGradient></defs><path fill="url(#gradient_3)" d="M461.696 68.2267C464.958 68.2251 469.062 66.1769 472.89 66.7365C468.379 74.556 454.4 100.154 454.516 108.481L454.983 109.351L454.446 109.627C445.623 134.821 443.425 175.836 451.32 203.032C451.431 203.254 451.542 203.476 451.652 203.698C451.386 205.096 450.71 207.99 450.81 209.216C450.27 211.784 449.76 214.17 448.312 216.423C443.044 232.153 440.138 248.577 439.69 265.16C439.52 271.325 439.959 280.143 439.603 285.702C425.884 267.984 416.554 250.27 410.212 228.865C409.474 227.544 408.439 223.661 407.948 221.993L407.757 221.951C407.239 219.043 406.611 216.156 405.877 213.295C399.136 217.165 391.761 224.289 385.618 229.069L385.635 229.473L383.693 231.133L383.292 231.851C370.138 244.619 359.301 258.619 349.902 274.389C348.621 276.538 347.299 278.882 345.902 280.95L345.986 282.474C336.037 263.832 329.101 241.144 326.726 220.223C322.587 183.764 331.531 149.109 354.8 120.439C371.719 99.5938 395.284 84.8 420.552 76.205C425.44 74.5424 433.265 71.8101 438.361 71.2592C441.753 71.8429 456.032 67.8744 461.759 67.394L461.696 68.2267Z"/><defs><linearGradient id="gradient_4" gradientUnits="userSpaceOnUse" x1="409.85486" y1="134.99826" x2="478.70123" y2="255.01018"><stop offset="0" stop-color="#8C0857"/><stop offset="1" stop-color="#FD3C72"/></linearGradient></defs><path fill="url(#gradient_4)" d="M418.077 137.403C419.214 136.596 422.514 132.681 423.643 131.451C432.871 121.398 442.264 115.475 454.446 109.627C445.623 134.821 443.425 175.836 451.32 203.032C451.431 203.254 451.542 203.476 451.652 203.698C451.386 205.096 450.71 207.99 450.81 209.216C450.27 211.784 449.76 214.17 448.312 216.423C443.044 232.153 440.138 248.577 439.69 265.16C439.52 271.325 439.959 280.143 439.603 285.702C425.884 267.984 416.554 250.27 410.212 228.865C409.474 227.544 408.439 223.661 407.948 221.993L407.757 221.951C407.239 219.043 406.611 216.156 405.877 213.295L405.826 213.001C405.031 210.194 404.337 207.359 403.746 204.502C401.215 192.515 398.718 170.911 405.566 160.424C406.774 159.488 409.152 153.385 410.132 151.281C412.627 145.928 414.751 142.264 418.077 137.403Z"/><path fill="#FD309E" d="M410.212 228.865L410.532 228.545L411.639 228.971C412.693 232.28 413.815 235.568 415.004 238.831C417.853 246.529 431.569 275.343 438.168 278.384C438.732 277.097 438.422 275.241 438.325 273.77L437.267 273.956L436.778 273.427C438.533 260.155 440.811 227.178 447.848 216.218L448.312 216.423C443.044 232.153 440.138 248.577 439.69 265.16C439.52 271.325 439.959 280.143 439.603 285.702C425.884 267.984 416.554 250.27 410.212 228.865Z"/><path fill="#CB3AA1" d="M405.826 213.001C407.909 211.931 407.841 211.475 409.482 211.938C410.573 214.501 409.151 219.604 407.948 221.993L407.757 221.951C407.239 219.043 406.611 216.156 405.877 213.295L405.826 213.001Z"/><path fill="#B10A4F" d="M461.696 68.2267C464.958 68.2251 469.062 66.1769 472.89 66.7365C468.379 74.556 454.4 100.154 454.516 108.481L454.983 109.351L454.446 109.627C442.264 115.475 432.871 121.398 423.643 131.451C422.514 132.681 419.214 136.596 418.077 137.403C414.751 142.264 412.627 145.928 410.132 151.281C409.152 153.385 406.774 159.488 405.566 160.424C398.718 170.911 401.215 192.515 403.746 204.502C404.337 207.359 405.031 210.194 405.826 213.001L405.877 213.295C399.136 217.165 391.761 224.289 385.618 229.069C376.861 191.326 376.018 168.731 389.294 132.088C391.986 127.731 394.583 121.522 397.356 116.767C410.013 95.0663 437.447 74.3748 461.696 68.2267Z"/><path fill="#CE256A" d="M405.566 160.424C406.475 155.524 413.19 140.103 417.136 137.124L418.077 137.403C414.751 142.264 412.627 145.928 410.132 151.281C409.152 153.385 406.774 159.488 405.566 160.424Z"/><path fill="#FD309E" d="M383.693 231.133C383.042 229.606 382.545 228.149 382.092 226.546C374.66 200.275 373.723 170.006 382.007 143.799C383.199 140.03 384.481 135.455 386.328 132.053L387.104 133.034L388.257 132.837L388.914 131.163L389.294 132.088C376.018 168.731 376.861 191.326 385.618 229.069L385.635 229.473L383.693 231.133Z"/><path fill="#873096" d="M385.618 229.069C391.761 224.289 399.136 217.165 405.877 213.295C406.611 216.156 407.239 219.043 407.757 221.951L407.948 221.993C408.439 223.661 409.474 227.544 410.212 228.865C416.554 250.27 425.884 267.984 439.603 285.702L440.926 287.505C439.185 292.296 443.54 310.675 444.769 316.342C450.318 339.036 455.892 349.417 467.239 369.223C467.254 373.257 479.961 386.802 483.324 390.159C491.172 397.994 497.773 402.66 507.556 407.665L507.109 407.984C503.629 406.599 500.099 405.766 496.554 404.491C482.084 399.287 467.93 393.548 454.256 386.485C451.843 385.238 448.549 383.318 445.904 383.146C443.84 382.575 436.448 378.003 434.279 376.688C409.027 361.374 391.892 344.149 371.984 323.17C371.691 334.723 372.416 343.376 375.563 354.47L374.75 355.323C371.57 346.314 371.109 336.595 370.763 327.128C370.541 321.028 370.288 322.87 368.072 317.868C369.726 318.222 370.778 317.693 371.13 315.895C373.049 306.094 374.577 293.427 379.113 284.423C381.928 274.804 387.53 262.029 392.19 253.265L391.777 252.034C389.171 247.686 385.066 236.664 383.292 231.851L383.693 231.133L385.635 229.473L385.618 229.069Z"/><path fill="#9C1774" d="M385.618 229.069C391.761 224.289 399.136 217.165 405.877 213.295C406.611 216.156 407.239 219.043 407.757 221.951L407.948 221.993C408.439 223.661 409.474 227.544 410.212 228.865C416.554 250.27 425.884 267.984 439.603 285.702L440.926 287.505C439.185 292.296 443.54 310.675 444.769 316.342L443.93 316.415L443.753 317.517C442.017 317.455 438.42 314.312 436.885 313.1C433.947 310.293 431.36 306.706 428.167 304.069L427.731 304.435C423.474 303.61 409.082 282.404 405.894 277.761C400.017 268.775 396.854 262.976 392.19 253.265L391.777 252.034C389.171 247.686 385.066 236.664 383.292 231.851L383.693 231.133L385.635 229.473L385.618 229.069Z"/><path fill="#873096" d="M385.618 229.069C391.761 224.289 399.136 217.165 405.877 213.295C406.611 216.156 407.239 219.043 407.757 221.951C405.53 227.728 397.05 244.51 393.397 249.996L393.529 250.409L391.777 252.034C389.171 247.686 385.066 236.664 383.292 231.851L383.693 231.133L385.635 229.473L385.618 229.069Z"/><path fill="#679CDA" d="M385.635 229.473C387.209 231.807 392.325 246.496 393.397 249.996L393.529 250.409L391.777 252.034C389.171 247.686 385.066 236.664 383.292 231.851L383.693 231.133L385.635 229.473Z"/><path fill="#CB3AA1" d="M393.529 250.409C404.432 271.725 411.874 285.633 428.167 304.069L427.731 304.435C423.474 303.61 409.082 282.404 405.894 277.761C400.017 268.775 396.854 262.976 392.19 253.265L391.777 252.034L393.529 250.409Z"/><path fill="#B9268E" d="M379.113 284.423C381.928 274.804 387.53 262.029 392.19 253.265C396.854 262.976 400.017 268.775 405.894 277.761L405.57 278.52C402.132 273.462 399.71 270.923 396.141 266.475C394.708 264.688 394.351 259.058 391.985 254.781C391.263 256.89 388.793 263.014 387.65 264.813C385.556 268.109 381.131 283.258 379.113 284.423Z"/><path fill="#9E349F" d="M405.894 277.761C409.082 282.404 423.474 303.61 427.731 304.435L428.167 304.069C431.36 306.706 433.947 310.293 436.885 313.1C436.026 312.924 434.562 313.227 434.052 312.834C425.388 306.159 409.845 287.428 405.57 278.52L405.894 277.761Z"/><path fill="#B9268E" d="M450.81 209.216C453.545 215.398 455.491 223.172 457.796 229.79C465.215 251.094 473.114 264.135 486.429 281.786C486.92 279.627 487.631 276.523 488.485 274.483C488.505 277.59 487.705 281.366 488.087 284.386C488.152 284.903 489.887 286.01 489.694 287.149L488.252 287.401C485.889 290.427 483.626 317.9 483.841 322.863L484.17 323.304C485.555 316.876 487.596 298.637 491.261 294.773L491.736 295.283C490.066 301.413 485.771 320.088 485.009 327.267C484.891 328.377 491.649 332.318 492.166 333.442C489.464 332.628 486.02 329.434 483.401 327.911C465.73 315.069 454.883 304.477 440.926 287.505L439.603 285.702C439.959 280.143 439.52 271.325 439.69 265.16C440.138 248.577 443.044 232.153 448.312 216.423C449.76 214.17 450.27 211.784 450.81 209.216Z"/><path fill="#9E349F" d="M483.401 327.911C486.02 329.434 489.464 332.628 492.166 333.442C491.649 332.318 484.891 328.377 485.009 327.267C485.771 320.088 490.066 301.413 491.736 295.283L491.261 294.773C487.596 298.637 485.555 316.876 484.17 323.304L483.841 322.863C483.626 317.9 485.889 290.427 488.252 287.401C489.655 290.03 495.229 297.118 497.503 300.4L498.128 300.5L498.343 300.242C499.84 301.278 512.505 315.378 515.083 318.15C518.44 321.759 533.783 333.242 535.193 334.994C557.156 349.668 570.434 357.645 596.252 366.166L594.876 367.275L587.71 372.497C579.268 370.103 553.803 366.545 546.89 361.539C524.834 353.876 504.792 342.768 485.027 330.46C484.215 331.368 484.076 333.033 483.769 334.398L483.401 327.911Z"/><path fill="#551072" d="M546.89 361.539C549.188 360.586 554.017 364.266 557.455 363.891C557.748 360.826 557.718 356.466 559.931 354.412C562.86 353.68 568.023 356.908 570.979 358.284C573.669 359.537 579.164 360.895 581.293 362.218C585.639 364.564 590.089 366.095 594.876 367.275L587.71 372.497C579.268 370.103 553.803 366.545 546.89 361.539Z"/><path fill="#873096" d="M535.193 334.994C557.156 349.668 570.434 357.645 596.252 366.166L594.876 367.275C590.089 366.095 585.639 364.564 581.293 362.218C581.38 362.453 539.304 343.228 535.193 334.994Z"/><path fill="#551072" d="M444.769 316.342C443.54 310.675 439.185 292.296 440.926 287.505C454.883 304.477 465.73 315.069 483.401 327.911L483.769 334.398C483.275 336.815 483.486 340.022 483.642 342.515C484.968 363.785 490.228 385.138 502.094 403.113L502.496 403.718C492.887 397.989 485.378 391.007 477.827 382.708C476.289 381.016 468.049 369.59 467.239 369.223C455.892 349.417 450.318 339.036 444.769 316.342Z"/><path fill="#0093AB" d="M802.048 302.023C805.651 297.968 809.562 286.217 812.809 284.639C814.157 288.553 820.23 302.521 820.529 304.665C822.699 309.684 828.376 328.649 828.548 334.115C830.447 341.101 830.459 346.824 831.003 353.847C833.067 380.483 827.636 407.61 814.221 430.949C805.073 446.616 792.826 460.251 778.228 471.02C776.942 471.951 772.213 475.22 771.007 475.678C767.425 475.293 756.532 483.678 752.309 485.315C734.096 492.375 705.366 501.801 685.595 500.016C686.536 499.825 690.773 499.055 691.529 498.558C695.503 495.964 701.662 495.604 705.908 494.191C714.899 491.198 736.934 481.168 741.153 472.803C727.167 484.102 715.626 491.138 697.958 495.614C694.197 496.567 689.606 497.989 685.767 498.22L685.176 497.806C685.619 496.852 685.733 496.421 686.452 495.652C693.984 482.842 698.568 471.17 702.954 457.078L702.959 456.553L702.392 455.148C707.848 443.049 710.401 409.849 710.657 396.297C713.381 395.016 713.19 392.84 714.908 390.355C716.668 387.81 718.326 385.137 720.383 382.807C727.04 375.266 735.351 369.368 744.665 365.573C745.28 363.551 745.572 362.04 746.804 360.324L748.216 360.247C749.613 361.212 750.208 361.569 751.821 362.081L751.359 358.909L750.656 355.393C755.262 352.899 765.688 344.332 770.208 340.749C769.03 338.033 767.845 334.799 768.034 331.825C769.24 334.795 770.037 337.098 770.999 340.161L773.657 337.617C774.701 336.041 785.536 325.154 787.447 323.466C789.634 320.8 791.787 317.775 793.85 314.988C797.36 310.904 798.951 306.888 802.066 302.886L802.048 302.023Z"/><path fill="#12508B" d="M768.034 331.825C769.24 334.795 770.037 337.098 770.999 340.161C780.106 371.502 779.72 405.255 767.445 435.681L766.999 436.37C765.878 438.135 762.858 444.435 761.6 446.777C755.723 457.724 750.151 464.34 741.153 472.803C727.167 484.102 715.626 491.138 697.958 495.614C694.197 496.567 689.606 497.989 685.767 498.22L685.176 497.806C685.619 496.852 685.733 496.421 686.452 495.652C693.984 482.842 698.568 471.17 702.954 457.078L702.959 456.553L702.392 455.148C707.848 443.049 710.401 409.849 710.657 396.297C713.381 395.016 713.19 392.84 714.908 390.355C716.668 387.81 718.326 385.137 720.383 382.807C727.04 375.266 735.351 369.368 744.665 365.573C745.28 363.551 745.572 362.04 746.804 360.324L748.216 360.247C749.613 361.212 750.208 361.569 751.821 362.081L751.359 358.909L750.656 355.393C755.262 352.899 765.688 344.332 770.208 340.749C769.03 338.033 767.845 334.799 768.034 331.825Z"/><defs><linearGradient id="gradient_5" gradientUnits="userSpaceOnUse" x1="710.76221" y1="398.2243" x2="744.0426" y2="416.45694"><stop offset="0" stop-color="#0082AA"/><stop offset="1" stop-color="#0097AC"/></linearGradient></defs><path fill="url(#gradient_5)" d="M744.665 365.573C745.28 363.551 745.572 362.04 746.804 360.324L748.216 360.247C749.613 361.212 750.208 361.569 751.821 362.081C756.655 405.592 744.044 437.314 702.959 456.553L702.392 455.148C707.848 443.049 710.401 409.849 710.657 396.297C713.381 395.016 713.19 392.84 714.908 390.355C716.668 387.81 718.326 385.137 720.383 382.807C727.04 375.266 735.351 369.368 744.665 365.573Z"/><path fill="#2D4D8D" d="M750.656 355.393C755.262 352.899 765.688 344.332 770.208 340.749C771.218 347.527 772.532 356.181 772.84 362.994C772.97 365.866 772.065 385.845 771.311 386.993C766.211 380.25 761.788 384.424 757.924 381.663C753.92 374.34 754.033 362.859 751.359 358.909L750.656 355.393Z"/><path fill="#2289B8" d="M802.048 302.023C805.651 297.968 809.562 286.217 812.809 284.639C814.157 288.553 820.23 302.521 820.529 304.665C822.699 309.684 828.376 328.649 828.548 334.115C828.346 335.075 828.085 335.947 827.815 336.887L828.27 335.666L827.252 336.627C821.635 330.873 822.471 332.157 814.108 329.239L813.581 329.565L815.008 330.586C812.385 332.046 808.485 329.659 805.788 328.705C799.985 326.653 792.467 327.255 787.447 323.466C789.634 320.8 791.787 317.775 793.85 314.988C797.36 310.904 798.951 306.888 802.066 302.886L802.048 302.023Z"/><path fill="#9289D7" d="M802.048 302.023C805.651 297.968 809.562 286.217 812.809 284.639C814.157 288.553 820.23 302.521 820.529 304.665C818.196 304.188 818.483 299.449 816.403 297.311C813.992 296.861 809.124 295.736 806.953 296.047C805.608 298.532 804.385 300.945 802.723 303.234L802.066 302.886L802.048 302.023Z"/><path fill="#00D0DC" d="M773.657 337.617C780.451 358.522 781.836 382.295 778.912 404.059C778.037 410.572 776.187 416.006 775.184 422.111L774.59 422.354L773.602 421.073C771.872 425.746 770.14 431.25 768.308 435.742L767.445 435.681C779.72 405.255 780.106 371.502 770.999 340.161L773.657 337.617Z"/><defs><linearGradient id="gradient_6" gradientUnits="userSpaceOnUse" x1="329.5892" y1="345.51694" x2="400.49045" y2="337.30957"><stop offset="0" stop-color="#B21D83"/><stop offset="1" stop-color="#7864A6"/></linearGradient></defs><path fill="url(#gradient_6)" d="M383.292 231.851C385.066 236.664 389.171 247.686 391.777 252.034L392.19 253.265C387.53 262.029 381.928 274.804 379.113 284.423C374.577 293.427 373.049 306.094 371.13 315.895C370.778 317.693 369.726 318.222 368.072 317.868C370.288 322.87 370.541 321.028 370.763 327.128C371.109 336.595 371.57 346.314 374.75 355.323L375.563 354.47C382.531 375.859 395.159 391.225 415.785 402.024C442.523 416.025 477.177 417.296 506.162 409.831C506.481 409.712 506.799 409.593 507.118 409.474C507.739 409.825 508.111 409.974 508.642 410.436C496.629 413.779 491.268 415.563 478.267 417.635C477.251 418.998 474.04 422.109 474.42 423.694C475.723 429.128 471.543 436.367 470.304 442.09L469.131 441.941C468.603 442.534 466.055 458.793 465.97 460.755L464.812 461L466.771 462.982C448.914 463.043 440.324 461.665 422.873 457.763L422.92 458.455C425.573 459.157 428.237 459.818 430.91 460.438C430.698 461.347 429.916 464.68 429.45 465.163C423.434 471.407 414.405 478.853 407.964 484.465C406.645 484.919 405.029 484.202 403.601 483.771C401.813 482.725 399.376 481.762 397.453 480.76C389.595 476.667 382.656 471.42 375.449 466.321C374.112 465.375 374.137 465.662 372.594 466.068C359.254 457.188 337.599 426.882 333.803 410.998C323.07 387.435 323.625 344.993 331.456 320.615C332.442 312.135 342.141 290.417 345.986 282.474L345.902 280.95C347.299 278.882 348.621 276.538 349.902 274.389C359.301 258.619 370.138 244.619 383.292 231.851Z"/><path fill="#552B85" d="M331.456 320.615C332.078 325.873 328.774 330.429 329.358 335.176C329.556 334.502 329.745 333.899 330.075 333.277L330.773 333.335C331.373 331.2 332.864 323.3 333.287 322.276C334.079 323.63 330.532 345.501 331.095 350.07C331.575 353.966 332.613 366.409 331.749 369.503C336.591 398.6 361.571 429.138 387.705 442.303C400.577 449.674 408.641 453.255 422.873 457.763L422.92 458.455C425.573 459.157 428.237 459.818 430.91 460.438C430.698 461.347 429.916 464.68 429.45 465.163C423.434 471.407 414.405 478.853 407.964 484.465C406.645 484.919 405.029 484.202 403.601 483.771C401.813 482.725 399.376 481.762 397.453 480.76C389.595 476.667 382.656 471.42 375.449 466.321C374.112 465.375 374.137 465.662 372.594 466.068C359.254 457.188 337.599 426.882 333.803 410.998C323.07 387.435 323.625 344.993 331.456 320.615Z"/><path fill="#9E349F" d="M331.456 320.615C332.078 325.873 328.774 330.429 329.358 335.176C329.556 334.502 329.745 333.899 330.075 333.277L330.773 333.335C331.373 331.2 332.864 323.3 333.287 322.276C334.079 323.63 330.532 345.501 331.095 350.07C331.575 353.966 332.613 366.409 331.749 369.503C330.357 364.128 329.86 361.72 329.435 356.296C329.142 352.569 330.159 339.955 329.231 337.522C327.535 342.415 326.979 353.747 326.897 359.158C327.542 356.163 328.507 353.074 327.832 350.009C327.377 347.947 326.74 347.57 328.352 346.418C329.639 348.494 328.064 366.47 328.314 370.707C328.904 380.725 331.058 389.814 332.866 399.636C332.96 400.147 333.763 411.169 333.803 410.998C323.07 387.435 323.625 344.993 331.456 320.615Z"/><defs><linearGradient id="gradient_7" gradientUnits="userSpaceOnUse" x1="396.05695" y1="429.66455" x2="464.22595" y2="442.36835"><stop offset="0" stop-color="#8A59AF"/><stop offset="1" stop-color="#148CB9"/></linearGradient></defs><path fill="url(#gradient_7)" d="M400.929 411.99C427.093 419.607 445.751 421.507 473.316 418.3L478.267 417.635C477.251 418.998 474.04 422.109 474.42 423.694C475.723 429.128 471.543 436.367 470.304 442.09L469.131 441.941C468.603 442.534 466.055 458.793 465.97 460.755L464.812 461L466.771 462.982C448.914 463.043 440.324 461.665 422.873 457.763C408.641 453.255 400.577 449.674 387.705 442.303L388.467 441.999L393.304 444.179C402.885 433.533 397.279 427.515 408.374 415.043C405.806 414.295 403.422 413.473 400.897 412.603L400.929 411.99Z"/><path fill="#2289B8" d="M473.316 418.3L478.267 417.635C477.251 418.998 474.04 422.109 474.42 423.694C475.723 429.128 471.543 436.367 470.304 442.09L469.131 441.941C468.603 442.534 466.055 458.793 465.97 460.755L464.812 461C459.185 460.072 454.859 459.626 449.166 459.158C455.984 451.729 455.272 441.504 456.691 431.627C458.919 416.132 466.082 425.059 473.316 418.3Z"/><path fill="#552B85" d="M375.563 354.47C382.531 375.859 395.159 391.225 415.785 402.024C442.523 416.025 477.177 417.296 506.162 409.831C506.481 409.712 506.799 409.593 507.118 409.474C507.739 409.825 508.111 409.974 508.642 410.436C496.629 413.779 491.268 415.563 478.267 417.635L473.316 418.3C445.751 421.507 427.093 419.607 400.929 411.99C381.966 403.558 370.938 399.954 356.252 383.602C360.006 386.751 362.098 384.27 368.212 384.379C370.429 385.839 370.851 386.457 373.645 386.425C378.083 386.376 387.432 388.369 390.89 384.865C384.767 377.323 376.718 364.633 374.75 355.323L375.563 354.47Z"/><path fill="#0093AB" d="M595.175 480.624C614.819 490.978 631.926 495.652 653.37 500.285C656.638 500.713 667.832 501.882 670.323 502.53C674.621 502.607 679.22 502.202 682.795 502.268C671.47 518.408 660.828 531.731 644.284 543.14C642.84 544.136 638.71 546.92 637.27 547.374C621.498 558.886 591.819 565.497 572.452 563.795C526.52 559.758 501.987 538.174 473.571 505.48C474.937 504.12 476.328 504.483 478.33 504.437C477.214 505.062 477.634 504.612 477.16 505.94C477.441 506.209 478.004 506.889 478.385 506.916C521.642 509.978 556.936 500.251 595.175 480.624Z"/><defs><linearGradient id="gradient_8" gradientUnits="userSpaceOnUse" x1="638.37219" y1="522.30579" x2="679.70111" y2="522.0824"><stop offset="0" stop-color="#237BB4"/><stop offset="1" stop-color="#566EAC"/></linearGradient></defs><path fill="url(#gradient_8)" d="M638.539 534.432C637.047 525.193 636.668 520.974 642.869 513.887C642.862 513.895 643.032 507.886 642.994 506.951C641.3 504.567 639.435 505.55 636.91 503.359C636.817 501.839 636.903 502.264 638.046 500.678C640.857 498.869 649.138 500.894 653.37 500.285C656.638 500.713 667.832 501.882 670.323 502.53C674.621 502.607 679.22 502.202 682.795 502.268C671.47 518.408 660.828 531.731 644.284 543.14C642.84 544.136 638.71 546.92 637.27 547.374L637.152 546.29C637.499 546.119 640.325 544.673 640.141 544.162C638.923 540.776 638.575 537.988 638.539 534.432Z"/><path fill="#2289B8" d="M638.539 534.432C637.047 525.193 636.668 520.974 642.869 513.887C642.862 513.895 643.032 507.886 642.994 506.951C641.3 504.567 639.435 505.55 636.91 503.359C636.817 501.839 636.903 502.264 638.046 500.678C640.857 498.869 649.138 500.894 653.37 500.285C656.638 500.713 667.832 501.882 670.323 502.53L669.605 502.569C664.162 502.83 644.428 500.82 641.972 501.414C641.23 503.398 642.719 504.039 644.231 505.312C645.302 508.679 643.413 512.97 644.543 518.822C643.046 521.554 640.101 520.619 638.693 525.34C639.129 528.519 640.105 531.39 638.539 534.432Z"/><defs><linearGradient id="gradient_9" gradientUnits="userSpaceOnUse" x1="498.46396" y1="391.7999" x2="570.14142" y2="449.9859"><stop offset="0" stop-color="#008BB5"/><stop offset="1" stop-color="#00CCC3"/></linearGradient></defs><path fill="url(#gradient_9)" d="M571.111 385.887C573.749 385.098 577.434 384.109 579.902 383.122C587.264 385.474 604.442 390.679 609.748 394.317L613.167 392.172L614.063 392.436L614.261 394.393L616.605 393.118C615.025 394.954 613.077 397.838 611.562 399.322C608.519 402.304 601.166 407.57 599.54 411.49C597.332 413.548 594.723 415.56 592.729 417.462C585.802 422.147 578.531 428.271 571.304 432.532C548.411 446.029 524.325 455.455 498.131 460.215C490.18 461.66 483.357 461.717 476.278 462.79L466.771 462.982L464.812 461L465.97 460.755C466.055 458.793 468.603 442.534 469.131 441.941L470.304 442.09C471.543 436.367 475.723 429.128 474.42 423.694C474.04 422.109 477.251 418.998 478.267 417.635C491.268 415.563 496.629 413.779 508.642 410.436L512.111 409.9C530.661 403.783 545.057 397.436 562.167 388.63C565.449 388.656 568.102 387.212 571.111 385.887Z"/><path fill="#2289B8" d="M571.111 385.887C573.749 385.098 577.434 384.109 579.902 383.122C587.264 385.474 604.442 390.679 609.748 394.317L613.167 392.172L614.063 392.436L614.261 394.393C609.926 401.106 592.721 414.324 585.535 418.457C568.46 418.286 551.062 418.629 534.249 415.072C528.785 413.915 516.302 412.314 512.111 409.9C530.661 403.783 545.057 397.436 562.167 388.63C565.449 388.656 568.102 387.212 571.111 385.887Z"/><path fill="#25105B" d="M702.151 360.986C703.09 360.24 704.135 359.625 705.152 358.985C705.538 360.391 706.22 362.146 706.039 363.473C703.926 366.203 700.863 373.356 699.161 376.761C694.736 385.612 687.375 400.194 681.002 407.602C679.833 404.118 682.423 401.3 678.215 399.051C676.751 399.511 675.579 401.554 674.593 402.898C672.73 402.546 667.881 401.24 666.534 401.44C663.556 401.88 657.835 401.37 655.152 401.911C649.674 403.014 649.773 404.715 643.507 404.498L642.763 404.47C630.83 409.041 621.088 412.332 608.533 414.92C606.611 414.102 603.587 415.361 601.544 413.411C601.725 411.244 603.251 409.727 604.327 407.673C609.881 402.066 614.964 396.983 620.099 390.959C623.375 387.194 626.318 383.603 629.15 379.488C629.867 379.015 632.115 375.818 632.79 374.915C645.492 379.417 672.927 374.581 685.537 369.528C691.21 367.255 696.758 363.826 702.151 360.986Z"/><path fill="#12508B" d="M702.151 360.986C703.09 360.24 704.135 359.625 705.152 358.985C705.538 360.391 706.22 362.146 706.039 363.473C703.926 366.203 700.863 373.356 699.161 376.761C694.736 385.612 687.375 400.194 681.002 407.602C679.833 404.118 682.423 401.3 678.215 399.051C676.751 399.511 675.579 401.554 674.593 402.898C672.73 402.546 667.881 401.24 666.534 401.44C663.556 401.88 657.835 401.37 655.152 401.911C649.674 403.014 649.773 404.715 643.507 404.498L642.763 404.47C669.944 391.552 682.306 383.499 702.151 360.986Z"/><path fill="#12508B" d="M430.91 460.438C428.237 459.818 425.573 459.157 422.92 458.455L422.873 457.763C440.324 461.665 448.914 463.043 466.771 462.982L476.278 462.79C478.55 462.753 480.639 462.521 482.746 463.266C468.92 464.529 461.43 463.601 448.217 463.495C452.272 469.789 455.908 476.292 459.961 482.666C461.56 485.18 465.088 488.033 467.354 490.678C469.876 494.071 471.477 498.114 473.812 501.639C473.776 502.095 473.74 502.55 473.704 503.005C476.983 504.482 478.932 503.167 481.689 501.662L482.901 501.704L483.137 503.238C485.849 503.262 496.48 502.685 498.336 503.527C497.153 503.66 491.143 504.041 490.715 504.24C486.989 504.477 482.142 504.393 478.33 504.437C476.328 504.483 474.937 504.12 473.571 505.48C471.947 504.839 463.635 503.962 461.455 503.698C458.161 503.897 449.404 501.912 446.004 501.16C420.238 495.46 392.484 483.768 372.594 466.068C374.137 465.662 374.112 465.375 375.449 466.321C382.656 471.42 389.595 476.667 397.453 480.76C399.376 481.762 401.813 482.725 403.601 483.771C405.029 484.202 406.645 484.919 407.964 484.465C414.405 478.853 423.434 471.407 429.45 465.163C429.916 464.68 430.698 461.347 430.91 460.438Z"/><path fill="#666BAB" d="M372.594 466.068C374.137 465.662 374.112 465.375 375.449 466.321C382.656 471.42 389.595 476.667 397.453 480.76C399.376 481.762 401.813 482.725 403.601 483.771C421.99 494.406 438.071 496.925 458.493 502.193C460.805 502.79 464.236 502.891 465.946 503.335L461.455 503.698C458.161 503.897 449.404 501.912 446.004 501.16C420.238 495.46 392.484 483.768 372.594 466.068Z"/><path fill="#12508B" d="M596.014 477.663C585.953 472.471 571.548 465.515 564.308 456.909C562.636 454.921 565.35 447.445 568.162 447.713C584.696 449.286 603.051 462.332 619.61 463.142L619.738 463.873C612.109 469.21 602.621 473.348 596.316 477.62L596.014 477.663Z"/><defs><linearGradient id="gradient_10" gradientUnits="userSpaceOnUse" x1="581.03906" y1="506.82498" x2="579.46716" y2="479.74146"><stop offset="0" stop-color="#0098BB"/><stop offset="1" stop-color="#00B0C2"/></linearGradient></defs><path fill="url(#gradient_10)" d="M596.014 477.663L596.316 477.62C613.002 486.461 631.038 492.122 649.435 496.147C661.046 498.686 670.516 498.722 682.301 499.285C683.067 499.322 683.372 499.562 683.972 499.974L684.241 501.391L682.795 502.268C679.22 502.202 674.621 502.607 670.323 502.53C667.832 501.882 656.638 500.713 653.37 500.285C631.926 495.652 614.819 490.978 595.175 480.624C556.936 500.251 521.642 509.978 478.385 506.916C478.004 506.889 477.441 506.209 477.16 505.94C477.634 504.612 477.214 505.062 478.33 504.437C482.142 504.393 486.989 504.477 490.715 504.24C494.955 504.868 505.766 503.797 510.124 503.348C541.707 500.099 567.823 491.806 596.014 477.663Z"/><path fill="#0D2574" d="M599.54 411.49L604.327 407.673C603.251 409.727 601.725 411.244 601.544 413.411C603.587 415.361 606.611 414.102 608.533 414.92C605.111 415.881 596.136 417.653 592.729 417.462C594.723 415.56 597.332 413.548 599.54 411.49Z"/><defs><linearGradient id="gradient_11" gradientUnits="userSpaceOnUse" x1="678.86261" y1="796.06781" x2="811.31427" y2="714.66534"><stop offset="0" stop-color="#FF2CD4"/><stop offset="1" stop-color="#C377DA"/></linearGradient></defs><path fill="url(#gradient_11)" d="M743.998 619.193L780.365 619.179C786.881 619.183 796.878 618.979 803.188 619.579C826.836 621.364 853.484 632.422 865.539 653.894C876.077 671.695 878.853 694.269 873.676 714.233C873.129 716.37 872.486 718.481 871.748 720.56C867.256 735.388 854.583 749.298 841.114 756.694C840.561 756.991 839.995 757.262 839.418 757.506C836.178 759.616 831.338 761.691 827.742 763.369C831.114 768.297 849.924 794.284 850.865 797.239C855.503 802.635 869.925 823.426 873.769 829.748C875.515 832.435 877.771 835.701 879.208 838.496L864.558 838.5C860.862 838.858 854.683 838.556 850.802 838.481C836.187 815.754 818.928 791.538 803.555 768.942C781.734 770.695 750.886 769.856 728.281 769.856L728.09 838.479L702.806 838.49L702.265 619.336C715.852 619.003 730.34 619.224 743.998 619.193ZM728.435 747.308C741.168 747.253 753.9 747.28 766.632 747.388C782.274 747.457 797.893 748.048 813.112 743.865C817.614 742.628 821.955 740.309 826.159 738.282C826.855 737.947 829.864 736.181 830.286 736.048C835.117 731.467 838.162 730.197 842.375 723.781C850.386 711.585 851.835 694.368 848.861 680.368C845.916 666.504 838.618 657.602 827.011 650.09C807.784 640.457 793.241 641.619 772.578 641.7L732.326 641.789C730.576 641.882 729.343 641.593 728.352 642.579C727.877 657.048 728.173 672.843 728.178 687.397C728.096 707.367 728.181 727.338 728.435 747.308Z"/><path fill="#9E92D9" d="M827.011 650.09C831.058 649.269 839.507 658.601 841.725 661.756L842.269 661.238C846.26 663.953 849.931 670.236 851.553 674.799C852.143 693.932 856.903 694.475 850.504 713.592C850.822 728.732 839.383 728.888 835.168 737.625C832.829 739.803 828.735 741.101 825.657 742.776L825.32 742.961C823.637 742.273 824.243 742.82 823.332 741.399C823.875 740.478 828.359 738.431 830.187 737.17L830.286 736.048C835.117 731.467 838.162 730.197 842.375 723.781C850.386 711.585 851.835 694.368 848.861 680.368C845.916 666.504 838.618 657.602 827.011 650.09Z"/><path fill="#679CDA" d="M743.998 619.193L780.365 619.179C786.881 619.183 796.878 618.979 803.188 619.579C826.836 621.364 853.484 632.422 865.539 653.894C876.077 671.695 878.853 694.269 873.676 714.233C873.129 716.37 872.486 718.481 871.748 720.56C867.256 735.388 854.583 749.298 841.114 756.694C840.561 756.991 839.995 757.262 839.418 757.506C837.532 755.879 834.589 760.049 832.273 759.807C835.504 752.479 832.842 749.365 828.63 743.185C831.298 741.65 834.013 740.443 835.168 737.625C839.383 728.888 850.822 728.732 850.504 713.592C856.903 694.475 852.143 693.932 851.553 674.799C849.931 670.236 846.26 663.953 842.269 661.238L841.725 661.756C839.507 658.601 831.058 649.269 827.011 650.09C807.784 640.457 793.241 641.619 772.578 641.7L732.326 641.789C737.839 640.12 746.312 643.084 749.826 638.302C750.701 631.44 740.879 627.355 743.998 619.193Z"/><defs><linearGradient id="gradient_12" gradientUnits="userSpaceOnUse" x1="847.77405" y1="697.30963" x2="870.98035" y2="675.49298"><stop offset="0" stop-color="#6E9AD9"/><stop offset="1" stop-color="#26ADDA"/></linearGradient></defs><path fill="url(#gradient_12)" d="M852.323 659.878L853.835 659.476L853.841 658.722C852.819 657.062 851.021 655.692 848.778 654.347C844.531 651.802 849.263 646.073 848.505 642.361C848.396 641.826 844.394 639.571 844.135 638.119C849.571 641.273 855.027 644.125 859.103 648.815C860.074 650.654 861.583 652.367 862.898 654.011L863.931 654.656L865.539 653.894C876.077 671.695 878.853 694.269 873.676 714.233C873.129 716.37 872.486 718.481 871.748 720.56C867.256 735.388 854.583 749.298 841.114 756.694C840.561 756.991 839.995 757.262 839.418 757.506C837.532 755.879 834.589 760.049 832.273 759.807C835.504 752.479 832.842 749.365 828.63 743.185C831.298 741.65 834.013 740.443 835.168 737.625C839.383 728.888 850.822 728.732 850.504 713.592C856.903 694.475 852.143 693.932 851.553 674.799C851.319 665.664 843.195 653.889 835.62 649.189C834.688 648.611 834.78 649.065 833.878 647.903C837.907 646.401 843.331 653.052 845.105 656.126C846.634 658.776 848.844 659.377 851.688 659.789L852.323 659.878Z"/><path fill="#9289D7" d="M850.504 713.592L851.069 716.187L851.632 715.909C852.642 712.609 853.374 708.339 856.095 706.603C860.371 707.722 862.266 713.758 867.952 714.199C869.096 719.014 859.117 729.111 860.324 732.411C863.62 730.402 868.988 718.931 869.898 714.796L871.648 715.336C872.219 718.392 870.835 717.814 871.748 720.56C867.256 735.388 854.583 749.298 841.114 756.694C840.561 756.991 839.995 757.262 839.418 757.506C837.532 755.879 834.589 760.049 832.273 759.807C835.504 752.479 832.842 749.365 828.63 743.185C831.298 741.65 834.013 740.443 835.168 737.625C839.383 728.888 850.822 728.732 850.504 713.592Z"/><path fill="#28B5DB" d="M852.323 659.878L853.835 659.476L853.841 658.722C852.819 657.062 851.021 655.692 848.778 654.347C844.531 651.802 849.263 646.073 848.505 642.361C848.396 641.826 844.394 639.571 844.135 638.119C849.571 641.273 855.027 644.125 859.103 648.815C860.074 650.654 861.583 652.367 862.898 654.011C862.345 660.462 868.299 666.845 870.008 675.314C870.093 676.474 870.037 677.865 870.024 679.051C868.811 680.85 869.502 680.378 867.554 680.919C865.533 680.222 865.47 679.974 864.045 678.255L864.994 674.935C863.824 669.629 859.574 673.185 861.503 663.763C860.625 661.775 861.046 662.458 859.197 661.054C857.516 661.299 855.631 659.927 852.323 659.878Z"/><path fill="#56B2DE" d="M865.539 653.894C876.077 671.695 878.853 694.269 873.676 714.233C873.129 716.37 872.486 718.481 871.748 720.56C870.835 717.814 872.219 718.392 871.648 715.336L869.898 714.796C871.281 709.319 873.468 678.671 870.008 675.314C868.299 666.845 862.345 660.462 862.898 654.011L863.931 654.656L865.539 653.894Z"/><path fill="#9289D7" d="M743.998 619.193L780.365 619.179C786.881 619.183 796.878 618.979 803.188 619.579C797.875 623.073 790.958 616.061 788.31 623.866C786.521 629.136 791.417 637.23 796.847 638.258C799.675 638.887 801.717 637.156 804.537 637.907C819.595 641.089 832.353 647.191 841.503 659.848C841.669 660.078 842.174 660.96 842.269 661.238L841.725 661.756C839.507 658.601 831.058 649.269 827.011 650.09C807.784 640.457 793.241 641.619 772.578 641.7L732.326 641.789C737.839 640.12 746.312 643.084 749.826 638.302C750.701 631.44 740.879 627.355 743.998 619.193Z"/><path fill="#9E92D9" d="M850.865 797.239C855.503 802.635 869.925 823.426 873.769 829.748C875.515 832.435 877.771 835.701 879.208 838.496L864.558 838.5C868.136 836.657 871.676 839.038 874.484 835.971C874.699 833.857 874.474 833.684 873.463 831.698L872.263 831.042L871.385 831.461L871.192 833.597L870.515 833.604C869.484 831.688 865.765 825.427 865.355 823.983C866.713 824.84 869.441 829.053 870.542 830.62C867.806 817.58 852.308 805.4 850.865 797.239Z"/><path fill="#00D0DC" d="M1132.06 619.322C1139.69 619.146 1147.33 619.137 1154.97 619.297C1155.81 644.669 1155.45 671.188 1155.45 696.682L1155.34 838.627C1147.49 838.638 1137.97 838.392 1130.26 838.761C1130.45 825.812 1130.35 812.508 1130.19 799.547C1129.66 755.308 1130.82 710.754 1129.95 666.546C1120.16 682.935 1107.17 707.552 1098.02 723.155C1091.95 733.505 1049.27 811.93 1046.5 813.487L1044.6 813.485C1041.21 813.766 1036.35 813.656 1032.84 813.681L971.107 703.556C964.507 692.014 957.395 678.72 950.493 667.609L950.705 716.256L950.707 774.221C950.704 784.555 950.984 796.829 950.541 807.03C951.005 816.482 950.601 829.148 950.6 838.869C942.232 838.671 933.86 838.667 925.492 838.857L925.44 740.075C925.44 722.222 924.914 699.571 925.716 681.881C925.563 667.012 925.524 652.143 925.599 637.275C925.505 631.271 925.5 625.266 925.585 619.262C933.218 619.277 940.987 619.212 948.606 619.316L1040.34 781.647C1048.27 768.728 1055.23 754.649 1062.89 741.532C1086.3 701.442 1108.45 659.149 1132.06 619.322Z"/><path fill="#679CDA" d="M925.599 637.275C929.436 650.927 926.982 670.817 928.668 684.475C929.343 689.939 931.055 726.023 931.981 727.965C932.522 724.638 931.221 725.398 932.879 723.507C934.975 723.24 934.334 723.024 935.984 723.86C935.651 724.712 935.793 724.576 935.241 725.266C936.396 727.399 942.599 738.561 943.971 739.359C947.49 737.702 949.087 715.532 949.309 710.706C949.328 712.088 949.241 717.638 949.686 718.485L950.705 716.256L950.707 774.221C950.704 784.555 950.984 796.829 950.541 807.03C951.005 816.482 950.601 829.148 950.6 838.869C942.232 838.671 933.86 838.667 925.492 838.857L925.44 740.075C925.44 722.222 924.914 699.571 925.716 681.881C925.563 667.012 925.524 652.143 925.599 637.275Z"/><path fill="#9E92D9" d="M925.716 681.881C928.077 675.439 926.634 668.387 926.757 661.674C926.773 660.82 926.453 660.672 927.02 660.372C928.458 676.191 926.437 694.986 927.472 711.015C927.743 715.212 928.414 718.785 929.203 722.884C928.991 730.8 928.722 738.129 929.1 746.102C930.103 767.277 933.427 798.289 931.485 818.615C936.06 820.8 941.409 824.424 943.355 829.435C944.337 831.963 943.74 835.212 945.024 837.394C946.544 837.478 948.07 837.795 949.323 837.22C949.52 833.376 949.226 801.784 949.397 801.429L950.413 802.766C950.021 803.95 950.292 805.807 950.541 807.03C951.005 816.482 950.601 829.148 950.6 838.869C942.232 838.671 933.86 838.667 925.492 838.857L925.44 740.075C925.44 722.222 924.914 699.571 925.716 681.881Z"/><path fill="#28B5DB" d="M971.107 703.556C976.687 707.439 1017.48 784.32 1024.88 795.798C1026.81 798.788 1029.46 806.686 1032.79 809.674C1035.81 812.386 1040.78 812.354 1044.6 813.485C1041.21 813.766 1036.35 813.656 1032.84 813.681L971.107 703.556Z"/><path fill="#5C4B99" d="M88.4053 614.559C116.685 612.412 144.865 619.837 168.419 635.64C166.559 642.283 158.353 659.711 155.105 666.986C135.435 654.103 117.865 647.247 93.9261 647C73.9462 646.793 43.8314 653.434 43.9425 678.522C44.0446 701.548 75.4862 705.778 92.6116 710.333C115.954 716.055 144.692 720.701 162.479 738.419C183.29 759.15 180.259 801.143 158.499 820.225C134.523 841.884 107.194 842.445 76.7616 841.981C49.2096 840.936 20.9296 832.912 0.513972 813.584C3.39857 804.881 10.5495 790.687 14.8475 782.688C16.4097 783.739 18.1552 785.162 19.6372 786.337C41.8245 803.917 69.4465 810.56 97.4526 809C117.106 807.906 139.504 799.635 137.764 775.968C136.997 765.535 129.912 759.332 120.813 755.267C89.3116 741.755 52.0451 743.025 24.0171 721.196C0.36925 702.778 -0.197711 663.626 19.4735 642.18C38.0049 621.977 62.1989 616.184 88.4053 614.559Z"/><path fill="#25105B" d="M16.464 789.385C17.6538 790.435 18.7763 791.282 20.0591 792.215C44.767 809.851 75.3822 817.139 105.383 812.526C125.619 809.342 145.983 797.787 142.213 773.763C138.366 753.124 114.96 747.523 97.5861 743.077C66.4992 735.12 17.6212 729.66 10.6657 690.632C8.57701 676.687 10.5489 660.738 18.9939 649.206C48.4806 608.941 125.95 610.604 163.002 637.434C160.082 644.807 156.687 653.71 153.031 660.657C129.24 643.128 88.8451 637.323 61.4787 648.513C32.9579 660.176 30.5219 694.001 61.3875 705.566C67.477 706.424 73.6706 708.562 79.678 709.821C93.7668 712.774 107.188 715.827 120.754 720.634C127.74 723.11 134.324 723.129 141.113 727.32L140.741 727.245C143.012 728.649 148.737 731.722 149.726 733.592C151.943 735.17 154.101 736.733 156.173 738.485C177.533 756.549 176.854 793.56 158.792 813.628C143.507 830.612 120.203 837.025 98.1455 838.237C66.9397 839.952 29.7188 833.804 5.51719 812.569C9.4268 804.571 11.9157 797.434 16.464 789.385Z"/><path fill="#552B85" d="M61.3875 705.566C67.477 706.424 73.6706 708.562 79.678 709.821C93.7668 712.774 107.188 715.827 120.754 720.634C127.74 723.11 134.324 723.129 141.113 727.32L140.741 727.245C143.012 728.649 148.737 731.722 149.726 733.592C141.233 730.2 135.783 725.999 125.488 723.183C115.523 720.457 107.261 718.191 97.1433 716.019C87.9916 714.055 69.1571 710.034 61.3875 705.566Z"/><path fill="#CE256A" d="M473.678 64.577C476.043 62.1167 478.371 58.6267 480.394 55.8267C499.995 28.4241 530.606 6.56654 563.991 1.83383C614.163 -5.2785 657.259 21.0355 684.986 61.1648C685.191 61.2961 685.397 61.4275 685.603 61.5588L684.925 61.6075C678.157 62.0647 670.768 61.2058 664.431 61.6131C636.276 63.1471 608.576 69.3853 582.48 80.0689C579.806 81.1736 569.812 85.6393 567.677 87.1731L565.657 86.6121C557.429 91.3486 546.435 97.3131 538.847 102.739C537.794 101.941 538.069 102.21 536.33 102.338C506.511 97.0854 483.528 97.9174 454.983 109.351L454.516 108.481C454.4 100.154 468.379 74.556 472.89 66.7365C469.062 66.1769 464.958 68.2251 461.696 68.2267L461.759 67.394C456.032 67.8744 441.753 71.8429 438.361 71.2592C447.878 67.9695 463.531 66.0491 473.678 64.577Z"/><path fill="#FD309E" d="M474.432 65.03C482.96 65.439 492.118 65.3904 500.669 66.0401C515.618 67.176 554.312 77.437 565.657 86.6121C557.429 91.3486 546.435 97.3131 538.847 102.739C537.794 101.941 538.069 102.21 536.33 102.338C506.511 97.0854 483.528 97.9174 454.983 109.351L454.516 108.481C454.4 100.154 468.379 74.556 472.89 66.7365L474.432 65.03Z"/><path fill="#5C4B99" d="M223.82 617.99L380.527 618.197L380.505 650.531C355.645 650.859 330.783 650.963 305.922 650.845C306.519 698.027 306.077 746.497 305.977 793.736L305.892 838.661C294.939 838.585 279.288 838.093 268.757 838.9C267.516 776.288 268.957 713.466 268.24 650.782C244.852 651.135 217.193 651.223 193.969 650.533C194.238 639.934 193.493 629.189 193.827 618.26C203.61 617.897 213.983 618.024 223.82 617.99Z"/><defs><linearGradient id="gradient_13" gradientUnits="userSpaceOnUse" x1="218.7287" y1="747.67371" x2="386.1355" y2="640.14099"><stop offset="0" stop-color="#26074F"/><stop offset="1" stop-color="#24418A"/></linearGradient></defs><path fill="url(#gradient_13)" d="M258.719 621.945L376.475 622.103L376.501 646.832C371.984 647.118 363.302 646.641 358.429 646.596L322.069 646.465C316.143 646.453 308.371 646.17 302.697 646.929C300.576 655.815 301.515 691.462 301.555 702.731C301.957 740.922 302.007 779.117 301.706 817.309L301.754 834.556C292.643 834.983 282.109 834.609 272.748 834.797L272.666 725.364C272.676 714.824 273.631 653.844 271.373 647.492C267.773 645.879 206.504 646.603 197.521 646.522C197.917 639.235 197.653 629.568 197.671 622.101L258.719 621.945Z"/><defs><linearGradient id="gradient_14" gradientUnits="userSpaceOnUse" x1="474.35504" y1="767.3194" x2="675.99713" y2="694.55035"><stop offset="0" stop-color="#C8178C"/><stop offset="1" stop-color="#FF4BE0"/></linearGradient></defs><path fill="url(#gradient_14)" d="M574.951 616.257C579.806 616.024 584.668 615.981 589.526 616.129C616.616 617.124 642.711 628.206 661.202 648.216C657.185 653.279 649.742 661.4 645.202 665.855C636.151 657.53 629.246 651.657 617.724 646.558C596.243 637.053 569.3 637.582 547.599 646.163C527.179 654.22 510.837 670.126 502.229 690.325C483.305 734.415 498.948 791.084 545.196 810.58C568.665 820.221 595.005 820.121 618.4 810.302C630.569 804.516 636.195 799.76 645.367 790.573C649.697 794.238 658.252 803.136 662.084 807.323C661.684 807.854 661.268 808.373 660.837 808.879C625.055 851.394 548.717 851.741 507.088 816.813C459.431 776.829 453.691 701.413 494.286 654.276C515.356 629.809 543.087 618.824 574.951 616.257Z"/></svg>